<?xml version="1.0" encoding="UTF-8"?>
<svg version="1.1" xmlns="http://www.w3.org/2000/svg" width="512" height="512">
<path d="M0 0 C1.72582588 -0.00461468 3.45164783 -0.01097139 5.17746162 -0.01890898 C9.89733791 -0.03554752 14.61688907 -0.02738091 19.33676624 -0.0149641 C24.43569409 -0.00589347 29.53456703 -0.01989332 34.63348389 -0.03088379 C44.61335561 -0.0486521 54.59310686 -0.04483653 64.57298326 -0.03323323 C72.68524188 -0.02419255 80.79746679 -0.02297766 88.909729 -0.02732849 C90.06516366 -0.02794142 91.22059832 -0.02855436 92.41104615 -0.02918586 C94.75843224 -0.03046479 97.10581832 -0.03176164 99.45320439 -0.03307623 C121.45459403 -0.04447708 143.45591696 -0.03137606 165.45729566 -0.00987476 C184.32752087 0.00799575 203.19764765 0.00489151 222.06787109 -0.0135498 C243.99158028 -0.03496523 265.91523102 -0.04337849 287.8389492 -0.03110075 C290.17760594 -0.02982658 292.51626268 -0.0285691 294.85491943 -0.02732849 C296.58082752 -0.02640284 296.58082752 -0.02640284 298.34160244 -0.02545848 C306.44228783 -0.02200761 314.54293609 -0.02782829 322.64361572 -0.0372467 C332.5182667 -0.0484755 342.39279052 -0.04540803 352.26742697 -0.02412373 C357.30375001 -0.01362526 362.33986118 -0.00947105 367.37618256 -0.02272034 C371.99018845 -0.03467487 376.60378689 -0.02803128 381.21775603 -0.00681013 C382.88315294 -0.00235703 384.54858455 -0.00458117 386.21395898 -0.01431328 C399.81152694 -0.08765401 410.70157321 1.78907019 420.88232422 11.50793457 C429.84486386 20.89641669 432.49459673 31.03422128 432.39025879 43.76623535 C432.39961873 45.5450368 432.39961873 45.5450368 432.40916777 47.35977364 C432.42227636 50.62034745 432.41767563 53.88031611 432.40522289 57.14087391 C432.39612034 60.66924416 432.41016774 64.19753664 432.42114258 67.72589111 C432.43887723 74.62565631 432.43511048 81.52524691 432.42349201 88.42501879 C432.41443798 94.03537453 432.41324219 99.64568152 432.41758728 105.25604248 C432.41820021 106.0562309 432.41881314 106.85641932 432.41944465 107.68085587 C432.42072362 109.30670597 432.42202048 110.93255605 432.42333502 112.55840611 C432.434726 127.78411152 432.42165041 143.0097204 432.40013355 158.23540998 C432.3822639 171.28398211 432.38536843 184.33241188 432.40380859 197.38098145 C432.42524153 212.55427072 432.43362751 227.72747552 432.42135954 242.90077782 C432.42008542 244.52046075 432.41882793 246.1401437 432.41758728 247.75982666 C432.41666163 248.95502558 432.41666163 248.95502558 432.41571727 250.17436993 C432.41227164 255.77436875 432.41807571 261.37431372 432.42750549 266.9743042 C432.43875384 273.80403903 432.43562612 280.63359011 432.41438252 287.46330404 C432.40390999 290.94425405 432.39968468 294.42489828 432.41297913 297.90584564 C432.42394461 301.68741124 432.41015687 305.46812231 432.39025879 309.24963379 C432.40364312 310.88287944 432.40364312 310.88287944 432.41729784 312.54911995 C432.30104996 323.97557724 428.80438954 333.20937506 420.88232422 341.50793457 C409.94702115 351.94711803 398.19639311 353.10020537 383.76464844 353.01586914 C382.03882256 353.02048382 380.31300061 353.02684054 378.58718681 353.03477812 C373.86731053 353.05141666 369.14775937 353.04325005 364.42788219 353.03083324 C359.32895434 353.02176261 354.2300814 353.03576246 349.13116455 353.04675293 C339.15129283 353.06452124 329.17154158 353.06070567 319.19166517 353.04910237 C311.07940655 353.04006169 302.96718165 353.0388468 294.85491943 353.04319763 C293.69948478 353.04381056 292.54405012 353.0444235 291.35360229 353.045055 C289.0062162 353.04633393 286.65883012 353.04763078 284.31144404 353.04894537 C262.31005441 353.06034622 240.30873148 353.0472452 218.30735278 353.0257439 C199.43712757 353.00787339 180.56700078 353.01097763 161.69677734 353.02941895 C139.77306816 353.05083437 117.84941742 353.05924763 95.92569923 353.04696989 C93.5870425 353.04569572 91.24838576 353.04443824 88.909729 353.04319763 C87.18382091 353.04227198 87.18382091 353.04227198 85.42304599 353.04132763 C77.32236061 353.03787675 69.22171235 353.04369743 61.12103271 353.05311584 C51.24638174 353.06434464 41.37185792 353.06127717 31.49722147 353.03999287 C26.46089843 353.0294944 21.42478726 353.02534019 16.38846588 353.03858948 C11.77445999 353.05054401 7.16086155 353.04390042 2.5468924 353.02267927 C0.8814955 353.01822617 -0.78393612 353.02045031 -2.44931054 353.03018242 C-16.0468785 353.10352315 -26.93692478 351.22679895 -37.11767578 341.50793457 C-46.08021543 332.11945245 -48.72994829 321.98164786 -48.62561035 309.24963379 C-48.63185031 308.06376616 -48.63809028 306.87789852 -48.64451933 305.6560955 C-48.65762792 302.39552169 -48.65302719 299.13555303 -48.64057446 295.87499523 C-48.6314719 292.34662498 -48.64551931 288.8183325 -48.65649414 285.28997803 C-48.67422879 278.39021283 -48.67046205 271.49062223 -48.65884358 264.59085035 C-48.64978954 258.98049462 -48.64859375 253.37018762 -48.65293884 247.75982666 C-48.65355177 246.95963824 -48.65416471 246.15944982 -48.65479621 245.33501327 C-48.65607519 243.70916317 -48.65737204 242.08331309 -48.65868658 240.45746303 C-48.67007757 225.23175762 -48.65700197 210.00614874 -48.63548511 194.78045917 C-48.61761547 181.73188703 -48.62071999 168.68345726 -48.63916016 155.6348877 C-48.66059309 140.46159842 -48.66897907 125.28839362 -48.6567111 110.11509132 C-48.65543698 108.49540839 -48.6541795 106.87572544 -48.65293884 105.25604248 C-48.65232174 104.4592432 -48.65170464 103.66244392 -48.65106884 102.84149921 C-48.6476232 97.2415004 -48.65342728 91.64155542 -48.66285706 86.04156494 C-48.6741054 79.21183011 -48.67097769 72.38227903 -48.64973408 65.5525651 C-48.63926156 62.0716151 -48.63503624 58.59097086 -48.64833069 55.1100235 C-48.65929617 51.3284579 -48.64550843 47.54774683 -48.62561035 43.76623535 C-48.63453324 42.67740492 -48.64345613 41.58857449 -48.6526494 40.46674919 C-48.53640152 29.0402919 -45.0397411 19.80649408 -37.11767578 11.50793457 C-26.18237271 1.06875111 -14.43174467 -0.08433623 0 0 Z " fill="#00CFCD" transform="translate(64.11767578125,79.4920654296875)"/>
<path d="M0 0 C1.72582588 -0.00461468 3.45164783 -0.01097139 5.17746162 -0.01890898 C9.89733791 -0.03554752 14.61688907 -0.02738091 19.33676624 -0.0149641 C24.43569409 -0.00589347 29.53456703 -0.01989332 34.63348389 -0.03088379 C44.61335561 -0.0486521 54.59310686 -0.04483653 64.57298326 -0.03323323 C72.68524188 -0.02419255 80.79746679 -0.02297766 88.909729 -0.02732849 C90.06516366 -0.02794142 91.22059832 -0.02855436 92.41104615 -0.02918586 C94.75843224 -0.03046479 97.10581832 -0.03176164 99.45320439 -0.03307623 C121.45459403 -0.04447708 143.45591696 -0.03137606 165.45729566 -0.00987476 C184.32752087 0.00799575 203.19764765 0.00489151 222.06787109 -0.0135498 C243.99158028 -0.03496523 265.91523102 -0.04337849 287.8389492 -0.03110075 C290.17760594 -0.02982658 292.51626268 -0.0285691 294.85491943 -0.02732849 C296.58082752 -0.02640284 296.58082752 -0.02640284 298.34160244 -0.02545848 C306.44228783 -0.02200761 314.54293609 -0.02782829 322.64361572 -0.0372467 C332.5182667 -0.0484755 342.39279052 -0.04540803 352.26742697 -0.02412373 C357.30375001 -0.01362526 362.33986118 -0.00947105 367.37618256 -0.02272034 C371.99018845 -0.03467487 376.60378689 -0.02803128 381.21775603 -0.00681013 C382.88315294 -0.00235703 384.54858455 -0.00458117 386.21395898 -0.01431328 C399.81152694 -0.08765401 410.70157321 1.78907019 420.88232422 11.50793457 C429.84486386 20.89641669 432.49459673 31.03422128 432.39025879 43.76623535 C432.39961873 45.5450368 432.39961873 45.5450368 432.40916777 47.35977364 C432.42227636 50.62034745 432.41767563 53.88031611 432.40522289 57.14087391 C432.39612034 60.66924416 432.41016774 64.19753664 432.42114258 67.72589111 C432.43887723 74.62565631 432.43511048 81.52524691 432.42349201 88.42501879 C432.41443798 94.03537453 432.41324219 99.64568152 432.41758728 105.25604248 C432.41820021 106.0562309 432.41881314 106.85641932 432.41944465 107.68085587 C432.42072362 109.30670597 432.42202048 110.93255605 432.42333502 112.55840611 C432.434726 127.78411152 432.42165041 143.0097204 432.40013355 158.23540998 C432.3822639 171.28398211 432.38536843 184.33241188 432.40380859 197.38098145 C432.42524153 212.55427072 432.43362751 227.72747552 432.42135954 242.90077782 C432.42008542 244.52046075 432.41882793 246.1401437 432.41758728 247.75982666 C432.41666163 248.95502558 432.41666163 248.95502558 432.41571727 250.17436993 C432.41227164 255.77436875 432.41807571 261.37431372 432.42750549 266.9743042 C432.43875384 273.80403903 432.43562612 280.63359011 432.41438252 287.46330404 C432.40390999 290.94425405 432.39968468 294.42489828 432.41297913 297.90584564 C432.42394461 301.68741124 432.41015687 305.46812231 432.39025879 309.24963379 C432.40364312 310.88287944 432.40364312 310.88287944 432.41729784 312.54911995 C432.30104996 323.97557724 428.80438954 333.20937506 420.88232422 341.50793457 C409.94702115 351.94711803 398.19639311 353.10020537 383.76464844 353.01586914 C382.03882256 353.02048382 380.31300061 353.02684054 378.58718681 353.03477812 C373.86731053 353.05141666 369.14775937 353.04325005 364.42788219 353.03083324 C359.32895434 353.02176261 354.2300814 353.03576246 349.13116455 353.04675293 C339.15129283 353.06452124 329.17154158 353.06070567 319.19166517 353.04910237 C311.07940655 353.04006169 302.96718165 353.0388468 294.85491943 353.04319763 C293.69948478 353.04381056 292.54405012 353.0444235 291.35360229 353.045055 C289.0062162 353.04633393 286.65883012 353.04763078 284.31144404 353.04894537 C262.31005441 353.06034622 240.30873148 353.0472452 218.30735278 353.0257439 C199.43712757 353.00787339 180.56700078 353.01097763 161.69677734 353.02941895 C139.77306816 353.05083437 117.84941742 353.05924763 95.92569923 353.04696989 C93.5870425 353.04569572 91.24838576 353.04443824 88.909729 353.04319763 C87.18382091 353.04227198 87.18382091 353.04227198 85.42304599 353.04132763 C77.32236061 353.03787675 69.22171235 353.04369743 61.12103271 353.05311584 C51.24638174 353.06434464 41.37185792 353.06127717 31.49722147 353.03999287 C26.46089843 353.0294944 21.42478726 353.02534019 16.38846588 353.03858948 C11.77445999 353.05054401 7.16086155 353.04390042 2.5468924 353.02267927 C0.8814955 353.01822617 -0.78393612 353.02045031 -2.44931054 353.03018242 C-16.0468785 353.10352315 -26.93692478 351.22679895 -37.11767578 341.50793457 C-46.08021543 332.11945245 -48.72994829 321.98164786 -48.62561035 309.24963379 C-48.63185031 308.06376616 -48.63809028 306.87789852 -48.64451933 305.6560955 C-48.65762792 302.39552169 -48.65302719 299.13555303 -48.64057446 295.87499523 C-48.6314719 292.34662498 -48.64551931 288.8183325 -48.65649414 285.28997803 C-48.67422879 278.39021283 -48.67046205 271.49062223 -48.65884358 264.59085035 C-48.64978954 258.98049462 -48.64859375 253.37018762 -48.65293884 247.75982666 C-48.65355177 246.95963824 -48.65416471 246.15944982 -48.65479621 245.33501327 C-48.65607519 243.70916317 -48.65737204 242.08331309 -48.65868658 240.45746303 C-48.67007757 225.23175762 -48.65700197 210.00614874 -48.63548511 194.78045917 C-48.61761547 181.73188703 -48.62071999 168.68345726 -48.63916016 155.6348877 C-48.66059309 140.46159842 -48.66897907 125.28839362 -48.6567111 110.11509132 C-48.65543698 108.49540839 -48.6541795 106.87572544 -48.65293884 105.25604248 C-48.65232174 104.4592432 -48.65170464 103.66244392 -48.65106884 102.84149921 C-48.6476232 97.2415004 -48.65342728 91.64155542 -48.66285706 86.04156494 C-48.6741054 79.21183011 -48.67097769 72.38227903 -48.64973408 65.5525651 C-48.63926156 62.0716151 -48.63503624 58.59097086 -48.64833069 55.1100235 C-48.65929617 51.3284579 -48.64550843 47.54774683 -48.62561035 43.76623535 C-48.63453324 42.67740492 -48.64345613 41.58857449 -48.6526494 40.46674919 C-48.53640152 29.0402919 -45.0397411 19.80649408 -37.11767578 11.50793457 C-26.18237271 1.06875111 -14.43174467 -0.08433623 0 0 Z M-32.11767578 80.50793457 C-32.20017578 119.42730957 -32.28267578 158.34668457 -32.36767578 198.44543457 C-32.4040918 210.73656494 -32.44050781 223.02769531 -32.47802734 235.69128418 C-32.49140467 246.70422902 -32.49140467 246.70422902 -32.49945068 257.71717834 C-32.50317888 262.62435635 -32.51817514 267.53136144 -32.53997803 272.43849182 C-32.56742699 278.69937048 -32.57563807 284.95999793 -32.56996489 291.22093117 C-32.57115108 293.51772343 -32.57907559 295.81452453 -32.5945363 298.11126506 C-32.61447181 301.21722894 -32.60962233 304.32222056 -32.59869385 307.4282074 C-32.61034451 308.32388711 -32.62199516 309.21956682 -32.63399887 310.14238834 C-32.5652819 317.42305823 -30.70811636 323.47262405 -25.93408203 329.06652832 C-25.19029297 329.68656738 -24.44650391 330.30660645 -23.68017578 330.94543457 C-22.93896484 331.58352051 -22.19775391 332.22160645 -21.43408203 332.87902832 C-16.73161755 336.18582038 -12.82565631 336.75842057 -7.12166119 336.76241016 C-6.42605553 336.76561664 -5.73044987 336.76882312 -5.01376525 336.77212676 C-2.67744341 336.78044353 -0.3413768 336.77449667 1.99494934 336.76863098 C3.68473294 336.77165091 5.37451518 336.77553959 7.06429499 336.78022355 C11.71222207 336.79053291 16.36007227 336.78831425 21.00800574 336.78404295 C26.01903282 336.78158103 31.03004114 336.79058329 36.0410614 336.79808044 C45.86029393 336.8108447 55.67949914 336.81261896 65.49873856 336.81028018 C73.47910383 336.80849866 81.45946079 336.81024311 89.43982506 336.81450462 C90.57473593 336.81509981 91.70964681 336.815695 92.87894892 336.81630823 C95.18438541 336.81751995 97.48982189 336.81873409 99.79525837 336.8199506 C121.42739442 336.83083296 143.0595149 336.82866046 164.69165184 336.82256576 C184.4864531 336.81739695 204.28120515 336.82864986 224.07599667 336.84766398 C244.39382122 336.86703109 264.71162248 336.87530029 285.02945632 336.87154073 C296.43931458 336.86962684 307.84913096 336.87213436 319.2589817 336.88625526 C328.97317458 336.89815573 338.6872998 336.899589 348.40149359 336.8874651 C353.35839065 336.88156682 358.31516387 336.88050317 363.27205276 336.8924675 C367.81020516 336.90329386 372.34812984 336.90026167 376.88627144 336.88620581 C378.52757232 336.8835499 380.16889086 336.8859534 381.81017444 336.89394168 C395.96428551 337.03940519 395.96428551 337.03940519 408.13232422 330.38293457 C408.75623047 329.86473145 409.38013672 329.34652832 410.02294922 328.81262207 C415.26616394 322.31367945 416.46930877 315.57470293 416.36334229 307.4282074 C416.36676636 306.45505081 416.37019043 305.48189423 416.37371826 304.47924805 C416.3803049 301.22931004 416.35830252 297.98020852 416.33642578 294.73034668 C416.33519971 292.356334 416.33573566 289.98231986 416.33788681 287.60830784 C416.33878821 281.26258389 416.31563946 274.9171629 416.28744507 268.57151031 C416.26463068 262.61252407 416.26359072 256.65361075 416.26074219 250.69458008 C416.23976999 233.27815826 416.1839252 215.86179257 416.13232422 198.44543457 C416.04982422 159.52605957 415.96732422 120.60668457 415.88232422 80.50793457 C268.04232422 80.50793457 120.20232422 80.50793457 -32.11767578 80.50793457 Z " fill="#00074E" transform="translate(64.11767578125,79.4920654296875)"/>
<path d="M0 0 C2.66470318 1.90800233 3.7327528 4.17323181 5.3605957 7.00488281 C7.78847585 10.44695497 9.0117761 12.14459882 13.10620117 13.30273438 C16.76348419 13.46660869 20.26984202 13.3312955 23.91918945 13.04394531 C26.36561932 12.92800077 28.81223654 12.81593537 31.2590332 12.70800781 C32.41564453 12.63565918 33.57225586 12.56331055 34.76391602 12.48876953 C37.69562347 12.42515281 40.16119165 12.72170051 43.0246582 13.27832031 C46.76522525 13.81199189 46.76522525 13.81199189 48.55859375 12.30126953 C50.01312352 10.62685407 51.1857266 8.92682246 52.35668945 7.04394531 C56.71969394 0.50627715 56.71969394 0.50627715 59.98168945 -0.58105469 C62.6183761 0.31513061 65.11548292 1.26676848 67.66918945 2.35644531 C68.37108398 2.64712891 69.07297852 2.9378125 69.79614258 3.23730469 C71.5281972 3.95604844 73.25542726 4.68639863 74.98168945 5.41894531 C74.90950195 6.02480469 74.83731445 6.63066406 74.76293945 7.25488281 C74.56733332 9.02077152 74.39591952 10.78943897 74.2434082 12.55957031 C74.07597271 14.38886556 73.85425778 16.21450005 73.5637207 18.02832031 C73.26850987 20.7836214 73.22914347 22.74322625 73.98168945 25.41894531 C76.20227463 27.83978366 78.55764377 29.59733894 81.2434082 31.48535156 C86.59666546 35.26546903 91.07706367 39.70854705 94.29418945 45.41894531 C95.37545658 47.19097318 95.37545658 47.19097318 96.98168945 48.41894531 C100.71990708 49.13898723 104.21645691 48.82876654 107.98168945 48.41894531 C108.87758789 48.33644531 109.77348633 48.25394531 110.6965332 48.16894531 C112.79574645 47.95670258 114.88968817 47.69330614 116.98168945 47.41894531 C118.04269962 49.82869721 119.08042174 52.24444385 120.10668945 54.66894531 C120.40961914 55.35085937 120.71254883 56.03277344 121.0246582 56.73535156 C123.11634452 61.74566996 123.11634452 61.74566996 122.54418945 64.60644531 C120.29251032 67.21839311 117.64812115 69.18061694 114.85668945 71.16894531 C114.29336914 71.58015625 113.73004883 71.99136719 113.1496582 72.41503906 C111.76567312 73.42370616 110.37438405 74.42233817 108.98168945 75.41894531 C109.14411133 76.37027344 109.3065332 77.32160156 109.47387695 78.30175781 C110.13753122 82.96609822 110.1279725 87.59039247 110.10668945 92.29394531 C110.11055664 93.14085937 110.11442383 93.98777344 110.1184082 94.86035156 C110.11187327 99.12766505 109.88032712 103.02220733 109.07543945 107.21582031 C108.68489666 110.32827805 108.68489666 110.32827805 110.10229492 113.01123047 C111.7777717 114.45315905 113.48000877 115.62683605 115.35668945 116.79394531 C121.89435761 121.1569498 121.89435761 121.1569498 122.98168945 124.41894531 C122.08550416 127.05563196 121.13386628 129.55273878 120.04418945 132.10644531 C119.75350586 132.80833984 119.46282227 133.51023437 119.16333008 134.23339844 C118.44458632 135.96545306 117.71423614 137.69268312 116.98168945 139.41894531 C115.72356445 139.25394531 114.46543945 139.08894531 113.16918945 138.91894531 C112.3493457 138.8403125 111.52950195 138.76167969 110.68481445 138.68066406 C108.85642243 138.50363767 107.03238094 138.27547637 105.21606445 138.00097656 C102.20205224 137.71052008 99.92396026 137.67246414 96.98168945 138.41894531 C94.49608059 140.6259183 92.77190126 142.951104 90.88012695 145.68066406 C89.06273828 148.30204156 87.1687412 150.47758408 84.91918945 152.73144531 C84.03553711 153.62283203 84.03553711 153.62283203 83.1340332 154.53222656 C80.98168945 156.41894531 80.98168945 156.41894531 79.17529297 157.39770508 C77.08644949 158.58761906 75.5644155 159.60105585 73.98168945 161.41894531 C73.25849381 164.9278951 73.63176947 168.1946315 74.04418945 171.73144531 C74.1234668 172.66279297 74.20274414 173.59414063 74.28442383 174.55371094 C74.48436911 176.84720088 74.71756677 179.13210692 74.98168945 181.41894531 C72.57193756 182.47995548 70.15619092 183.5176776 67.73168945 184.54394531 C67.04977539 184.846875 66.36786133 185.14980469 65.6652832 185.46191406 C60.57159507 187.58840522 60.57159507 187.58840522 57.95898438 186.83789062 C55.30111948 184.93055505 54.27598023 182.67177094 52.6730957 179.83300781 C50.1488851 176.25270817 48.9176017 174.66628086 44.63745117 173.53515625 C40.69660598 173.37212922 36.84581365 173.50343474 32.91918945 173.79394531 C31.56982056 173.85783804 30.22019192 173.91647172 28.87036133 173.96972656 C26.38006008 174.07137151 23.89054972 174.19784179 21.40332031 174.35791016 C17.98168945 174.41894531 17.98168945 174.41894531 14.23950195 173.75170898 C11.08273366 173.08528184 11.08273366 173.08528184 9.17724609 174.59057617 C8.5409729 175.47821655 8.5409729 175.47821655 7.8918457 176.38378906 C7.41811523 177.01865234 6.94438477 177.65351563 6.45629883 178.30761719 C5.99030273 178.98373047 5.52430664 179.65984375 5.04418945 180.35644531 C4.55112305 181.02869141 4.05805664 181.7009375 3.55004883 182.39355469 C2.3381706 184.05253362 1.15685551 185.73376144 -0.01831055 187.41894531 C-1.54073905 186.98702898 -3.06116974 186.54806969 -4.58081055 186.10644531 C-5.42772461 185.8628125 -6.27463867 185.61917969 -7.1472168 185.36816406 C-10.54388392 184.24518432 -13.74567936 182.86311013 -17.01831055 181.41894531 C-16.93564941 180.85498047 -16.85298828 180.29101562 -16.76782227 179.70996094 C-14.86922963 168.73091279 -14.86922963 168.73091279 -17.8972168 158.59082031 C-20.508074 156.62968788 -23.18393446 155.03573731 -26.01831055 153.41894531 C-28.29174805 151.43066406 -28.29174805 151.43066406 -30.33081055 149.35644531 C-30.92506836 148.76734375 -31.51932617 148.17824219 -32.1315918 147.57128906 C-34.01831055 145.41894531 -34.01831055 145.41894531 -34.99707031 143.61254883 C-36.18698429 141.52370535 -37.20042108 140.00167135 -39.01831055 138.41894531 C-42.52726033 137.69574967 -45.79399674 138.06902533 -49.33081055 138.48144531 C-50.2621582 138.56072266 -51.19350586 138.64 -52.15307617 138.72167969 C-54.44656611 138.92162496 -56.73147215 139.15482263 -59.01831055 139.41894531 C-60.07932071 137.00919342 -61.11704283 134.59344678 -62.14331055 132.16894531 C-62.59770508 131.14607422 -62.59770508 131.14607422 -63.0612793 130.10253906 C-65.18762285 125.0092045 -65.18762285 125.0092045 -64.43383789 122.38134766 C-62.53943278 119.75505785 -60.33330293 118.86914508 -57.48706055 117.34863281 C-53.78347936 114.72970646 -51.78976001 112.80065446 -50.90893555 108.37304688 C-50.41695123 104.28968592 -50.38215557 100.23741308 -50.47436523 96.12939453 C-50.51822853 93.5487704 -50.43426139 90.9938234 -50.33862305 88.41503906 C-50.11957978 80.05942133 -50.11957978 80.05942133 -53.37182617 72.61462402 C-56.84491968 69.20049689 -60.75483905 66.73342258 -65.01831055 64.41894531 C-63.33219222 58.55767685 -61.48144403 53.00066796 -59.01831055 47.41894531 C-58.4543457 47.50160645 -57.89038086 47.58426758 -57.30932617 47.66943359 C-46.33027802 49.56802623 -46.33027802 49.56802623 -36.19018555 46.54003906 C-34.22905311 43.92918186 -32.63510254 41.2533214 -31.01831055 38.41894531 C-29.0300293 36.14550781 -29.0300293 36.14550781 -26.95581055 34.10644531 C-26.30483398 33.45804688 -25.65385742 32.80964844 -24.9831543 32.14160156 C-23.08142775 30.47428266 -21.20105345 29.30440248 -19.01831055 28.04394531 C-15.87906634 25.8241552 -15.87906634 25.8241552 -15.54956055 23.24316406 C-15.51651168 20.58686177 -15.71456045 18.05777428 -16.01831055 15.41894531 C-16.10081055 14.47148437 -16.18331055 13.52402344 -16.26831055 12.54785156 C-16.48452018 10.16616734 -16.73538727 7.79347992 -17.01831055 5.41894531 C-14.60855865 4.35793515 -12.19281201 3.32021303 -9.76831055 2.29394531 C-8.74543945 1.83955078 -8.74543945 1.83955078 -7.7019043 1.37597656 C-2.60769308 -0.75073298 -2.60769308 -0.75073298 0 0 Z " fill="#FDD447" transform="translate(147.018310546875,194.5810546875)"/>
<path d="M0 0 C0.69699444 -0.00350607 1.39398888 -0.00701215 2.11210436 -0.01062447 C4.45315596 -0.01994583 6.79395921 -0.0150133 9.13502121 -0.01015663 C10.82821727 -0.01389253 12.5214116 -0.01849381 14.21460319 -0.02388728 C18.87199748 -0.0361403 23.52932007 -0.0358541 28.18672681 -0.03349853 C33.20800084 -0.03309094 38.2292517 -0.04412399 43.25051498 -0.05361366 C53.09013286 -0.07023751 62.92972679 -0.07572384 72.76935753 -0.07683842 C80.76687705 -0.07778828 88.76438865 -0.0818955 96.76190567 -0.08823967 C119.43050215 -0.10585624 142.09907968 -0.11507795 164.76768306 -0.11357872 C165.99014671 -0.11349881 167.21261037 -0.1134189 168.47211838 -0.11333656 C169.69607275 -0.1132548 170.92002712 -0.11317304 172.18107101 -0.1130888 C192.01724211 -0.11227589 211.85333728 -0.1314137 231.68948641 -0.1596133 C252.05138703 -0.18833215 272.41325061 -0.20215412 292.775172 -0.20042574 C304.20911155 -0.19976147 315.64297152 -0.20526995 327.07689285 -0.22678185 C336.81229695 -0.24498053 346.54758539 -0.24935179 356.28299913 -0.235763 C361.25018342 -0.22922661 366.21714574 -0.22914041 371.18430901 -0.2464695 C375.73305606 -0.2621756 380.28140468 -0.25936174 384.83014187 -0.24190123 C386.4741542 -0.2388259 388.11819608 -0.24248381 389.76217356 -0.25362138 C399.54565884 -0.3155031 407.82386758 -0.15268104 415.5497551 6.44086266 C416.16979416 7.18465172 416.78983322 7.92844078 417.42866135 8.69476891 C418.06674728 9.43597984 418.70483322 10.17719078 419.3622551 10.94086266 C427.26411106 22.17779452 422.99116135 33.47633556 422.99116135 48.25726891 C275.15116135 48.25726891 127.31116135 48.25726891 -25.00883865 48.25726891 C-25.00883865 14.765319 -25.00883865 14.765319 -18.8252449 7.79633141 C-17.70956131 6.84887047 -17.70956131 6.84887047 -16.57133865 5.88226891 C-15.83012772 5.23515953 -15.08891678 4.58805016 -14.3252449 3.92133141 C-9.64135013 0.55650986 -5.71529957 0.00648443 0 0 Z " fill="#00A4AA" transform="translate(57.00883865356445,95.74273109436035)"/>
<path d="M0 0 C3.36351222 3.36351222 6.36157445 6.51412564 9.3125 10.1875 C10.00988281 11.04730469 10.70726562 11.90710938 11.42578125 12.79296875 C13 15 13 15 13 17 C20.92 17 28.84 17 37 17 C37.66 15.68 38.32 14.36 39 13 C40.51527941 10.88845541 42.046184 8.8123284 43.625 6.75 C44.25535156 5.91855469 44.25535156 5.91855469 44.8984375 5.0703125 C45.92938719 3.71133337 46.96429911 2.35536165 48 1 C53.47321803 1.55074451 57.88264617 2.95616631 62.90234375 5.16015625 C63.98619102 5.62415077 63.98619102 5.62415077 65.0919342 6.09751892 C67.37726457 7.07799393 69.65736343 8.07001532 71.9375 9.0625 C73.49511044 9.73319406 75.05305025 10.40312374 76.61132812 11.07226562 C80.41141777 12.70602982 84.20686311 14.35016158 88 16 C87.91733887 16.64960693 87.83467773 17.29921387 87.74951172 17.96850586 C85.7775845 30.60750499 85.7775845 30.60750499 89.0546875 42.390625 C91.59697279 44.5570942 94.16309042 46.25115978 97 48 C97.51304687 48.721875 98.02609375 49.44375 98.5546875 50.1875 C99.8367724 52.18988743 99.8367724 52.18988743 102.0234375 52.42578125 C109.03610288 52.08796182 115.99017655 51.53921719 123 51 C128.28 63.54 133.56 76.08 139 89 C135.63648778 92.36351222 132.48587436 95.36157445 128.8125 98.3125 C127.95269531 99.00988281 127.09289062 99.70726562 126.20703125 100.42578125 C124 102 124 102 122 102 C122 109.92 122 117.84 122 126 C123.32 126.66 124.64 127.32 126 128 C128.11154459 129.51527941 130.1876716 131.046184 132.25 132.625 C133.08144531 133.25535156 133.08144531 133.25535156 133.9296875 133.8984375 C135.28866663 134.92938719 136.64463835 135.96429911 138 137 C137.38282894 142.09776321 135.81839991 146.33950998 133.83984375 151.0234375 C133.37584923 152.14270126 133.37584923 152.14270126 132.90248108 153.28457642 C131.92006655 155.65056311 130.92893819 158.01278239 129.9375 160.375 C129.26699789 161.98543563 128.59706986 163.5961104 127.92773438 165.20703125 C126.29178722 169.14081959 124.64801898 173.07125461 123 177 C120.94257613 176.84945218 118.88531556 176.69667183 116.828125 176.54296875 C115.6824707 176.45813232 114.53681641 176.3732959 113.35644531 176.28588867 C110.46998307 176.04003129 107.62086384 175.6912821 104.75 175.3125 C101.26733728 175.3125 100.21434392 175.81608345 97.5234375 178.125 C95.9620252 179.87459554 94.45248927 181.67237073 93.0078125 183.51953125 C91 186 91 186 88.76171875 187.51953125 C86.77063322 188.87415429 86.77063322 188.87415429 86.57421875 191.3046875 C86.63029297 192.57699219 86.63029297 192.57699219 86.6875 193.875 C86.72230469 194.76703125 86.75710937 195.6590625 86.79296875 196.578125 C87.00954058 199.11160684 87.47654851 201.51360543 88 204 C88.06573695 206.66826282 88.02165964 209.33044963 88 212 C82.97166292 214.17142253 77.93634294 216.32539921 72.89379883 218.46362305 C71.17985956 219.19325897 69.46791581 219.92760124 67.75805664 220.66674805 C65.29824615 221.72911755 62.8317279 222.77428901 60.36328125 223.81640625 C59.60163162 224.14967422 58.83998199 224.4829422 58.05525208 224.8263092 C51.17933704 227.69349671 51.17933704 227.69349671 47 226 C45.20070242 224.05559777 43.74608105 222.27593134 42.25 220.125 C41.85167969 219.58230469 41.45335937 219.03960937 41.04296875 218.48046875 C39.25690037 216.00419089 37.97112524 213.91337573 37 211 C23.27604541 209.49257456 23.27604541 209.49257456 10.68554688 213.61767578 C6.56631013 217.86370585 3.69203972 222.76351046 1 228 C-25.9576474 217.29949685 -25.9576474 217.29949685 -38 212 C-38.1254902 204.59607843 -38.1254902 204.59607843 -37.5 201.625 C-36.25709389 195.31930372 -36.25709389 195.31930372 -37 189 C-39.2962021 186.29014385 -41.7245028 184.1938232 -44.51953125 182.0078125 C-47 180 -47 180 -48.32226562 177.88525391 C-49.8585235 175.75289724 -49.8585235 175.75289724 -52.4519043 175.63769531 C-53.39976807 175.70053711 -54.34763184 175.76337891 -55.32421875 175.828125 C-56.25065186 175.8787207 -57.17708496 175.92931641 -58.1315918 175.98144531 C-59.3050415 176.07006836 -60.47849121 176.15869141 -61.6875 176.25 C-65.420625 176.4975 -69.15375 176.745 -73 177 C-78.28 164.46 -83.56 151.92 -89 139 C-84 134 -84 134 -81.10546875 132.60546875 C-77.38111577 130.7956426 -75.4860579 129.35493098 -73 126 C-70.70134534 118.34918749 -70.456134 109.60370183 -73 102 C-77.01690974 96.34360945 -82.92607648 93.09119322 -89 90 C-78.29949685 63.0423526 -78.29949685 63.0423526 -73 51 C-72.33991943 51.0721875 -71.67983887 51.144375 -70.99975586 51.21875 C-67.98161002 51.52355442 -64.96163005 51.76216763 -61.9375 52 C-60.89916016 52.11472656 -59.86082031 52.22945312 -58.79101562 52.34765625 C-52.97066125 52.84311565 -52.97066125 52.84311565 -47.90283203 50.390625 C-46.09441138 48.33521196 -46.09441138 48.33521196 -44.5378418 46.06713867 C-42.9951556 43.99348825 -41.72731012 43.0681439 -39.5546875 41.73828125 C-36.55602892 38.52412274 -36.62308473 37.72385932 -36.6328125 33.48046875 C-36.75952126 31.38022516 -36.93125336 29.28262302 -37.125 27.1875 C-37.41375 23.495625 -37.7025 19.80375 -38 16 C-25.46 10.72 -12.92 5.44 0 0 Z M-13.625 23 C-14.68460938 23.42925781 -14.68460938 23.42925781 -15.765625 23.8671875 C-17.51166919 24.57504325 -19.2559995 25.28712388 -21 26 C-20.89171875 26.90878906 -20.89171875 26.90878906 -20.78125 27.8359375 C-20.58564387 29.60182621 -20.41423007 31.37049365 -20.26171875 33.140625 C-20.09428326 34.96992025 -19.87256833 36.79555474 -19.58203125 38.609375 C-19.28682042 41.36467609 -19.24745401 43.32428093 -20 46 C-22.22058517 48.42083834 -24.57595432 50.17839363 -27.26171875 52.06640625 C-29.86484544 53.90456276 -32.05832086 55.81694105 -34.3125 58.0625 C-34.90675781 58.65160156 -35.50101563 59.24070313 -36.11328125 59.84765625 C-37.99845897 61.83806864 -37.99845897 61.83806864 -38.97875977 63.80639648 C-40.16867375 65.89523997 -41.18211054 67.41727396 -43 69 C-46.50894979 69.72319564 -49.77568619 69.34991998 -53.3125 68.9375 C-54.24384766 68.85822266 -55.17519531 68.77894531 -56.13476562 68.69726562 C-58.42825557 68.49732035 -60.71316161 68.26412268 -63 68 C-64.06101016 70.4097519 -65.09873228 72.82549854 -66.125 75.25 C-66.57939453 76.27287109 -66.57939453 76.27287109 -67.04296875 77.31640625 C-68.71925756 81.07517281 -68.71925756 81.07517281 -68.41552734 85.03759766 C-66.52112223 87.66388746 -64.31499239 88.54980024 -61.46875 90.0703125 C-57.76516882 92.68923885 -55.77144946 94.61829085 -54.890625 99.04589844 C-54.39864069 103.12925939 -54.36384503 107.18153223 -54.45605469 111.28955078 C-54.49991799 113.87017491 -54.41595084 116.42512191 -54.3203125 119.00390625 C-54.20554698 130.60788149 -54.20554698 130.60788149 -57.35351562 134.80432129 C-60.82660913 138.21844843 -64.7365285 140.68552273 -69 143 C-68.79866455 143.61359375 -68.5973291 144.2271875 -68.38989258 144.859375 C-67.90966797 146.32291667 -67.42944336 147.78645833 -66.94921875 149.25 C-65.70281248 152.86098771 -64.35126139 156.42691665 -63 160 C-62.43603516 159.91733887 -61.87207031 159.83467773 -61.29101562 159.74951172 C-45.13346632 157.58260042 -45.13346632 157.58260042 -40.171875 160.87890625 C-38.21074256 163.48976346 -36.616792 166.16562391 -35 169 C-33.05154901 171.28546143 -33.05154901 171.28546143 -30.9375 173.3125 C-30.34839844 173.90675781 -29.75929687 174.50101563 -29.15234375 175.11328125 C-27.16193136 176.99845897 -27.16193136 176.99845897 -25.19360352 177.97875977 C-23.10476003 179.16867375 -21.58272604 180.18211054 -20 182 C-19.27680436 185.50894979 -19.65008002 188.77568619 -20.0625 192.3125 C-20.14177734 193.24384766 -20.22105469 194.17519531 -20.30273438 195.13476562 C-20.50267965 197.42825557 -20.73587732 199.71316161 -21 202 C-18.5902481 203.06101016 -16.17450146 204.09873228 -13.75 205.125 C-13.06808594 205.42792969 -12.38617188 205.73085938 -11.68359375 206.04296875 C-7.86536233 207.67586927 -7.86536233 207.67586927 -3.8125 207.5625 C-1.2005522 205.31082086 0.76167162 202.66643169 2.75 199.875 C3.36681641 199.03001953 3.36681641 199.03001953 3.99609375 198.16796875 C5.00476085 196.78398366 6.00339286 195.39269459 7 194 C8.01280029 194.17241211 9.02560059 194.34482422 10.0690918 194.52246094 C13.83488261 194.97994102 17.12176287 194.92762347 20.89453125 194.640625 C43.16659444 193.41993115 43.16659444 193.41993115 48.19140625 197.890625 C50.79268088 200.98004112 52.51037591 204.26052986 54 208 C55.33401777 207.56459142 56.66716774 207.12652414 58 206.6875 C58.7425 206.44386719 59.485 206.20023438 60.25 205.94921875 C63.86098771 204.70281248 67.42691665 203.35126139 71 202 C70.91733887 201.43603516 70.83467773 200.87207031 70.74951172 200.29101562 C68.58260042 184.13346632 68.58260042 184.13346632 71.87890625 179.171875 C74.48976346 177.21074256 77.16562391 175.616792 80 174 C82.28546143 172.05154901 82.28546143 172.05154901 84.3125 169.9375 C84.9621875 169.28652344 85.611875 168.63554687 86.28125 167.96484375 C87.94666774 166.06096847 89.07578123 164.19517582 90.3125 162 C91.47265625 160.28125 91.47265625 160.28125 93 159 C96.73821763 158.27995808 100.23476745 158.59017877 104 159 C104.89589844 159.0825 105.79179687 159.165 106.71484375 159.25 C108.814057 159.46224273 110.90799872 159.72563918 113 160 C114.06101016 157.5902481 115.09873228 155.17450146 116.125 152.75 C116.42792969 152.06808594 116.73085938 151.38617188 117.04296875 150.68359375 C118.67552196 146.84847086 118.67552196 146.84847086 118.56640625 142.77734375 C115.51321992 139.31300515 111.33940218 137.14311731 107.45703125 134.70703125 C105 132 105 132 104.85644531 130.04882812 C105.04490624 128.51547219 105.28438413 126.9878465 105.56420898 125.46850586 C106.30139203 121.2927872 106.14431001 117.1038911 106.125 112.875 C106.12886719 112.02035156 106.13273438 111.16570312 106.13671875 110.28515625 C106.12924052 105.41682856 105.81946468 100.79972168 105 96 C105.92683594 95.31292969 106.85367188 94.62585938 107.80859375 93.91796875 C109.01851043 93.00818644 110.22813052 92.09800959 111.4375 91.1875 C112.04916016 90.73568359 112.66082031 90.28386719 113.29101562 89.81835938 C117.00309083 87.0713735 117.00309083 87.0713735 119 83 C118.1038147 80.36331336 117.15217683 77.86620653 116.0625 75.3125 C115.77181641 74.61060547 115.48113281 73.90871094 115.18164062 73.18554688 C114.46289687 71.45349225 113.73254669 69.72626219 113 68 C111.1128125 68.2475 111.1128125 68.2475 109.1875 68.5 C108.36765625 68.57863281 107.5478125 68.65726563 106.703125 68.73828125 C104.87473298 68.91530765 103.05069149 69.14346894 101.234375 69.41796875 C98.22036278 69.70842523 95.94227081 69.74648117 93 69 C90.51439114 66.79302701 88.7902118 64.46784132 86.8984375 61.73828125 C83.16781683 56.35728313 78.66641943 51.8971577 73 48.625 C70 46 70 46 69.53125 43.82421875 C69.49820114 41.16791645 69.6962499 38.63882897 70 36 C70.0825 35.05253906 70.165 34.10507813 70.25 33.12890625 C70.46620963 30.74722203 70.71707673 28.37453461 71 26 C68.5902481 24.93898984 66.17450146 23.90126772 63.75 22.875 C62.72712891 22.42060547 62.72712891 22.42060547 61.68359375 21.95703125 C57.84847086 20.32447804 57.84847086 20.32447804 53.77734375 20.43359375 C50.31300515 23.48678008 48.14311731 27.66059782 45.70703125 31.54296875 C43 34 43 34 39.0703125 33.81640625 C38.28986572 33.67050049 37.50941895 33.52459473 36.70532227 33.37426758 C33.49808168 32.93056215 30.57562547 33.12167309 27.34765625 33.359375 C8.58797893 34.47173993 8.58797893 34.47173993 3.76416016 31.72851562 C0.14714946 28.37167055 -1.84714581 24.37787109 -4 20 C-7.42647754 20 -10.48993798 21.71589711 -13.625 23 Z " fill="#01094E" transform="translate(151,174)"/>
<path d="M0 0 C15.84 0 31.68 0 48 0 C48 21.45 48 42.9 48 65 C47.34 65 46.68 65 46 65 C45.63261719 66.17433594 45.26523438 67.34867187 44.88671875 68.55859375 C42.56098641 75.53579078 39.64991178 82.28243936 36.8125 89.0625 C36.24775709 90.41849914 35.68330172 91.77461807 35.11914062 93.13085938 C33.74940424 96.42195985 32.37579019 99.71142484 31 103 C34.55134721 106.72380062 34.55134721 106.72380062 38.89453125 109.39453125 C42.61888423 111.2043574 44.5139421 112.64506902 47 116 C49.29865466 123.65081251 49.543866 132.39629817 47 140 C42.98309026 145.65639055 37.07392352 148.90880678 31 152 C32.5609989 155.91726654 34.12408373 159.83369769 35.6875 163.75 C36.12255859 164.84183594 36.55761719 165.93367187 37.00585938 167.05859375 C39.62696196 173.621058 42.30936378 180.15013596 45.09301758 186.64550781 C46 189 46 189 46 191 C46.66 191 47.32 191 48 191 C48.00142502 191.56217224 48.00285004 192.12434448 48.00431824 192.70355225 C48.0241642 198.60997928 48.07875205 204.5153934 48.15258789 210.42138672 C48.17563651 212.61890367 48.19013242 214.81652903 48.19555664 217.01416016 C48.24143433 232.54905161 49.11768229 242.9222348 58 256 C52.44992205 256.09938156 46.90036982 256.1717096 41.34960938 256.21972656 C39.46410084 256.23975767 37.57865377 256.26699073 35.69335938 256.30175781 C32.97250138 256.35065272 30.25246944 256.37305382 27.53125 256.390625 C26.28075867 256.42159271 26.28075867 256.42159271 25.00500488 256.45318604 C17.98103766 256.45583792 12.84049499 254.47979722 7.5390625 249.8515625 C6.90742187 249.11679687 6.27578125 248.38203125 5.625 247.625 C4.97789063 246.89539063 4.33078125 246.16578125 3.6640625 245.4140625 C-0.28870636 239.67976402 -0.28366986 233.98353592 -0.24050903 227.28103638 C-0.24221788 226.30810792 -0.24392673 225.33517946 -0.24568737 224.33276832 C-0.24897885 221.0760998 -0.23798406 217.81963779 -0.22705078 214.56298828 C-0.22648659 212.22715764 -0.22680337 209.89132665 -0.22793579 207.55549622 C-0.22851001 201.21511359 -0.2167444 194.87480652 -0.20278788 188.53444147 C-0.19155811 182.57939339 -0.18954162 176.62434824 -0.18748413 170.669291 C-0.18310972 158.87619277 -0.16980752 147.08312225 -0.15087891 135.29003906 C-0.13251352 123.83593891 -0.11836024 112.38184629 -0.10986328 100.92773438 C-0.10907511 99.86822196 -0.10907511 99.86822196 -0.10827102 98.78730525 C-0.10566089 95.24370422 -0.10313349 91.70010313 -0.10064721 88.15650201 C-0.07992263 58.77098048 -0.04305713 29.38549856 0 0 Z " fill="#00A4AA" transform="translate(32,160)"/>
<path d="M0 0 C10.23896936 7.08620753 17.87254845 17.20711098 21.1015625 29.34375 C23.47363301 43.76066743 21.00472254 57.76661593 12.6640625 69.84375 C5.31218278 79.07760261 -5.37041489 86.3606996 -17.16015625 88.6328125 C-32.52600315 90.12249963 -45.76350924 87.45404069 -58.00390625 77.72265625 C-68.18551923 68.34201736 -74.1006152 55.94750209 -74.66577148 42.14648438 C-74.96481642 28.14148248 -69.75444285 16.41865689 -60.2734375 6.15625 C-43.61400824 -9.74208858 -19.59400004 -11.51923922 0 0 Z " fill="#02094E" transform="translate(202.3359375,247.15625)"/>
<path d="M0 0 C0.76783813 0.01639526 1.53567627 0.03279053 2.32678223 0.04968262 C3.53026306 0.04962219 3.53026306 0.04962219 4.75805664 0.04956055 C6.44917665 0.05490621 8.14029683 0.07244839 9.83117676 0.10144043 C12.41251947 0.14330267 14.9912509 0.14250576 17.57287598 0.13562012 C19.22002943 0.14611358 20.8671695 0.15905254 22.51428223 0.17468262 C23.66603943 0.17498474 23.66603943 0.17498474 24.84106445 0.17529297 C29.35277967 0.2744157 32.33766211 0.83690828 35.92053223 3.64343262 C39.0545747 9.91151756 36.92053223 17.6355006 36.92053223 24.64343262 C52.76053223 24.64343262 68.60053223 24.64343262 84.92053223 24.64343262 C84.92053223 29.92343262 84.92053223 35.20343262 84.92053223 40.64343262 C69.08053223 40.64343262 53.24053223 40.64343262 36.92053223 40.64343262 C36.92053223 46.58343262 36.92053223 52.52343262 36.92053223 58.64343262 C33.92053223 63.64343262 33.92053223 63.64343262 30.92053223 64.64343262 C28.16342266 64.76436651 25.43235861 64.83155588 22.67443848 64.84655762 C21.86691635 64.85225769 21.05939423 64.85795776 20.22740173 64.86383057 C18.52022611 64.87327096 16.81303233 64.87981073 15.10583496 64.88366699 C12.49621847 64.89338352 9.88738616 64.92441952 7.2779541 64.95593262 C5.61845356 64.96246194 3.9589474 64.96771269 2.29943848 64.97155762 C1.13052818 64.99007782 1.13052818 64.99007782 -0.06199646 65.00897217 C-3.30223942 64.99566549 -5.66330572 64.86883137 -8.54064941 63.3104248 C-13.99180602 57.40522136 -11.07946777 47.71557122 -11.07946777 40.64343262 C-26.91946777 40.64343262 -42.75946777 40.64343262 -59.07946777 40.64343262 C-59.07946777 35.36343262 -59.07946777 30.08343262 -59.07946777 24.64343262 C-43.23946777 24.64343262 -27.39946777 24.64343262 -11.07946777 24.64343262 C-11.07946777 18.37343262 -11.07946777 12.10343262 -11.07946777 5.64343262 C-5.50678815 0.07075299 -5.50678815 0.07075299 0 0 Z " fill="#00074E" transform="translate(363.0794677734375,335.3565673828125)"/>
<path d="M0 0 C0.80232056 -0.00004028 1.60464111 -0.00008057 2.43127441 -0.00012207 C4.12239443 0.00522359 5.8135146 0.02276578 7.50439453 0.05175781 C10.08573724 0.09362006 12.66446867 0.09282315 15.24609375 0.0859375 C16.89324721 0.09643096 18.54038728 0.10936992 20.1875 0.125 C21.3392572 0.12530212 21.3392572 0.12530212 22.51428223 0.12561035 C27.02599744 0.22473308 30.01087988 0.78722566 33.59375 3.59375 C36.72779247 9.86183495 34.59375 17.58581799 34.59375 24.59375 C60.99375 24.59375 87.39375 24.59375 114.59375 24.59375 C114.59375 29.87375 114.59375 35.15375 114.59375 40.59375 C88.19375 40.59375 61.79375 40.59375 34.59375 40.59375 C34.59375 46.53375 34.59375 52.47375 34.59375 58.59375 C31.59375 63.59375 31.59375 63.59375 28.59375 64.59375 C25.83664043 64.71468389 23.10557638 64.78187326 20.34765625 64.796875 C19.54013412 64.80257507 18.732612 64.80827515 17.90061951 64.81414795 C16.19344388 64.82358834 14.48625011 64.83012812 12.77905273 64.83398438 C10.16943625 64.8437009 7.56060393 64.8747369 4.95117188 64.90625 C3.29167134 64.91277933 1.63216518 64.91803007 -0.02734375 64.921875 C-0.80661728 64.9342218 -1.58589081 64.9465686 -2.38877869 64.95928955 C-5.62902164 64.94598287 -7.99008795 64.81914875 -10.86743164 63.26074219 C-13.39754905 60.51988202 -13.52915112 57.92280832 -13.50390625 54.36328125 C-13.50068359 53.56083984 -13.49746094 52.75839844 -13.49414062 51.93164062 C-13.48576172 51.09826172 -13.47738281 50.26488281 -13.46875 49.40625 C-13.46423828 48.56126953 -13.45972656 47.71628906 -13.45507812 46.84570312 C-13.44330403 44.76168845 -13.4253689 42.67771023 -13.40625 40.59375 C-18.68625 40.59375 -23.96625 40.59375 -29.40625 40.59375 C-29.40625 35.31375 -29.40625 30.03375 -29.40625 24.59375 C-24.12625 24.59375 -18.84625 24.59375 -13.40625 24.59375 C-13.46425781 23.28019531 -13.52226562 21.96664063 -13.58203125 20.61328125 C-13.62894048 18.87763977 -13.67443939 17.14195977 -13.71875 15.40625 C-13.7815918 14.10977539 -13.7815918 14.10977539 -13.84570312 12.78710938 C-13.86181641 11.94599609 -13.87792969 11.10488281 -13.89453125 10.23828125 C-13.92071533 9.46846924 -13.94689941 8.69865723 -13.97387695 7.90551758 C-12.19711097 0.66930378 -6.48244738 -0.13841646 0 0 Z " fill="#00074E" transform="translate(333.40625,255.40625)"/>
<path d="M0 0 C0.76783813 0.01639526 1.53567627 0.03279053 2.32678223 0.04968262 C3.53026306 0.04962219 3.53026306 0.04962219 4.75805664 0.04956055 C6.44917665 0.05490621 8.14029683 0.07244839 9.83117676 0.10144043 C12.41251947 0.14330267 14.9912509 0.14250576 17.57287598 0.13562012 C19.22002943 0.14611358 20.8671695 0.15905254 22.51428223 0.17468262 C23.66603943 0.17498474 23.66603943 0.17498474 24.84106445 0.17529297 C29.35277967 0.2744157 32.33766211 0.83690828 35.92053223 3.64343262 C37.09479487 5.9919579 37.03561396 7.38117327 37.01818848 9.99499512 C37.01569092 10.76150391 37.01319336 11.5280127 37.01062012 12.31774902 C37.00151611 13.29147461 36.99241211 14.2652002 36.98303223 15.26843262 C36.96240723 18.36218262 36.94178223 21.45593262 36.92053223 24.64343262 C47.48053223 24.64343262 58.04053223 24.64343262 68.92053223 24.64343262 C68.92053223 29.92343262 68.92053223 35.20343262 68.92053223 40.64343262 C58.36053223 40.64343262 47.80053223 40.64343262 36.92053223 40.64343262 C37.03865588 46.34248429 37.03865588 46.34248429 37.1907959 52.04064941 C37.23939378 56.70029754 37.06701865 59.92485775 33.92053223 63.64343262 C30.15084413 64.89999532 26.6033548 64.82518623 22.67443848 64.84655762 C21.86691635 64.85225769 21.05939423 64.85795776 20.22740173 64.86383057 C18.52022611 64.87327096 16.81303233 64.87981073 15.10583496 64.88366699 C12.49621847 64.89338352 9.88738616 64.92441952 7.2779541 64.95593262 C5.61845356 64.96246194 3.9589474 64.96771269 2.29943848 64.97155762 C1.52016495 64.98390442 0.74089142 64.99625122 -0.06199646 65.00897217 C-3.30223942 64.99566549 -5.66330572 64.86883137 -8.54064941 63.3104248 C-13.99180602 57.40522136 -11.07946777 47.71557122 -11.07946777 40.64343262 C-32.19946777 40.64343262 -53.31946777 40.64343262 -75.07946777 40.64343262 C-75.07946777 35.36343262 -75.07946777 30.08343262 -75.07946777 24.64343262 C-53.95946777 24.64343262 -32.83946777 24.64343262 -11.07946777 24.64343262 C-11.07946777 18.37343262 -11.07946777 12.10343262 -11.07946777 5.64343262 C-5.50678815 0.07075299 -5.50678815 0.07075299 0 0 Z " fill="#00074E" transform="translate(379.0794677734375,175.3565673828125)"/>
<path d="M0 0 C6.31402599 4.4892277 11.8946353 11.71801442 13.3125 19.4375 C14.20657597 29.85182936 12.23751752 38.84437212 6.1015625 47.3984375 C-0.02961272 54.38637083 -8.36373775 57.71299541 -17.44921875 58.75390625 C-26.61949028 59.1503894 -33.70969311 55.89525754 -40.83203125 50.265625 C-47.93308539 43.26921798 -50.63205347 34.68504696 -51.0625 25 C-50.86882644 16.23627125 -46.67605604 8.71689099 -40.6875 2.4375 C-28.21792185 -7.6590525 -13.76318937 -8.22065287 0 0 Z " fill="#00CECC" transform="translate(194.6875,261.5625)"/>
<path d="M0 0 C63.36 0 126.72 0 192 0 C192 5.28 192 10.56 192 16 C128.64 16 65.28 16 0 16 C0 10.72 0 5.44 0 0 Z " fill="#00074E" transform="translate(256,112)"/>
<path d="M0 0 C1.32115059 0.00424484 1.32115059 0.00424484 2.66899109 0.00857544 C5.4708742 0.01973417 8.27243291 0.04483079 11.07421875 0.0703125 C12.978511 0.08034787 14.88280827 0.08947275 16.78710938 0.09765625 C21.44543672 0.11965941 26.10352281 0.15415956 30.76171875 0.1953125 C30.03855469 1.28199219 30.03855469 1.28199219 29.30078125 2.390625 C28.66914062 3.35742188 28.0375 4.32421875 27.38671875 5.3203125 C26.76023438 6.27164063 26.13375 7.22296875 25.48828125 8.203125 C22.33714967 13.66413583 21.50308417 18.29357405 21.34765625 24.5625 C21.3120459 25.80628418 21.27643555 27.05006836 21.23974609 28.33154297 C21.20574707 29.89533691 21.17174805 31.45913086 21.13671875 33.0703125 C21.01296875 38.0615625 20.88921875 43.0528125 20.76171875 48.1953125 C4.92171875 48.1953125 -10.91828125 48.1953125 -27.23828125 48.1953125 C-27.36203125 41.0178125 -27.36203125 41.0178125 -27.48828125 33.6953125 C-27.52469727 32.20193359 -27.56111328 30.70855469 -27.59863281 29.16992188 C-27.67324004 20.22186837 -27.03027011 14.46893143 -21.0546875 7.734375 C-19.93900391 6.78691406 -19.93900391 6.78691406 -18.80078125 5.8203125 C-18.05957031 5.17320313 -17.31835938 4.52609375 -16.5546875 3.859375 C-11.16147386 -0.01500782 -6.41563373 -0.07799122 0 0 Z " fill="#007C92" transform="translate(59.23828125,95.8046875)"/>
<path d="M0 0 C2.31 0.33 4.62 0.66 7 1 C4.94235079 7.45353615 2.57616518 13.7361263 0 20 C0.53318848 20.25378418 1.06637695 20.50756836 1.61572266 20.76904297 C14.77617625 27.56353478 14.77617625 27.56353478 17.20019531 34.37011719 C17.69200661 38.27665199 17.76480918 41.9405084 17.625 45.875 C17.61692322 46.54509094 17.60884644 47.21518188 17.6005249 47.90557861 C17.49017132 54.38023961 17.31069765 60.36391683 12.90625 65.40625 C9.40217847 68.48310899 4.81963864 72 0 72 C0.5053125 73.12019531 1.010625 74.24039063 1.53125 75.39453125 C2.18779058 76.86705798 2.84402466 78.33972139 3.5 79.8125 C4.00080078 80.91948242 4.00080078 80.91948242 4.51171875 82.04882812 C4.98544922 83.11713867 4.98544922 83.11713867 5.46875 84.20703125 C5.76201172 84.8616333 6.05527344 85.51623535 6.35742188 86.19067383 C7 88 7 88 7 91 C3.535 91.495 3.535 91.495 0 92 C-1.06101016 89.5902481 -2.09873228 87.17450146 -3.125 84.75 C-3.57939453 83.72712891 -3.57939453 83.72712891 -4.04296875 82.68359375 C-6.1693123 77.59025919 -6.1693123 77.59025919 -5.41552734 74.96240234 C-3.52112223 72.33611254 -1.31499239 71.45019976 1.53125 69.9296875 C5.23483118 67.31076115 7.22855054 65.38170915 8.109375 60.95410156 C8.60135931 56.87074061 8.63615497 52.81846777 8.54394531 48.71044922 C8.50008201 46.12982509 8.58404916 43.57487809 8.6796875 40.99609375 C8.89873076 32.64047602 8.89873076 32.64047602 5.64648438 25.19567871 C2.17339087 21.78155157 -1.7365285 19.31447727 -6 17 C-4.32180813 11.14800003 -2.5304489 5.54288807 0 0 Z " fill="#F9B002" transform="translate(88,242)"/>
<path d="M0 0 C5.28 0 10.56 0 16 0 C16 10.56 16 21.12 16 32 C10.72 32 5.44 32 0 32 C0 21.44 0 10.88 0 0 Z " fill="#FFD648" transform="translate(368,352)"/>
<path d="M0 0 C5.28 0 10.56 0 16 0 C16 10.56 16 21.12 16 32 C10.72 32 5.44 32 0 32 C0 21.44 0 10.88 0 0 Z " fill="#FFD648" transform="translate(336,272)"/>
<path d="M0 0 C5.28 0 10.56 0 16 0 C16 10.56 16 21.12 16 32 C10.72 32 5.44 32 0 32 C0 21.44 0 10.88 0 0 Z " fill="#FFD648" transform="translate(384,192)"/>
<path d="M0 0 C8.74950367 2.7342199 16.19292158 9.7272446 20.4453125 17.71484375 C25.93737147 29.40508356 26.42928628 39.61165167 22.2578125 51.921875 C18.41326548 61.33026958 11.32893604 69.60991245 2 74 C1.34 73.67 0.68 73.34 0 73 C0.42410156 72.65710938 0.84820312 72.31421875 1.28515625 71.9609375 C10.31480469 63.90371274 15.38567381 51.88497693 16.2109375 39.94921875 C16.5932125 27.43706403 13.4904764 15.37672619 5.0546875 5.7890625 C3.83581888 4.58006326 2.59336334 3.3939954 1.3203125 2.2421875 C0.88460937 1.83226562 0.44890625 1.42234375 0 1 C0 0.67 0 0.34 0 0 Z " fill="#F9B003" transform="translate(207,251)"/>
<path d="M0 0 C2.64 0 5.28 0 8 0 C8 10.56 8 21.12 8 32 C5.36 32 2.72 32 0 32 C0 21.44 0 10.88 0 0 Z " fill="#FFB300" transform="translate(368,352)"/>
<path d="M0 0 C2.64 0 5.28 0 8 0 C8 10.56 8 21.12 8 32 C5.36 32 2.72 32 0 32 C0 21.44 0 10.88 0 0 Z " fill="#FFB300" transform="translate(336,272)"/>
<path d="M0 0 C2.64 0 5.28 0 8 0 C8 10.56 8 21.12 8 32 C5.36 32 2.72 32 0 32 C0 21.44 0 10.88 0 0 Z " fill="#FFB300" transform="translate(384,192)"/>
<path d="M0 0 C5.28 0 10.56 0 16 0 C16 5.28 16 10.56 16 16 C10.72 16 5.44 16 0 16 C0 10.72 0 5.44 0 0 Z " fill="#00074E" transform="translate(128,112)"/>
<path d="M0 0 C5.28 0 10.56 0 16 0 C16 5.28 16 10.56 16 16 C10.72 16 5.44 16 0 16 C0 10.72 0 5.44 0 0 Z " fill="#00074E" transform="translate(96,112)"/>
<path d="M0 0 C5.28 0 10.56 0 16 0 C16 5.28 16 10.56 16 16 C10.72 16 5.44 16 0 16 C0 10.72 0 5.44 0 0 Z " fill="#00074E" transform="translate(64,112)"/>
<path d="M0 0 C2.73828125 -0.30859375 2.73828125 -0.30859375 6 0 C8.16796875 2.08984375 8.16796875 2.08984375 10.1875 4.9375 C13.47845281 9.34231375 16.63008512 12.34497058 21.125 15.5 C25.84713998 19.16985252 25.84713998 19.16985252 26.5078125 22.7578125 C26.25057015 25.6186592 25.7224682 28.22288233 25 31 C24.79474299 32.39333288 24.6041865 33.78902849 24.4375 35.1875 C24.293125 36.115625 24.14875 37.04375 24 38 C21.23723823 37.47731534 18.6739124 36.89130413 16 36 C16.1239917 35.15405273 16.1239917 35.15405273 16.25048828 34.29101562 C18.15307342 23.28670295 18.15307342 23.28670295 15.0859375 13.13671875 C12.48594017 11.17690204 9.83289473 9.59908384 7 8 C4.7734375 6.0234375 4.7734375 6.0234375 2.875 4.0625 C2.31554687 3.49660156 1.75609375 2.93070312 1.1796875 2.34765625 C0 1 0 1 0 0 Z " fill="#F6AE05" transform="translate(114,340)"/>
<path d="M0 0 C0.33808686 2.06172613 0.67027361 4.1244203 1 6.1875 C1.185625 7.33605469 1.37125 8.48460937 1.5625 9.66796875 C1.706875 10.76753906 1.85125 11.86710938 2 13 C2.12246094 13.88042969 2.24492187 14.76085937 2.37109375 15.66796875 C2 18 2 18 -0.08984375 20.0703125 C-1.02957031 20.74835938 -1.96929687 21.42640625 -2.9375 22.125 C-9.0121407 26.7911424 -13.38422521 31.90261848 -18 38 C-19.65 37.67 -21.3 37.34 -23 37 C-19.50652495 32.5871894 -16.25046307 29.41349768 -11.625 26.1875 C-8.09711107 23.51287106 -8.09711107 23.51287106 -6.32421875 19.62109375 C-6.31190953 16.99922897 -6.58544625 14.58805519 -7 12 C-7.1715783 10.12544307 -7.33841507 8.25044477 -7.5 6.375 C-7.6616016 4.91609671 -7.82633841 3.45751691 -8 2 C-5.09399739 0.74335022 -3.20395416 0 0 0 Z " fill="#F7AF04" transform="translate(138,198)"/>
<path d="M0 0 C2.31 0.33 4.62 0.66 7 1 C4.94235079 7.45353615 2.57616518 13.7361263 0 20 C0.60328125 20.29390625 1.2065625 20.5878125 1.828125 20.890625 C4.6442031 22.32905338 6.75555281 23.75555281 9 26 C9.3125 29.25 9.3125 29.25 9 32 C8.67 32 8.34 32 8 32 C7.97035156 31.28457031 7.94070312 30.56914062 7.91015625 29.83203125 C6.60996294 25.78636538 3.76770292 24.05619017 0.4375 21.6875 C-0.17802734 21.23310547 -0.79355469 20.77871094 -1.42773438 20.31054688 C-2.94285983 19.19475681 -4.47028033 18.09569629 -6 17 C-4.33846988 11.14340094 -2.52958084 5.5409866 0 0 Z " fill="#F5AC03" transform="translate(88,242)"/>
<path d="M0 0 C1.67542976 0.28604898 3.34385343 0.61781233 5 1 C3.875 3.5 3.875 3.5 2 6 C-1.1875 6.3125 -1.1875 6.3125 -4 6 C-1.125 1.125 -1.125 1.125 0 0 Z " fill="#F1AB08" transform="translate(205,194)"/>
<path d="M0 0 C2.8125 -0.3125 2.8125 -0.3125 6 0 C7.875 2.5 7.875 2.5 9 5 C7.35 5.33 5.7 5.66 4 6 C2.68 4.02 1.36 2.04 0 0 Z " fill="#F5AE07" transform="translate(201,376)"/>
<path d="M0 0 C2.86733048 1.80488213 5.56775013 3.6317567 8 6 C8.5 9.375 8.5 9.375 8 12 C7.67 12 7.34 12 7 12 C6.9690625 10.9171875 6.9690625 10.9171875 6.9375 9.8125 C5.55987495 5.67962484 2.60643381 4.21282492 -1 2 C-0.67 1.34 -0.34 0.68 0 0 Z " fill="#DC9D0E" transform="translate(89,262)"/>
<path d="M0 0 C0.66 1.32 1.32 2.64 2 4 C0.90716423 5.03295436 -0.19970579 6.05107835 -1.3125 7.0625 C-1.92738281 7.63097656 -2.54226562 8.19945312 -3.17578125 8.78515625 C-3.77777344 9.18605469 -4.37976563 9.58695312 -5 10 C-5.99 9.67 -6.98 9.34 -8 9 C-7.25943359 8.52820313 -7.25943359 8.52820313 -6.50390625 8.046875 C-5.86324219 7.61890625 -5.22257812 7.1909375 -4.5625 6.75 C-3.92441406 6.33234375 -3.28632812 5.9146875 -2.62890625 5.484375 C-0.70097943 3.72751123 -0.38520564 2.53910197 0 0 Z " fill="#DC9D0D" transform="translate(96,303)"/>
</svg>
