<?xml version="1.0" encoding="UTF-8"?>
<svg version="1.1" xmlns="http://www.w3.org/2000/svg" width="512" height="512">
<path d="M0 0 C1.56548584 0.00749268 1.56548584 0.00749268 3.16259766 0.01513672 C21.50829628 0.42495436 35.31268913 7.74173967 48.3125 20.5 C48.951875 21.11488281 49.59125 21.72976562 50.25 22.36328125 C61.23055304 33.80952738 65.91118185 49.64890422 65.8125 65.1875 C65.80750488 66.23115723 65.80250977 67.27481445 65.79736328 68.35009766 C65.36272482 87.80691299 57.02941149 102.15195424 43.203125 115.54296875 C33.34848081 124.5 33.34848081 124.5 28.3125 124.5 C28.3125 160.47 28.3125 196.44 28.3125 233.5 C24.3125 237.5 24.3125 237.5 20.3125 238.5 C20.3125 244.44 20.3125 250.38 20.3125 256.5 C21.9625 256.83 23.6125 257.16 25.3125 257.5 C28.44996266 260.60492942 28.66911747 263.34138586 28.71589661 267.64727783 C28.70974838 268.46645691 28.70360016 269.28563599 28.69726562 270.12963867 C28.7026384 271.00024429 28.70801117 271.87084991 28.71354675 272.76783752 C28.72332792 274.65898101 28.72626788 276.5501694 28.72319031 278.44133568 C28.71870224 281.44998232 28.73274705 284.45804367 28.75158691 287.46662903 C28.78839056 293.87357626 28.8020512 300.28046272 28.8125 306.6875 C28.82463835 314.07250191 28.8466284 321.45722044 28.89250183 328.84209633 C28.90589694 331.77808447 28.90193013 334.71369822 28.89709473 337.64970398 C28.93946595 351.99770719 30.22292849 365.98410407 35 379.625 C35.25346191 380.36306885 35.50692383 381.1011377 35.76806641 381.86157227 C45.37932397 408.72639208 65.77191343 431.81493238 91.33007812 444.57373047 C118.65608496 457.34157159 149.55675083 460.40304945 178.3125 450.5 C192.30107403 445.2188436 204.9268619 438.25650339 216.3125 428.5 C217.13492187 427.82324219 217.95734375 427.14648438 218.8046875 426.44921875 C232.61402617 414.68331805 242.00064852 399.31102174 248.3125 382.4375 C248.76725708 381.22296143 248.76725708 381.22296143 249.23120117 379.98388672 C250.63332152 376.05136121 251.72203972 372.74044256 251.3125 368.5 C250.4875 367.901875 249.6625 367.30375 248.8125 366.6875 C236.09807285 355.98694193 231.7637832 341.35581047 230.3125 325.5 C229.71002441 325.25467529 229.10754883 325.00935059 228.48681641 324.7565918 C210.11593784 317.20636641 193.23531369 308.80439052 178.3125 295.5 C177.45269531 294.74847656 176.59289062 293.99695313 175.70703125 293.22265625 C173.21092217 291.01354307 170.75620872 288.76680725 168.3125 286.5 C167.67054688 285.92378906 167.02859375 285.34757812 166.3671875 284.75390625 C144.19230995 263.92436646 129.57888825 233.98532444 123.3125 204.5 C123.16441895 203.8184082 123.01633789 203.13681641 122.86376953 202.43457031 C120.4691792 190.94362987 119.98182291 179.45125537 119.875 167.75 C119.86287476 167.05286896 119.85074951 166.35573792 119.83825684 165.63748169 C119.70174894 156.41136972 119.86319722 149.64206703 126.09375 142.44140625 C126.94453125 141.75884766 126.94453125 141.75884766 127.8125 141.0625 C128.3796875 140.58941406 128.946875 140.11632812 129.53125 139.62890625 C131.45718197 138.40830463 133.10483242 138.00197612 135.3125 137.5 C135.30250725 136.47215141 135.30250725 136.47215141 135.29231262 135.42353821 C135.23174773 128.90838083 135.1862981 122.39330407 135.15706348 115.87792683 C135.14152726 112.52969457 135.11884737 109.18187473 135.08618164 105.83374023 C135.04943869 101.968526 135.03269142 98.1036394 135.01953125 94.23828125 C135.00404739 93.05857254 134.98856354 91.87886383 134.97261047 90.66340637 C134.97042175 79.64987536 136.79872847 69.13329195 141.9375 59.3125 C142.28377441 58.63888428 142.63004883 57.96526855 142.98681641 57.27124023 C146.25640623 51.16873735 150.3139377 46.28924227 155.3125 41.5 C156.07175781 40.72140625 156.83101562 39.9428125 157.61328125 39.140625 C168.36254912 28.65525077 181.00332893 24.49191759 195.3125 21.5 C195.45945312 20.41332031 195.45945312 20.41332031 195.609375 19.3046875 C196.50470595 13.51590982 197.27135723 8.97802307 201.3125 4.5 C206.5514961 0.93538967 210.27107098 -0.16515001 216.5625 0 C217.30757813 0.01281006 218.05265625 0.02562012 218.8203125 0.03881836 C230.63617443 0.46939205 238.9823195 5.24502956 247.28515625 13.44921875 C251.2340818 17.71674127 254.14676177 22.10105068 256.3125 27.5 C256.84810547 28.82064453 256.84810547 28.82064453 257.39453125 30.16796875 C260.71784492 42.2308903 258.92343686 55.35441923 252.83984375 66.1015625 C246.19392934 76.50249712 236.88995332 83.1682344 224.921875 86.08203125 C218.62925507 87.08998085 211.98498896 87.32604204 205.875 85.4375 C201.31335843 81.98845394 197.28525996 78.44905858 196.4375 72.5625 C196.39625 71.551875 196.355 70.54125 196.3125 69.5 C189.53842697 73.36385234 184.92109573 76.87813801 182.3125 84.5 C181.99050245 87.14269692 181.99050245 87.14269692 181.99365234 89.93286133 C181.97378265 90.99358353 181.95391296 92.05430573 181.93344116 93.14717102 C181.92188995 94.2806749 181.91033875 95.41417877 181.8984375 96.58203125 C181.86938828 98.33600471 181.86938828 98.33600471 181.8397522 100.12541199 C181.78004805 103.85436749 181.73360703 107.58335401 181.6875 111.3125 C181.64931185 113.8431123 181.61025963 116.37371173 181.5703125 118.90429688 C181.47435391 125.10275011 181.38927942 131.30128113 181.3125 137.5 C182.07433594 137.78875 182.83617187 138.0775 183.62109375 138.375 C189.12154491 140.67417262 192.16320561 143.50587654 194.4609375 148.92578125 C196.72536834 154.85640786 196.85762551 160.39986496 196.875 166.6875 C197.33063004 186.88315374 201.98416319 204.50749478 213.3125 221.5 C213.51100603 225.20544587 213.48914871 227.97005387 212.3125 231.5 C213.35964924 232.82477959 214.42594669 234.13443746 215.5 235.4375 C216.09167969 236.16839844 216.68335938 236.89929688 217.29296875 237.65234375 C219.66764965 239.82492415 221.13796541 240.23201981 224.3125 240.5 C225.075625 240.273125 225.83875 240.04625 226.625 239.8125 C229.65049265 239.46069853 230.3850764 239.84963119 233.00390625 241.23046875 C234.06726196 241.78383911 234.06726196 241.78383911 235.15209961 242.34838867 C235.86503174 242.72842041 236.57796387 243.10845215 237.3125 243.5 C259.75219589 255.35907034 283.34469501 260.91623101 308.421875 253.75390625 C322.18019783 249.44846479 334.27934041 242.9749868 344.3125 232.5 C344.9725 232.5 345.6325 232.5 346.3125 232.5 C346.57804687 231.90960938 346.84359375 231.31921875 347.1171875 230.7109375 C348.34340304 228.44283948 349.64601588 226.96647902 351.4375 225.125 C366.56183424 208.01972385 370.58111752 186.58328883 371.5390625 164.51171875 C371.59453247 163.29742187 371.59453247 163.29742187 371.65112305 162.05859375 C371.71500824 160.52661095 371.76437348 158.99392261 371.79614258 157.4609375 C372.01445685 151.32822637 373.64723131 147.38438299 377.6875 142.8125 C383.71790541 137.5 383.71790541 137.5 387.3125 137.5 C387.24519461 130.68609509 387.15526989 123.87275022 387.05004883 117.05932617 C387.01691454 114.74428986 386.98884728 112.429175 386.96606445 110.11401367 C386.9323069 106.77488922 386.87997969 103.43647719 386.82421875 100.09765625 C386.81463387 98.55961082 386.81463387 98.55961082 386.80485535 96.99049377 C386.62491819 88.07882123 385.10732185 80.60183138 378.94140625 73.94140625 C376.63113294 71.89706368 374.15702792 70.65135654 371.3125 69.5 C371.23 70.53125 371.1475 71.5625 371.0625 72.625 C370.1188497 77.50052654 368.68118946 80.6564176 364.69140625 83.76171875 C357.86360275 87.80729879 350.52700289 87.37638027 342.96875 85.8046875 C335.8712986 83.83133069 330.03940468 81.13338154 324.3125 76.5 C323.69890625 76.02175781 323.0853125 75.54351562 322.453125 75.05078125 C314.77718567 68.30886108 309.85056268 57.48599414 309.07421875 47.40625 C308.76278967 33.11329414 312.42003321 22.04459858 322.15625 11.50390625 C330.47238636 3.57971894 340.42131188 0.33268284 351.6875 0.1875 C352.43 0.15849609 353.1725 0.12949219 353.9375 0.09960938 C359.21564846 0.0389946 362.11129261 1.0420347 366.3125 4.5 C370.0516421 8.74443158 371.44703178 11.00652102 371.375 16.625 C371.36146484 17.99011719 371.36146484 17.99011719 371.34765625 19.3828125 C371.33025391 20.43082031 371.33025391 20.43082031 371.3125 21.5 C372.2096875 21.62375 373.106875 21.7475 374.03125 21.875 C392.89634649 24.99319777 408.39590341 34.30109039 420.2421875 49.48046875 C430.7169809 64.75785611 433.34525255 80.38960917 433.62890625 98.53515625 C433.64968735 99.65442001 433.67046844 100.77368378 433.69187927 101.92686462 C433.75681361 105.47201916 433.81599666 109.0172423 433.875 112.5625 C433.91823869 114.97852248 433.96185461 117.39453823 434.00585938 119.81054688 C434.11243678 125.70696053 434.21430317 131.60344113 434.3125 137.5 C434.86172119 137.82468262 435.41094238 138.14936523 435.97680664 138.48388672 C436.69731201 138.91975098 437.41781738 139.35561523 438.16015625 139.8046875 C438.87437744 140.23249512 439.58859863 140.66030273 440.32446289 141.10107422 C444.08580621 143.74782569 445.88882274 147.22896823 447.3125 151.5 C447.445553 154.04672611 447.52407463 156.56518286 447.55078125 159.11328125 C447.56560799 160.24944885 447.56560799 160.24944885 447.58073425 161.40856934 C447.75323914 178.10099771 447.79635396 194.28867473 443.3125 210.5 C443.0546875 211.44520508 442.796875 212.39041016 442.53125 213.36425781 C434.53038625 241.69139002 420.19767071 265.89054112 399.3125 286.5 C398.69503906 286.41878906 398.07757813 286.33757812 397.44140625 286.25390625 C391.78203891 285.83182254 388.70503886 286.43049791 384.1875 290 C382.87563628 291.14390885 381.5763777 292.30328489 380.3125 293.5 C380.3125 296.14 380.3125 298.78 380.3125 301.5 C369.18963794 313.25207506 350.97454905 321.80575747 335.3125 325.5 C335.35890625 326.07105469 335.4053125 326.64210938 335.453125 327.23046875 C336.04264392 340.4735903 330.5880644 351.22827609 323 361.6875 C319.45394905 365.39848355 315.59283126 368.65765822 311.3125 371.5 C310.6525 371.5 309.9925 371.5 309.3125 371.5 C309.20035156 372.78003906 309.08820313 374.06007813 308.97265625 375.37890625 C305.39765816 407.2181501 286.68654613 438.3936476 264.74560547 461.02001953 C263.41314523 462.3960628 262.09838058 463.78918089 260.78515625 465.18359375 C234.43779923 492.55580744 194.36902455 510.97605355 156.35693359 512.67700195 C154.97503024 512.70309324 153.59300585 512.72329105 152.2109375 512.73828125 C151.46024994 512.74802979 150.70956238 512.75777832 149.93612671 512.76782227 C133.33558623 512.93906116 117.48544136 512.69847902 101.3125 508.5 C100.56742188 508.31808105 99.82234375 508.13616211 99.0546875 507.94873047 C87.57354893 505.11140846 76.93690181 500.64592914 66.3125 495.5 C65.64976074 495.18160156 64.98702148 494.86320312 64.30419922 494.53515625 C50.99619621 488.05426971 39.27125465 479.57301673 28.44921875 469.484375 C26.55685581 467.72693373 24.61994751 466.07573504 22.625 464.4375 C18.7628141 461.13218741 15.52734793 457.42925858 12.3125 453.5 C11.18521484 452.12908203 11.18521484 452.12908203 10.03515625 450.73046875 C-13.83387014 420.75278157 -27.93677432 384.0489607 -27.80775452 345.52780151 C-27.80860894 344.57595667 -27.80946337 343.62411183 -27.81034368 342.6434232 C-27.81197919 339.48215176 -27.80650896 336.32093444 -27.80102539 333.15966797 C-27.80074308 330.88235984 -27.80090212 328.60505161 -27.8014679 326.32774353 C-27.80175414 320.16530108 -27.79588532 314.00287819 -27.78889394 307.84044027 C-27.78263165 301.39290562 -27.78205433 294.94537048 -27.78086853 288.49783325 C-27.77811618 277.68247093 -27.7718751 266.86711661 -27.76293945 256.05175781 C-27.75374872 244.91601599 -27.74667602 233.78027611 -27.74243164 222.64453125 C-27.74216892 221.95716251 -27.74190619 221.26979376 -27.74163551 220.56159566 C-27.74033039 217.11298156 -27.7390667 213.66436744 -27.73782361 210.21575332 C-27.72747097 181.64383072 -27.70979537 153.07191564 -27.6875 124.5 C-28.46907471 124.19384766 -29.25064941 123.88769531 -30.0559082 123.57226562 C-44.82041096 117.55633687 -54.91165745 104.03938977 -61.29296875 89.95703125 C-67.23730802 74.78127105 -67.05927453 55.99769995 -61.1640625 40.84375 C-57.11085236 31.66505192 -51.7052466 24.65061272 -44.6875 17.5 C-44.07261719 16.860625 -43.45773438 16.22125 -42.82421875 15.5625 C-31.37797262 4.58194696 -15.53859578 -0.09868185 0 0 Z " fill="#010102" transform="translate(64.6875,-0.5)"/>
<path d="M0 0 C0.7425 -0.02900391 1.485 -0.05800781 2.25 -0.08789062 C7.52814846 -0.1485054 10.42379261 0.8545347 14.625 4.3125 C18.3641421 8.55693158 19.75953178 10.81902102 19.6875 16.4375 C19.67847656 17.34757812 19.66945313 18.25765625 19.66015625 19.1953125 C19.64275391 20.24332031 19.64275391 20.24332031 19.625 21.3125 C20.5221875 21.43625 21.419375 21.56 22.34375 21.6875 C41.20884649 24.80569777 56.70840341 34.11359039 68.5546875 49.29296875 C79.0294809 64.57035611 81.65775255 80.20210917 81.94140625 98.34765625 C81.96218735 99.46692001 81.98296844 100.58618378 82.00437927 101.73936462 C82.06931361 105.28451916 82.12849666 108.8297423 82.1875 112.375 C82.23073869 114.79102248 82.27435461 117.20703823 82.31835938 119.62304688 C82.42493678 125.51946053 82.52680317 131.41594113 82.625 137.3125 C83.17422119 137.63718262 83.72344238 137.96186523 84.28930664 138.29638672 C85.00981201 138.73225098 85.73031738 139.16811523 86.47265625 139.6171875 C87.18687744 140.04499512 87.90109863 140.47280273 88.63696289 140.91357422 C92.39830621 143.56032569 94.20132274 147.04146823 95.625 151.3125 C95.758053 153.85922611 95.83657463 156.37768286 95.86328125 158.92578125 C95.87810799 160.06194885 95.87810799 160.06194885 95.89323425 161.22106934 C96.06573914 177.91349771 96.10885396 194.10117473 91.625 210.3125 C91.3671875 211.25770508 91.109375 212.20291016 90.84375 213.17675781 C82.84288625 241.50389002 68.51017071 265.70304112 47.625 286.3125 C47.00753906 286.23128906 46.39007813 286.15007812 45.75390625 286.06640625 C40.09453891 285.64432254 37.01753886 286.24299791 32.5 289.8125 C31.18813628 290.95640885 29.8888777 292.11578489 28.625 293.3125 C27.944375 292.961875 27.26375 292.61125 26.5625 292.25 C22.78780143 291.04530897 20.4667898 291.39638089 16.625 292.3125 C13.63071752 293.84787532 13.63071752 293.84787532 10.75 295.875 C-22.01812537 317.09121755 -61.3702104 322.8153716 -99.375 315.3125 C-136.92186037 306.96788266 -170.01336157 283.73703302 -191.578125 252.078125 C-203.14590389 233.77006549 -211.11320702 214.74096782 -214.375 193.3125 C-214.57996094 192.136875 -214.78492188 190.96125 -214.99609375 189.75 C-216.21843584 182.06188978 -216.63089602 174.46428899 -216.75 166.6875 C-216.77602295 165.73858887 -216.8020459 164.78967773 -216.82885742 163.81201172 C-216.83119385 162.91240723 -216.83353027 162.01280273 -216.8359375 161.0859375 C-216.84415527 160.28591309 -216.85237305 159.48588867 -216.86083984 158.66162109 C-216.19988017 155.46576481 -214.52139517 153.70984848 -212.375 151.3125 C-207.17890542 151.23828095 -201.98312017 151.18386554 -196.78662109 151.14770508 C-195.01931381 151.13262898 -193.25204386 151.11216478 -191.48486328 151.08618164 C-188.94294005 151.04974598 -186.40151194 151.03276206 -183.859375 151.01953125 C-183.07069031 151.00404739 -182.28200562 150.98856354 -181.46942139 150.97261047 C-178.06933549 150.97157 -175.79690066 151.05933518 -172.84472656 152.83081055 C-171.375 154.3125 -171.375 154.3125 -171.34667969 156.41357422 C-170.91035032 182.28961676 -167.79877631 211.26309637 -149.375 231.3125 C-146.075 231.3125 -142.775 231.3125 -139.375 231.3125 C-138.92769531 231.87839844 -138.48039062 232.44429687 -138.01953125 233.02734375 C-137.41496094 233.76082031 -136.81039062 234.49429688 -136.1875 235.25 C-135.59582031 235.98089844 -135.00414062 236.71179688 -134.39453125 237.46484375 C-132.01985035 239.63742415 -130.54953459 240.04451981 -127.375 240.3125 C-126.611875 240.085625 -125.84875 239.85875 -125.0625 239.625 C-122.03700735 239.27319853 -121.3024236 239.66213119 -118.68359375 241.04296875 C-117.97468994 241.41188232 -117.26578613 241.7807959 -116.53540039 242.16088867 C-115.4660022 242.73093628 -115.4660022 242.73093628 -114.375 243.3125 C-91.93530411 255.17157034 -68.34280499 260.72873101 -43.265625 253.56640625 C-29.50730217 249.26096479 -17.40815959 242.7874868 -7.375 232.3125 C-6.715 232.3125 -6.055 232.3125 -5.375 232.3125 C-5.10945312 231.72210938 -4.84390625 231.13171875 -4.5703125 230.5234375 C-3.34409696 228.25533948 -2.04148412 226.77897902 -0.25 224.9375 C14.87433424 207.83222385 18.89361752 186.39578883 19.8515625 164.32421875 C19.90703247 163.10992187 19.90703247 163.10992187 19.96362305 161.87109375 C20.02750824 160.33911095 20.07687348 158.80642261 20.10864258 157.2734375 C20.32695685 151.14072637 21.95973131 147.19688299 26 142.625 C32.03040541 137.3125 32.03040541 137.3125 35.625 137.3125 C35.55769461 130.49859509 35.46776989 123.68525022 35.36254883 116.87182617 C35.32941454 114.55678986 35.30134728 112.241675 35.27856445 109.92651367 C35.2448069 106.58738922 35.19247969 103.24897719 35.13671875 99.91015625 C35.12713387 98.37211082 35.12713387 98.37211082 35.11735535 96.80299377 C34.93741819 87.89132123 33.41982185 80.41433138 27.25390625 73.75390625 C24.94363294 71.70956368 22.46952792 70.46385654 19.625 69.3125 C19.5425 70.34375 19.46 71.375 19.375 72.4375 C18.4313497 77.31302654 16.99368946 80.4689176 13.00390625 83.57421875 C6.17610275 87.61979879 -1.16049711 87.18888027 -8.71875 85.6171875 C-15.8162014 83.64383069 -21.64809532 80.94588154 -27.375 76.3125 C-27.98859375 75.83425781 -28.6021875 75.35601562 -29.234375 74.86328125 C-36.91031433 68.12136108 -41.83693732 57.29849414 -42.61328125 47.21875 C-42.92471033 32.92579414 -39.26746679 21.85709858 -29.53125 11.31640625 C-21.21511364 3.39221894 -11.26618812 0.14518284 0 0 Z " fill="#EAE9FB" transform="translate(416.375,-0.3125)"/>
<path d="M0 0 C0.7425 -0.02900391 1.485 -0.05800781 2.25 -0.08789062 C7.52814846 -0.1485054 10.42379261 0.8545347 14.625 4.3125 C18.3641421 8.55693158 19.75953178 10.81902102 19.6875 16.4375 C19.67847656 17.34757812 19.66945313 18.25765625 19.66015625 19.1953125 C19.64275391 20.24332031 19.64275391 20.24332031 19.625 21.3125 C20.5221875 21.43625 21.419375 21.56 22.34375 21.6875 C41.20884649 24.80569777 56.70840341 34.11359039 68.5546875 49.29296875 C79.0294809 64.57035611 81.65775255 80.20210917 81.94140625 98.34765625 C81.96218735 99.46692001 81.98296844 100.58618378 82.00437927 101.73936462 C82.06931361 105.28451916 82.12849666 108.8297423 82.1875 112.375 C82.23073869 114.79102248 82.27435461 117.20703823 82.31835938 119.62304688 C82.42493678 125.51946053 82.52680317 131.41594113 82.625 137.3125 C83.44883179 137.79952393 83.44883179 137.79952393 84.28930664 138.29638672 C85.00981201 138.73225098 85.73031738 139.16811523 86.47265625 139.6171875 C87.18687744 140.04499512 87.90109863 140.47280273 88.63696289 140.91357422 C92.39830621 143.56032569 94.20132274 147.04146823 95.625 151.3125 C95.758053 153.85922611 95.83657463 156.37768286 95.86328125 158.92578125 C95.87316574 159.68322632 95.88305023 160.44067139 95.89323425 161.22106934 C96.06573914 177.91349771 96.10885396 194.10117473 91.625 210.3125 C91.3671875 211.25770508 91.109375 212.20291016 90.84375 213.17675781 C82.84288625 241.50389002 68.51017071 265.70304112 47.625 286.3125 C40.625 286.3125 40.625 286.3125 39.1875 284.9375 C36.8797574 282.53744769 36.63050819 281.58790935 36.5625 278.1875 C36.625 275.3125 36.625 275.3125 37.9387207 273.82836914 C58.15916988 250.87016277 72.36046588 225.71197447 77.625 195.3125 C77.79563965 194.38622803 77.9662793 193.45995605 78.14208984 192.50561523 C79.55747355 184.27627704 79.86852452 176.33774445 79.75 168 C79.74097656 166.77087891 79.73195313 165.54175781 79.72265625 164.27539062 C80.14158114 157.53915054 80.14158114 157.53915054 76.625 152.3125 C64.415 152.3125 52.205 152.3125 39.625 152.3125 C36.388239 154.85695325 36.388239 154.85695325 36.58081055 157.4453125 C35.76780812 192.65435061 27.77582006 222.13678241 1.75 247.06640625 C-12.24578939 259.2568877 -29.24865173 267.45683059 -47.375 271.3125 C-48.025896 271.48023926 -48.67679199 271.64797852 -49.34741211 271.82080078 C-72.95176686 277.68455324 -97.33782677 271.22692674 -118.375 260.3125 C-119.31025513 259.83248535 -119.31025513 259.83248535 -120.2644043 259.34277344 C-124.37379673 257.13101083 -127.26030093 254.71035353 -130.375 251.3125 C-130.5 244.6875 -130.5 244.6875 -129.375 241.3125 C-120.93104924 238.89994264 -117.79877965 241.48388236 -110.5859375 245.3125 C-89.63798871 256.31057835 -66.34942466 260.15939916 -43.265625 253.56640625 C-29.50730217 249.26096479 -17.40815959 242.7874868 -7.375 232.3125 C-6.715 232.3125 -6.055 232.3125 -5.375 232.3125 C-5.10945313 231.72210938 -4.84390625 231.13171875 -4.5703125 230.5234375 C-3.34409696 228.25533948 -2.04148412 226.77897902 -0.25 224.9375 C14.87433424 207.83222385 18.89361752 186.39578883 19.8515625 164.32421875 C19.90703247 163.10992187 19.90703247 163.10992187 19.96362305 161.87109375 C20.02750824 160.33911095 20.07687348 158.80642261 20.10864258 157.2734375 C20.32695685 151.14072637 21.95973131 147.19688299 26 142.625 C32.03040541 137.3125 32.03040541 137.3125 35.625 137.3125 C35.55769461 130.49859509 35.46776989 123.68525022 35.36254883 116.87182617 C35.32941454 114.55678986 35.30134728 112.241675 35.27856445 109.92651367 C35.2448069 106.58738922 35.19247969 103.24897719 35.13671875 99.91015625 C35.12713387 98.37211082 35.12713387 98.37211082 35.11735535 96.80299377 C34.93741819 87.89132123 33.41982185 80.41433138 27.25390625 73.75390625 C24.94363294 71.70956368 22.46952792 70.46385654 19.625 69.3125 C19.5425 70.34375 19.46 71.375 19.375 72.4375 C18.4313497 77.31302654 16.99368946 80.4689176 13.00390625 83.57421875 C6.17610275 87.61979879 -1.16049711 87.18888027 -8.71875 85.6171875 C-15.8162014 83.64383069 -21.64809532 80.94588154 -27.375 76.3125 C-27.98859375 75.83425781 -28.6021875 75.35601562 -29.234375 74.86328125 C-36.91031433 68.12136108 -41.83693732 57.29849414 -42.61328125 47.21875 C-42.92471033 32.92579414 -39.26746679 21.85709858 -29.53125 11.31640625 C-21.21511364 3.39221894 -11.26618812 0.14518284 0 0 Z " fill="#010101" transform="translate(416.375,-0.3125)"/>
<path d="M0 0 C8.25 0 16.5 0 25 0 C25.33 34.32 25.66 68.64 26 104 C28.7018576 107.1490712 28.7018576 107.1490712 32 108 C32 114.6 32 121.2 32 128 C29.525 128.99 29.525 128.99 27 130 C22.04886614 134.95113386 25.86337897 160.84721763 25.84456348 168.00906944 C25.82899765 173.73919112 25.807928 179.46917585 25.77368164 185.19921875 C25.7407609 190.74301092 25.72307897 196.28667248 25.71536827 201.83055496 C25.70988285 203.93134233 25.69917389 206.03212366 25.68280983 208.13285446 C25.56053792 224.50064634 26.35444337 240.55222079 32.125 256.0625 C32.4235791 256.88556641 32.7221582 257.70863281 33.02978516 258.55664062 C45.60478867 292.02994921 70.94082563 317.37008826 103.19873047 332.19970703 C107.38991821 334.06182596 111.62853208 335.62130627 116 337 C116.79664063 337.27457031 117.59328125 337.54914063 118.4140625 337.83203125 C150.75926769 347.9962366 187.24092787 341.54519949 216.6875 326.1875 C248.48488384 309.02290372 267.88277572 279.63672986 279 246 C279.54785156 246.144375 280.09570312 246.28875 280.66015625 246.4375 C288.5055418 248.27446832 295.98570553 248.19234307 304 248 C298.75812638 283.52825456 274.32296033 316.59103688 246.15844727 337.74633789 C227.71665236 351.18067139 207.30908005 360.33743465 185 365 C183.99694824 365.22429687 183.99694824 365.22429687 182.97363281 365.453125 C145.22181414 373.75888312 105.03630279 365.55424791 72.49951172 345.24365234 C42.43592222 326.00840819 19.89297929 298.72051314 8 265 C7.77473633 264.36916504 7.54947266 263.73833008 7.31738281 263.08837891 C0.87882565 244.80599939 -0.44230615 227.02922688 -0.34057617 207.75146484 C-0.33972795 205.4729768 -0.34020884 203.19448794 -0.34190369 200.91600037 C-0.34275744 194.78702289 -0.32523299 188.65822488 -0.30418181 182.52928877 C-0.2853107 176.10316366 -0.2836564 169.67703355 -0.28010559 163.25088501 C-0.27186825 152.48330242 -0.25318438 141.7157927 -0.22631836 130.94824219 C-0.19869921 119.86719076 -0.17750432 108.78615711 -0.16479492 97.70507812 C-0.16400675 97.01981117 -0.16321858 96.33454421 -0.16240653 95.62851159 C-0.15849086 92.19006266 -0.15469987 88.75161361 -0.15097082 85.31316447 C-0.11996886 56.87539679 -0.06637923 28.43770528 0 0 Z " fill="#83D2F5" transform="translate(53,129)"/>
<path d="M0 0 C1.33479579 1.04119007 2.64633738 2.11356639 3.921875 3.2265625 C5.87853818 4.76880724 5.87853818 4.76880724 9.67578125 4.3984375 C11.49742561 3.23545308 11.49742561 3.23545308 13.23828125 1.6484375 C20.5468954 -4.05255173 28.4589542 -6.34283651 37.6953125 -5.984375 C48.8287785 -4.55438854 58.97803736 1.37296814 66.10546875 9.9921875 C70.37658942 16.53698932 73.24193048 24.58912356 73.67578125 32.3984375 C73.72605469 33.16929687 73.77632812 33.94015625 73.828125 34.734375 C74.5429324 54.23432091 66.97515618 74.32285203 54.05078125 88.8359375 C52.6028151 90.36664458 51.14596099 91.88905297 49.67578125 93.3984375 C48.87140625 94.2646875 48.06703125 95.1309375 47.23828125 96.0234375 C35.7709139 106.65172919 21.41417474 116.73454499 5.12109375 116.3359375 C-9.99871633 114.54130129 -24.25733926 104.23969234 -34.32421875 93.3984375 C-34.989375 92.72683594 -35.65453125 92.05523437 -36.33984375 91.36328125 C-50.17015462 76.89790508 -58.09144433 57.88527515 -58.57421875 37.8359375 C-58.2676448 25.94768092 -55.38912503 14.71255296 -47.32421875 5.5859375 C-34.5180287 -6.12669025 -14.83299597 -10.22105604 0 0 Z " fill="#FB8A9A" transform="translate(340.32421875,116.6015625)"/>
<path d="M0 0 C12.21 0 24.42 0 37 0 C42.75714536 5.75714536 41.17587708 12.02368375 41.19775391 19.97851562 C40.97722726 57.67387027 26.30243638 92.59791103 0.71484375 120.07421875 C-2.24941421 123.40310069 -2.17543229 125.6141928 -2 130 C-1.67 131.32 -1.34 132.64 -1 134 C-4.3 136.64 -7.6 139.28 -11 142 C-12.65 141.34 -14.3 140.68 -16 140 C-21.30426808 140.23454247 -24.5208082 141.61158222 -28.875 144.5625 C-59.91212976 164.6579583 -96.75654144 170.81556928 -133 165 C-130.27914626 163.58409643 -127.57405005 162.4287501 -124.68359375 161.40625 C-101.07909708 152.87236902 -81.19630798 141.40516416 -63 124 C-62.3296875 123.38125 -61.659375 122.7625 -60.96875 122.125 C-56.75391667 118.11087302 -53.08157663 113.76311591 -49.5 109.1875 C-48.83097656 108.34203613 -48.83097656 108.34203613 -48.1484375 107.47949219 C-45.53612397 104.13481759 -45.53612397 104.13481759 -45 100 C-44.32195312 99.48953125 -43.64390625 98.9790625 -42.9453125 98.453125 C-22.94688692 82.83108618 -9.63773932 59.70573921 -5.48828125 34.65625 C-4.26183619 24.51209428 -4.21144933 14.20564267 -4 4 C-2.68 2.68 -1.36 1.36 0 0 Z " fill="#CFCFFB" transform="translate(456,151)"/>
<path d="M0 0 C11.10232522 8.7066544 18.40076189 19.76336927 20.42578125 33.90234375 C21.8530711 48.13955999 18.28668542 61.63141861 9.42578125 72.90234375 C1.80680347 81.9944295 -8.14813477 88.08495309 -19.76171875 90.58984375 C-36.34979656 91.94952226 -49.98603804 89.66890198 -63.1171875 78.796875 C-74.12581866 68.37832122 -79.592224 55.42608824 -80.01171875 40.21484375 C-79.4368577 25.5199582 -73.88569741 13.02702552 -63.08203125 2.9375 C-44.74018662 -11.94739261 -19.69390733 -13.80032321 0 0 Z " fill="#676CAC" transform="translate(94.57421875,24.09765625)"/>
<path d="M0 0 C1.33479579 1.04119007 2.64633738 2.11356639 3.921875 3.2265625 C5.87853818 4.76880724 5.87853818 4.76880724 9.67578125 4.3984375 C11.49742561 3.23545308 11.49742561 3.23545308 13.23828125 1.6484375 C20.5468954 -4.05255173 28.4589542 -6.34283651 37.6953125 -5.984375 C48.8287785 -4.55438854 58.97803736 1.37296814 66.10546875 9.9921875 C70.37658942 16.53698932 73.24193048 24.58912356 73.67578125 32.3984375 C73.72605469 33.16929687 73.77632812 33.94015625 73.828125 34.734375 C74.5429324 54.23432091 66.97515618 74.32285203 54.05078125 88.8359375 C52.6028151 90.36664458 51.14596099 91.88905297 49.67578125 93.3984375 C48.87140625 94.2646875 48.06703125 95.1309375 47.23828125 96.0234375 C35.7709139 106.65172919 21.41417474 116.73454499 5.12109375 116.3359375 C-9.99871633 114.54130129 -24.25733926 104.23969234 -34.32421875 93.3984375 C-34.989375 92.72683594 -35.65453125 92.05523437 -36.33984375 91.36328125 C-50.17015462 76.89790508 -58.09144433 57.88527515 -58.57421875 37.8359375 C-58.2676448 25.94768092 -55.38912503 14.71255296 -47.32421875 5.5859375 C-34.5180287 -6.12669025 -14.83299597 -10.22105604 0 0 Z M-37.171875 18.66015625 C-43.55585568 27.79090875 -43.31969954 37.85470235 -41.8984375 48.625 C-39.16790459 61.05478784 -32.79680595 72.01445646 -24.32421875 81.3984375 C-23.47730469 82.34976563 -23.47730469 82.34976563 -22.61328125 83.3203125 C-15.12163956 91.26919054 -3.84523223 100.13640232 7.36328125 101.2109375 C21.32273684 100.37819133 32.89492215 88.55798332 41.9140625 79.03515625 C50.11686028 69.55813746 56.87793615 57.04513111 57.67578125 44.3984375 C57.81306641 42.47837891 57.81306641 42.47837891 57.953125 40.51953125 C58.39581429 31.42301495 57.572392 23.80702632 51.21875 16.7890625 C49.55515826 15.23517309 49.55515826 15.23517309 46.67578125 13.3984375 C45.80953125 12.8003125 44.94328125 12.2021875 44.05078125 11.5859375 C38.159666 9.51313769 31.95052272 8.99284071 26.109375 11.5 C21.04037239 14.70779522 17.34607777 18.69292915 13.67578125 23.3984375 C13.67578125 24.0584375 13.67578125 24.7184375 13.67578125 25.3984375 C9.22078125 25.8934375 9.22078125 25.8934375 4.67578125 26.3984375 C3.60650391 25.16867188 3.60650391 25.16867188 2.515625 23.9140625 C1.54867909 22.82507488 0.58120259 21.73655822 -0.38671875 20.6484375 C-0.85271484 20.10960937 -1.31871094 19.57078125 -1.79882812 19.015625 C-6.01111422 14.31620378 -10.1534063 10.99248266 -16.53515625 9.796875 C-25.62395906 9.72955053 -31.33085523 11.5101553 -37.171875 18.66015625 Z " fill="#010001" transform="translate(340.32421875,116.6015625)"/>
<path d="M0 0 C6.31706867 4.5214954 11.4545579 11.2727895 13 19 C14.1408954 28.56476688 11.67325445 36.78213437 6.1328125 44.65234375 C0.9850651 50.31863714 -6.88110447 54.48650578 -14.4921875 55.25 C-21.26789739 55.55030847 -26.14268598 54.3676777 -32 51 C-32.62777344 50.66097656 -33.25554688 50.32195312 -33.90234375 49.97265625 C-40.2809154 46.05060235 -43.28533407 39.66314993 -46.375 33.0625 C-48.12026183 24.51071704 -47.36336634 17.56412519 -43 10 C-42.649375 9.37222656 -42.29875 8.74445312 -41.9375 8.09765625 C-38.13836794 2.06917239 -32.44841928 -1.350756 -26.125 -4.375 C-16.41332564 -6.31733487 -8.69309341 -4.73262965 0 0 Z " fill="#020203" transform="translate(82,40)"/>
<path d="M0 0 C0.60658447 0.09087891 1.21316895 0.18175781 1.83813477 0.27539062 C22.8773699 3.35343684 42.70637918 4.17038278 63.7265625 0.65625 C66.85671843 0.13748441 69.81653997 -0.15592457 73 0 C71.05596397 10.95729399 67.0298407 20.09830506 58 27 C47.95398502 32.91928225 38.73943207 36.02569617 27.05078125 33.31640625 C16.70746026 29.83978093 8.21861091 23.21768239 2.67578125 13.734375 C0.34664957 8.92900858 -0.16372509 5.40292807 0 0 Z " fill="#69BEF6" transform="translate(312,329)"/>
<path d="M0 0 C13.10064195 1.78645118 26.01622461 7.91284903 34.19970703 18.56103516 C39.23242351 25.48572055 43.36854546 32.4931299 45 41 C45.17200928 41.79035645 45.34401855 42.58071289 45.52124023 43.39501953 C46.21083178 48.58752784 46.12206197 53.72887531 46.09765625 58.9609375 C46.0962413 60.10664215 46.09482635 61.2523468 46.09336853 62.43276978 C46.0877858 66.08020678 46.07523641 69.72758165 46.0625 73.375 C46.05748277 75.85286369 46.05292025 78.33072835 46.04882812 80.80859375 C46.03782201 86.87241965 46.0205692 92.9361993 46 99 C41.05 99 36.1 99 31 99 C30.99589111 97.42702148 30.99178223 95.85404297 30.98754883 94.23339844 C30.96564118 88.35123727 30.91123026 82.46973398 30.84741211 76.58789062 C30.82433339 74.05084579 30.8098604 71.51370652 30.80444336 68.9765625 C30.79508005 65.31190829 30.75392473 61.64871888 30.70703125 57.984375 C30.7109639 56.86512634 30.71489655 55.74587769 30.71894836 54.5927124 C30.5214209 43.73027145 27.28314437 34.50652763 19.6796875 26.609375 C15.46996322 22.57587173 11.53144013 20.17263174 6.18359375 17.9296875 C4.08504498 17.03620878 2.04004141 16.0200207 0 15 C0 10.05 0 5.1 0 0 Z " fill="#4A5493" transform="translate(436,37)"/>
<path d="M0 0 C0 4.62 0 9.24 0 14 C-1.0621875 14.47308594 -2.124375 14.94617187 -3.21875 15.43359375 C-14.1014443 20.45558412 -21.82391976 25.68387202 -27.2109375 36.78515625 C-29.86616212 44.23818773 -30.32957057 51.07967705 -30.4140625 58.9375 C-30.43342865 60.05817871 -30.4527948 61.17885742 -30.4727478 62.33349609 C-30.53220132 65.88892163 -30.57879186 69.44438013 -30.625 73 C-30.66321127 75.4205865 -30.7022648 77.84115987 -30.7421875 80.26171875 C-30.83787471 86.17437159 -30.92203171 92.08708804 -31 98 C-35.95 98 -40.9 98 -46 98 C-46.07471375 90.83246076 -46.12886711 83.66515325 -46.16479492 76.49731445 C-46.17978847 74.064006 -46.2001901 71.63072413 -46.22631836 69.19750977 C-46.26311919 65.67978308 -46.2798213 62.16241677 -46.29296875 58.64453125 C-46.30845261 57.57419144 -46.32393646 56.50385162 -46.33988953 55.40107727 C-46.34343305 39.13577223 -41.57615136 26.09789835 -30.34375 14.28515625 C-21.54184955 5.70330332 -12.57885928 0 0 0 Z " fill="#676CAC" transform="translate(261,38)"/>
<path d="M0 0 C8.21485316 0.03862784 14.42211524 3.83846332 20.3359375 9.31640625 C25.98603975 15.64400944 27.48037933 23.02937688 27.4140625 31.296875 C26.82518638 36.24343438 24.66987197 40.07365711 22.0625 44.25 C21.485 45.178125 20.9075 46.10625 20.3125 47.0625 C14.96759102 52.25893929 8.32295566 55.4092267 0.875 55.3125 C-0.02605469 55.30347656 -0.92710937 55.29445312 -1.85546875 55.28515625 C-3.9375 55.25 -3.9375 55.25 -4.9375 54.25 C-4.9375 0.31349206 -4.9375 0.31349206 0 0 Z " fill="#81CFF2" transform="translate(280.9375,14.75)"/>
<path d="M0 0 C12.96576689 12.96576689 1 36.66363661 1 55 C-14.73305955 55 -14.73305955 55 -22.00390625 48.09765625 C-28.8519571 40.64915 -30.51801849 34.71520422 -30.28125 24.6328125 C-29.75965104 17.89549264 -27.61219072 12.67503846 -22.9921875 7.67578125 C-16.1195803 1.89470578 -8.89935743 -0.88993574 0 0 Z " fill="#69BEF7" transform="translate(420,15)"/>
<path d="M0 0 C5.67549553 2.04317839 9.29873721 5.59747441 12 11 C12.40399154 16.25189007 11.88990343 19.56881474 9 24 C5.27262954 27.77829082 2.05584251 29.80605259 -3.3125 30.3125 C-8.83597187 29.84440916 -11.66819116 27.47578817 -15.3125 23.4375 C-18.17183193 19.30735388 -18.4185961 15.93943398 -18 11 C-13.86503929 3.18951866 -8.78720719 -0.58581381 0 0 Z " fill="#495392" transform="translate(68,50)"/>
</svg>
