<?xml version="1.0" encoding="UTF-8"?>
<svg version="1.1" xmlns="http://www.w3.org/2000/svg" width="512" height="512">
<path d="M0 0 C5.26975438 5.783631 7.97137098 11.77055564 10.04296875 19.2421875 C10.94015625 19.2515332 11.83734375 19.26087891 12.76171875 19.27050781 C16.12445214 19.31480001 19.48596222 19.37653412 22.84814453 19.44970703 C24.29692091 19.47774786 25.74584547 19.49904561 27.19482422 19.51318359 C36.50627013 19.60944251 43.91742208 19.75063702 51.28515625 26.20703125 C56.59342941 32.62013638 58.04296875 35.55331483 58.04296875 44.2421875 C63.32296875 44.2421875 68.60296875 44.2421875 74.04296875 44.2421875 C74.37296875 42.2621875 74.70296875 40.2821875 75.04296875 38.2421875 C78.2791422 36.08473854 79.19915748 35.98422941 82.93823242 35.95166016 C83.93324265 35.93890045 84.92825287 35.92614075 85.95341492 35.91299438 C87.02839737 35.91076874 88.10337982 35.90854309 89.2109375 35.90625 C90.31971756 35.8995932 91.42849762 35.8929364 92.57087708 35.88607788 C94.92036275 35.87594416 97.26987726 35.87126108 99.61938477 35.87158203 C103.19922011 35.86722553 106.7778061 35.83095792 110.35742188 35.79296875 C112.64192288 35.78709731 114.92642973 35.78313011 117.2109375 35.78125 C118.2757988 35.76687897 119.3406601 35.75250793 120.43778992 35.73770142 C128.07214349 35.78417698 133.38793606 37.03925816 139.28515625 42.20703125 C139.82398438 42.85800781 140.3628125 43.50898437 140.91796875 44.1796875 C141.47226562 44.82808594 142.0265625 45.47648437 142.59765625 46.14453125 C146.46596503 51.75880643 146.33962522 56.96681644 146.33349609 63.56860352 C146.34021332 64.60654053 146.34693054 65.64447754 146.35385132 66.71386719 C146.37283431 70.14132484 146.37675521 73.56858683 146.37890625 76.99609375 C146.38533221 79.37833232 146.39206041 81.7605701 146.39907837 84.14280701 C146.41105064 89.13355338 146.41475906 94.12423052 146.41357422 99.11499023 C146.41337063 105.51668245 146.44071419 111.91793269 146.47511864 118.31952 C146.49732636 123.23766632 146.5014137 128.15570507 146.50035477 133.07389641 C146.50271838 135.43465643 146.51158438 137.79541909 146.5270195 140.15612984 C146.54656199 143.45279339 146.54088798 146.74848766 146.52880859 150.04516602 C146.54004761 151.02345871 146.55128662 152.0017514 146.56286621 153.00968933 C146.5016893 159.5626695 146.5016893 159.5626695 144.26260376 162.87950134 C142.04296875 164.2421875 142.04296875 164.2421875 138.04296875 164.2421875 C138.04296875 169.5221875 138.04296875 174.8021875 138.04296875 180.2421875 C139.68779236 180.23330505 141.33261597 180.22442261 143.02728271 180.215271 C158.50739284 180.13428092 173.98743734 180.0740279 189.46770859 180.03493881 C197.4268011 180.0143075 205.38573552 179.98617622 213.34472656 179.94042969 C220.28124033 179.90057912 227.21763963 179.87475882 234.15426469 179.86583352 C237.82771617 179.86061568 241.50084013 179.8483406 245.17418671 179.81926727 C249.27349926 179.7870853 253.37224126 179.78622693 257.47167969 179.78808594 C259.30155426 179.76651428 259.30155426 179.76651428 261.168396 179.74450684 C262.28456299 179.75000549 263.40072998 179.75550415 264.55072021 179.76116943 C265.52044643 179.75748226 266.49017265 179.75379509 267.48928452 179.74999619 C270.77912668 180.38407291 271.9682356 181.67011837 274.04296875 184.2421875 C274.55090332 186.21484375 274.55090332 186.21484375 274.56054688 188.3046875 C274.57315552 189.09230469 274.58576416 189.87992188 274.59875488 190.69140625 C274.5866095 191.95404297 274.5866095 191.95404297 274.57421875 193.2421875 C274.57804565 194.11488281 274.58187256 194.98757812 274.58581543 195.88671875 C274.58853365 197.72917842 274.58117869 199.57167674 274.56445312 201.4140625 C274.54304123 204.23264684 274.56425676 207.04868235 274.58984375 209.8671875 C274.58720046 211.65885979 274.58207544 213.45053049 274.57421875 215.2421875 C274.58231567 216.08394531 274.5904126 216.92570313 274.59875488 217.79296875 C274.53952375 221.49292743 274.43730765 223.6307512 272.40039062 226.7890625 C269.342536 228.67393727 267.35905808 228.64723486 263.79296875 228.4921875 C262.7153125 228.45609375 261.63765625 228.42 260.52734375 228.3828125 C259.7075 228.33640625 258.88765625 228.29 258.04296875 228.2421875 C258.06391602 229.03689453 258.08486328 229.83160156 258.10644531 230.65039062 C258.78859892 260.47518245 258.78859892 260.47518245 254.04296875 273.2421875 C253.79627441 273.90992188 253.54958008 274.57765625 253.29541016 275.265625 C249.78137317 284.55010333 245.42095978 292.56475531 239.04296875 300.2421875 C238.34300781 301.09296875 237.64304687 301.94375 236.921875 302.8203125 C229.47697854 311.47284813 220.88416427 318.48601653 211.04296875 324.2421875 C212.16832031 324.95181641 212.16832031 324.95181641 213.31640625 325.67578125 C220.51622185 330.32755128 226.91909093 335.21919729 233.04296875 341.2421875 C233.81511719 342.00144531 234.58726562 342.76070313 235.3828125 343.54296875 C248.6147515 357.36299393 257.21222745 376.70675156 258.54296875 395.8046875 C258.04296875 399.2421875 258.04296875 399.2421875 255.73046875 402.2421875 C253.04296875 404.2421875 253.04296875 404.2421875 250.04296875 404.2421875 C250.04296875 409.5221875 250.04296875 414.8021875 250.04296875 420.2421875 C251.4403125 420.19578125 252.83765625 420.149375 254.27734375 420.1015625 C256.11586404 420.06404168 257.95440745 420.02764185 259.79296875 419.9921875 C260.71335937 419.95867187 261.63375 419.92515625 262.58203125 419.890625 C263.47148437 419.87773437 264.3609375 419.86484375 265.27734375 419.8515625 C266.09428711 419.83061523 266.91123047 419.80966797 267.75292969 419.78808594 C271.09230998 420.45026583 272.11837844 421.42732525 274.04296875 424.2421875 C274.62759968 427.24403309 274.60356317 430.1915356 274.57421875 433.2421875 C274.57804565 434.11488281 274.58187256 434.98757813 274.58581543 435.88671875 C274.58853365 437.72917842 274.58117869 439.57167674 274.56445312 441.4140625 C274.54304123 444.23264684 274.56425676 447.04868235 274.58984375 449.8671875 C274.58720046 451.65885979 274.58207544 453.45053049 274.57421875 455.2421875 C274.58231567 456.08394531 274.5904126 456.92570312 274.59875488 457.79296875 C274.57984192 458.97439453 274.57984192 458.97439453 274.56054688 460.1796875 C274.5573645 460.86933594 274.55418213 461.55898438 274.55090332 462.26953125 C273.77692256 465.27542626 272.49576329 466.34793431 270.04296875 468.2421875 C267.22981321 468.63504251 264.80808612 468.78297199 261.99609375 468.75012207 C260.77013489 468.75948201 260.77013489 468.75948201 259.51940918 468.76903105 C256.77697011 468.78500352 254.03541463 468.7723404 251.29296875 468.75976562 C249.32844524 468.76518486 247.36392579 468.7723064 245.39941406 468.78100586 C240.06060859 468.79926573 234.72211176 468.79216063 229.38330078 468.77948952 C223.80109819 468.76937568 218.21892236 468.7787507 212.63671875 468.78503418 C203.26167039 468.79231529 193.88674799 468.78271068 184.51171875 468.76367188 C173.66664536 468.74190231 162.82187274 468.74895334 151.97680664 468.7709775 C142.67225567 468.78911825 133.36779535 468.79169629 124.06323242 468.78122282 C118.50304228 468.77498062 112.9429936 468.77417226 107.3828125 468.78736877 C102.15590303 468.79890733 96.92938206 468.79093793 91.70251465 468.76779175 C89.78202968 468.762494 87.86151213 468.76403658 85.94104004 468.77284241 C83.32353037 468.78373951 80.70727315 468.77010561 78.08984375 468.75012207 C76.94412903 468.7635064 76.94412903 468.7635064 75.77526855 468.77716112 C72.34393824 468.72618794 70.36736462 468.47311329 67.54003906 466.46044159 C66.04296875 464.2421875 66.04296875 464.2421875 66.04296875 460.2421875 C60.76296875 460.2421875 55.48296875 460.2421875 50.04296875 460.2421875 C49.71296875 462.2221875 49.38296875 464.2021875 49.04296875 466.2421875 C46.00394016 468.26820656 45.43211799 468.49268256 42.02608967 468.49945641 C41.20645215 468.5059053 40.38681464 468.51235419 39.54233962 468.5189985 C38.64216226 468.5159013 37.74198489 468.5128041 36.81452942 468.50961304 C35.37969909 468.51640971 35.37969909 468.51640971 33.91588229 468.52334368 C30.69623307 468.53604916 27.47675167 468.53436334 24.25708008 468.53271484 C21.95437399 468.53869637 19.65166992 468.54550104 17.34896851 468.55307007 C11.08226926 468.5707783 4.81562459 468.57542756 -1.45109725 468.57670164 C-6.67963024 468.57859824 -11.90815044 468.58595326 -17.13667852 468.59304583 C-28.76816968 468.6084149 -40.39963418 468.61438211 -52.03113469 468.61303513 C-52.72928065 468.61295522 -53.42742661 468.6128753 -54.14672852 468.61279297 C-55.19522774 468.61267033 -55.19522774 468.61267033 -56.26490877 468.61254521 C-67.58549186 468.61173284 -78.90594172 468.63085635 -90.22648629 468.6590697 C-101.85219906 468.68781465 -113.47784081 468.70124297 -125.10358983 468.69988215 C-131.62973538 468.69937203 -138.15573031 468.70508253 -144.68184471 468.72623825 C-150.82222812 468.74559871 -156.96231694 468.74575981 -163.10271072 468.73120499 C-165.35532499 468.7291129 -167.60795757 468.73384152 -169.86054039 468.7459259 C-172.93859777 468.76136762 -176.01563814 468.75207654 -179.09367371 468.73666382 C-179.98269746 468.74695094 -180.87172122 468.75723807 -181.7876851 468.76783693 C-188.7152526 468.69131627 -193.95449243 466.87333214 -199.19921875 462.27734375 C-199.73804688 461.62636719 -200.276875 460.97539062 -200.83203125 460.3046875 C-201.38632813 459.65628906 -201.940625 459.00789063 -202.51171875 458.33984375 C-205.64506732 453.79225407 -206.20789157 449.90486361 -206.21430016 444.43358135 C-206.21955927 443.42056359 -206.21955927 443.42056359 -206.22492462 442.38708082 C-206.23424293 440.11968151 -206.22931427 437.85253881 -206.22445679 435.58512878 C-206.22819283 433.94484237 -206.23279417 432.30455774 -206.23818743 430.66427594 C-206.2504385 426.15317085 -206.25015449 421.6421398 -206.24779868 417.13102186 C-206.24739105 412.26723227 -206.25842455 407.4034666 -206.26791382 402.53968811 C-206.28453631 393.00922019 -206.29002393 383.478777 -206.29113857 373.94829579 C-206.29208845 366.20248386 -206.29619572 358.45668009 -206.30253983 350.71087074 C-206.32015559 328.75659634 -206.32937816 306.8023415 -206.32787888 284.84805997 C-206.32779897 283.66416454 -206.32771905 282.4802691 -206.32763672 281.26049805 C-206.32755496 280.07515936 -206.3274732 278.88982067 -206.32738896 277.66856263 C-206.32657595 258.45573472 -206.34571652 239.24298518 -206.37391345 220.03017994 C-206.40262841 200.30900101 -206.41645451 180.58786031 -206.4147259 160.86665994 C-206.41406152 149.79213261 -206.41957477 138.71768745 -206.441082 127.64317894 C-206.45927552 118.21443468 -206.46365617 108.78580982 -206.45006315 99.35705563 C-206.44352429 94.54593813 -206.44344944 89.73504983 -206.46076965 84.92395401 C-206.47646481 80.51897094 -206.47367323 76.11439949 -206.45620139 71.70942668 C-206.45312364 70.11657576 -206.45679302 68.52369439 -206.46792154 66.93087938 C-206.52891497 57.581097 -206.43415375 50.35126964 -199.9921875 43 C-199.34121094 42.46117187 -198.69023437 41.92234375 -198.01953125 41.3671875 C-197.04693359 40.53574219 -197.04693359 40.53574219 -196.0546875 39.6875 C-192.05525807 36.93184099 -188.48806766 35.99212842 -183.66357422 35.9675293 C-182.63255585 35.95799728 -181.60153748 35.94846527 -180.53927612 35.93864441 C-178.88594772 35.94001152 -178.88594772 35.94001152 -177.19921875 35.94140625 C-175.48921188 35.93497856 -175.48921188 35.93497856 -173.74465942 35.92842102 C-171.33905705 35.92268589 -168.93343733 35.92217142 -166.52783203 35.92651367 C-162.83856912 35.92968189 -159.15010179 35.90617476 -155.4609375 35.88085938 C-153.12369893 35.87858722 -150.7864582 35.8778825 -148.44921875 35.87890625 C-147.34295135 35.8696965 -146.23668396 35.86048676 -145.09689331 35.85099792 C-144.07217926 35.85722672 -143.04746521 35.86345551 -141.99169922 35.86987305 C-140.63865189 35.86892891 -140.63865189 35.86892891 -139.25827026 35.8679657 C-136.45491574 36.32384028 -135.60801977 36.95757778 -133.95703125 39.2421875 C-133.46203125 41.2221875 -133.46203125 41.2221875 -132.95703125 43.2421875 C-128.00703125 43.5721875 -123.05703125 43.9021875 -117.95703125 44.2421875 C-117.95703125 41.9321875 -117.95703125 39.6221875 -117.95703125 37.2421875 C-116.16941722 30.65624107 -111.45363577 26.02941966 -105.95703125 22.2421875 C-101.81555849 20.21697202 -98.27237451 19.94133178 -93.6875 19.828125 C-93.00649734 19.80875885 -92.32549469 19.7893927 -91.62385559 19.7694397 C-89.46420532 19.71000618 -87.30450068 19.6634055 -85.14453125 19.6171875 C-83.67380581 19.57897422 -82.20310196 19.53992056 -80.73242188 19.5 C-77.14082336 19.40433567 -73.54906212 19.32017175 -69.95703125 19.2421875 C-69.70526123 18.50323242 -69.45349121 17.76427734 -69.1940918 17.00292969 C-68.851604 16.02485352 -68.50911621 15.04677734 -68.15625 14.0390625 C-67.82197998 13.07323242 -67.48770996 12.10740234 -67.14331055 11.11230469 C-63.46045151 2.2018929 -55.87930505 -4.97831452 -47.21875 -9.04296875 C-30.16500127 -15.62387594 -13.38409846 -12.55499502 0 0 Z " fill="#DAE8ED" transform="translate(221.95703125,27.7578125)"/>
<path d="M0 0 C5.26975438 5.783631 7.97137098 11.77055564 10.04296875 19.2421875 C10.94015625 19.2515332 11.83734375 19.26087891 12.76171875 19.27050781 C16.12445214 19.31480001 19.48596222 19.37653412 22.84814453 19.44970703 C24.29692091 19.47774786 25.74584547 19.49904561 27.19482422 19.51318359 C36.50627013 19.60944251 43.91742208 19.75063702 51.28515625 26.20703125 C56.59342941 32.62013638 58.04296875 35.55331483 58.04296875 44.2421875 C63.32296875 44.2421875 68.60296875 44.2421875 74.04296875 44.2421875 C74.37296875 42.2621875 74.70296875 40.2821875 75.04296875 38.2421875 C78.2791422 36.08473854 79.19915748 35.98422941 82.93823242 35.95166016 C83.93324265 35.93890045 84.92825287 35.92614075 85.95341492 35.91299438 C87.02839737 35.91076874 88.10337982 35.90854309 89.2109375 35.90625 C90.31971756 35.8995932 91.42849762 35.8929364 92.57087708 35.88607788 C94.92036275 35.87594416 97.26987726 35.87126108 99.61938477 35.87158203 C103.19922011 35.86722553 106.7778061 35.83095792 110.35742188 35.79296875 C112.64192288 35.78709731 114.92642973 35.78313011 117.2109375 35.78125 C118.2757988 35.76687897 119.3406601 35.75250793 120.43778992 35.73770142 C128.07214349 35.78417698 133.38793606 37.03925816 139.28515625 42.20703125 C139.82398438 42.85800781 140.3628125 43.50898437 140.91796875 44.1796875 C141.47226562 44.82808594 142.0265625 45.47648437 142.59765625 46.14453125 C146.46596503 51.75880643 146.33962522 56.96681644 146.33349609 63.56860352 C146.34021332 64.60654053 146.34693054 65.64447754 146.35385132 66.71386719 C146.37283431 70.14132484 146.37675521 73.56858683 146.37890625 76.99609375 C146.38533221 79.37833232 146.39206041 81.7605701 146.39907837 84.14280701 C146.41105064 89.13355338 146.41475906 94.12423052 146.41357422 99.11499023 C146.41337063 105.51668245 146.44071419 111.91793269 146.47511864 118.31952 C146.49732636 123.23766632 146.5014137 128.15570507 146.50035477 133.07389641 C146.50271838 135.43465643 146.51158438 137.79541909 146.5270195 140.15612984 C146.54656199 143.45279339 146.54088798 146.74848766 146.52880859 150.04516602 C146.54004761 151.02345871 146.55128662 152.0017514 146.56286621 153.00968933 C146.5016893 159.5626695 146.5016893 159.5626695 144.26260376 162.87950134 C142.04296875 164.2421875 142.04296875 164.2421875 138.04296875 164.2421875 C138.04296875 169.5221875 138.04296875 174.8021875 138.04296875 180.2421875 C139.68779236 180.23330505 141.33261597 180.22442261 143.02728271 180.215271 C158.50739284 180.13428092 173.98743734 180.0740279 189.46770859 180.03493881 C197.4268011 180.0143075 205.38573552 179.98617622 213.34472656 179.94042969 C220.28124033 179.90057912 227.21763963 179.87475882 234.15426469 179.86583352 C237.82771617 179.86061568 241.50084013 179.8483406 245.17418671 179.81926727 C249.27349926 179.7870853 253.37224126 179.78622693 257.47167969 179.78808594 C259.30155426 179.76651428 259.30155426 179.76651428 261.168396 179.74450684 C262.28456299 179.75000549 263.40072998 179.75550415 264.55072021 179.76116943 C265.52044643 179.75748226 266.49017265 179.75379509 267.48928452 179.74999619 C270.77912668 180.38407291 271.9682356 181.67011837 274.04296875 184.2421875 C274.55090332 186.21484375 274.55090332 186.21484375 274.56054688 188.3046875 C274.57315552 189.09230469 274.58576416 189.87992188 274.59875488 190.69140625 C274.5866095 191.95404297 274.5866095 191.95404297 274.57421875 193.2421875 C274.57804565 194.11488281 274.58187256 194.98757812 274.58581543 195.88671875 C274.58853365 197.72917842 274.58117869 199.57167674 274.56445312 201.4140625 C274.54304123 204.23264684 274.56425676 207.04868235 274.58984375 209.8671875 C274.58720046 211.65885979 274.58207544 213.45053049 274.57421875 215.2421875 C274.58231567 216.08394531 274.5904126 216.92570313 274.59875488 217.79296875 C274.53952375 221.49292743 274.43730765 223.6307512 272.40039062 226.7890625 C269.342536 228.67393727 267.35905808 228.64723486 263.79296875 228.4921875 C262.7153125 228.45609375 261.63765625 228.42 260.52734375 228.3828125 C259.7075 228.33640625 258.88765625 228.29 258.04296875 228.2421875 C258.06391602 229.03689453 258.08486328 229.83160156 258.10644531 230.65039062 C258.78859892 260.47518245 258.78859892 260.47518245 254.04296875 273.2421875 C253.79627441 273.90992188 253.54958008 274.57765625 253.29541016 275.265625 C249.78137317 284.55010333 245.42095978 292.56475531 239.04296875 300.2421875 C238.34300781 301.09296875 237.64304687 301.94375 236.921875 302.8203125 C229.47697854 311.47284813 220.88416427 318.48601653 211.04296875 324.2421875 C212.16832031 324.95181641 212.16832031 324.95181641 213.31640625 325.67578125 C220.51622185 330.32755128 226.91909093 335.21919729 233.04296875 341.2421875 C233.81511719 342.00144531 234.58726562 342.76070313 235.3828125 343.54296875 C248.6147515 357.36299393 257.21222745 376.70675156 258.54296875 395.8046875 C258.04296875 399.2421875 258.04296875 399.2421875 255.91796875 402.2421875 C253.04296875 404.2421875 253.04296875 404.2421875 250.04296875 404.8671875 C245.95627955 404.01579392 244.68237351 402.45261733 242.04296875 399.2421875 C241.17569346 396.47774752 240.55048119 394.00154482 240.04296875 391.1796875 C235.91501062 371.5172393 225.65781884 354.70679324 208.66796875 343.4296875 C201.16997203 338.96302374 193.28219919 335.14275059 184.91796875 332.6171875 C182.28924968 331.78275007 181.09257284 331.28577897 178.98046875 329.4296875 C177.67846266 326.39167329 177.50808891 324.51832654 178.04296875 321.2421875 C181.78066834 316.66992522 185.37651806 315.01925161 190.79296875 313.2421875 C209.96096876 306.47560815 224.31314686 294.1495088 234.04296875 276.2421875 C239.81464141 264.15249453 241.06458556 252.53826625 241.58984375 239.328125 C241.65631104 237.72747192 241.65631104 237.72747192 241.72412109 236.09448242 C241.83250615 233.47712967 241.93872821 230.85970804 242.04296875 228.2421875 C241.1653677 228.24495288 240.28776665 228.24771826 239.38357162 228.25056744 C218.04350995 228.31677977 196.70346594 228.36644493 175.36332321 228.39762402 C165.04344751 228.4131022 154.72364032 228.43420991 144.40380859 228.46850586 C135.41052463 228.49837908 126.41729027 228.51775558 117.42395806 228.52445298 C112.66070685 228.52836877 107.89759757 228.53759115 103.13439178 228.55937767 C98.65289032 228.57971001 94.17158952 228.5860279 89.69004631 228.58151054 C88.04368182 228.5823372 86.39731076 228.58832223 84.7509861 228.59980392 C82.50567884 228.61469748 80.26113242 228.61115305 78.01580811 228.60295105 C76.75848248 228.60571643 75.50115685 228.60848181 74.20573044 228.61133099 C70.79844065 228.21364727 69.41911969 227.67421793 67.04296875 225.2421875 C65.08474921 219.36752887 65.73590589 212.64686579 65.69287109 206.48242188 C65.67630233 204.74237705 65.64899986 203.00240055 65.61083984 201.26269531 C65.55599994 198.74768964 65.53419015 196.23427343 65.51953125 193.71875 C65.48552719 192.55758163 65.48552719 192.55758163 65.45083618 191.37295532 C65.46575795 187.54723418 65.91222863 185.43595543 68.06665039 182.24291992 C71.82971054 179.71332613 74.80978105 179.60119339 79.1875 179.75390625 C80.34218025 179.76451836 80.34218025 179.76451836 81.52018738 179.77534485 C83.96629178 179.80321825 86.41006259 179.86593613 88.85546875 179.9296875 C90.51884702 179.95477982 92.18226137 179.97759137 93.84570312 179.99804688 C97.91306895 180.04876216 101.97542403 180.14660551 106.04296875 180.2421875 C106.04296875 175.2921875 106.04296875 170.3421875 106.04296875 165.2421875 C104.72296875 164.9121875 103.40296875 164.5821875 102.04296875 164.2421875 C99.8213501 162.644104 99.8213501 162.644104 98.04296875 160.2421875 C97.66841894 157.62100421 97.53485679 155.42648888 97.58886719 152.81152344 C97.58828308 152.06966797 97.58769897 151.3278125 97.58709717 150.56347656 C97.5898785 148.11735848 97.62097089 145.67246703 97.65234375 143.2265625 C97.65980601 141.52834743 97.66549902 139.83012374 97.66949463 138.13189697 C97.68475224 133.6666274 97.72403486 129.20187997 97.76831055 124.73681641 C97.80926068 120.17878279 97.82750508 115.62066463 97.84765625 111.0625 C97.89052922 102.12216669 97.9587819 93.18222055 98.04296875 84.2421875 C97.45805664 84.26837158 96.87314453 84.29455566 96.27050781 84.3215332 C93.61160309 84.42568506 90.95312731 84.49056522 88.29296875 84.5546875 C87.37257813 84.59658203 86.4521875 84.63847656 85.50390625 84.68164062 C78.68054294 84.80525228 78.68054294 84.80525228 75.40234375 81.91015625 C74.04296875 79.2421875 74.04296875 79.2421875 74.04296875 76.2421875 C68.76296875 76.2421875 63.48296875 76.2421875 58.04296875 76.2421875 C57.98109375 77.3971875 57.91921875 78.5521875 57.85546875 79.7421875 C57.05797723 86.00028067 53.82603597 90.8836568 49.16796875 95.0546875 C41.32780138 100.54280466 35.02059424 100.67978852 25.61547852 100.64624023 C24.25797974 100.65194945 22.90048575 100.65891584 21.54299927 100.66703796 C17.87143641 100.68492375 14.20011314 100.68380972 10.52851987 100.67809558 C7.45703962 100.67499708 4.38560495 100.68110351 1.3141312 100.68713433 C-5.93490516 100.70116288 -13.18382363 100.6996322 -20.43286133 100.68823242 C-27.89756103 100.6767525 -35.3619014 100.69082834 -42.82655376 100.7176289 C-49.24887311 100.73981909 -55.67107993 100.74641583 -62.09343487 100.74055248 C-65.92334895 100.73718965 -69.75303272 100.73955288 -73.58291435 100.75680351 C-77.18560084 100.77232383 -80.7877569 100.76826159 -84.39042282 100.74949837 C-86.33305956 100.74408348 -88.2757204 100.75828782 -90.2183075 100.77319336 C-98.33037816 100.70503555 -103.84528485 99.77173972 -110.1640625 94.34765625 C-115.08631095 88.46730591 -117.95703125 84.16981239 -117.95703125 76.2421875 C-123.23703125 76.2421875 -128.51703125 76.2421875 -133.95703125 76.2421875 C-134.28703125 77.8921875 -134.61703125 79.5421875 -134.95703125 81.2421875 C-135.94703125 82.2321875 -136.93703125 83.2221875 -137.95703125 84.2421875 C-144.55703125 84.2421875 -151.15703125 84.2421875 -157.95703125 84.2421875 C-157.95703125 195.1221875 -157.95703125 306.0021875 -157.95703125 420.2421875 C-91.00042428 420.08375003 -91.00042428 420.08375003 -24.04394531 419.88183594 C-11.11279297 419.86376953 -11.11279297 419.86376953 -5.06488037 419.8604126 C-0.82830478 419.8566763 3.40807163 419.84164827 7.64459229 419.81988525 C13.04308565 419.79251907 18.44128793 419.78420971 23.83984423 419.7898984 C25.8245063 419.78870827 27.80917819 419.78073474 29.7937808 419.76532698 C32.46866645 419.7455194 35.14241161 419.75019319 37.81732178 419.76116943 C38.59919987 419.74951878 39.38107796 419.73786812 40.18664932 419.72586441 C43.65930119 419.76433739 45.68932073 419.99179363 48.55707169 422.02225113 C50.04296875 424.2421875 50.04296875 424.2421875 50.04296875 428.2421875 C55.32296875 428.2421875 60.60296875 428.2421875 66.04296875 428.2421875 C66.37296875 426.5921875 66.70296875 424.9421875 67.04296875 423.2421875 C69.29446509 420.86159159 70.56998024 420.29173239 73.83984375 419.94921875 C74.814375 419.98402344 75.78890625 420.01882813 76.79296875 420.0546875 C77.7778125 420.08175781 78.76265625 420.10882813 79.77734375 420.13671875 C80.525 420.17152344 81.27265625 420.20632813 82.04296875 420.2421875 C82.0272583 419.49235596 82.01154785 418.74252441 81.99536133 417.9699707 C81.93213314 414.49828964 81.8937031 411.02673037 81.85546875 407.5546875 C81.81776367 405.78641602 81.81776367 405.78641602 81.77929688 403.98242188 C81.71088973 395.65955199 82.81661352 388.25195599 85.04296875 380.2421875 C85.32253418 379.2210083 85.60209961 378.1998291 85.89013672 377.14770508 C90.0431744 362.63553669 98.33941585 350.6501481 109.04296875 340.2421875 C109.80609375 339.49324219 110.56921875 338.74429687 111.35546875 337.97265625 C124.9865634 325.2421875 124.9865634 325.2421875 131.04296875 325.2421875 C131.04296875 324.5821875 131.04296875 323.9221875 131.04296875 323.2421875 C130.30433594 322.96503906 129.56570313 322.68789063 128.8046875 322.40234375 C111.8721853 315.28925584 97.82023644 298.5017443 90.04296875 282.2421875 C85.65141838 271.4301638 81.61126061 260.04143736 83.04296875 248.2421875 C85.10546875 245.4296875 85.10546875 245.4296875 88.04296875 244.2421875 C91.426273 244.30052033 93.86904354 244.40125069 96.66796875 246.40625 C98.60802138 248.99666118 98.86374341 251.37688896 99.41796875 254.5546875 C103.62571266 275.44313048 113.39219019 293.05496863 131.41796875 305.0546875 C138.91596547 309.52135126 146.80373831 313.34162441 155.16796875 315.8671875 C157.79668782 316.70162493 158.99336466 317.19859603 161.10546875 319.0546875 C162.37026626 322.0058817 162.4406255 324.06093353 162.04296875 327.2421875 C160.38877389 330.32687827 159.26198589 331.15669031 155.9609375 332.4453125 C154.72988281 332.79078125 153.49882812 333.13625 152.23046875 333.4921875 C139.60427895 337.35731629 129.36460758 343.8255914 120.04296875 353.2421875 C119.27339844 353.97824219 118.50382812 354.71429688 117.7109375 355.47265625 C103.57685632 369.84752246 99.0502577 388.68599266 98.4453125 408.27734375 C98.40466675 409.43109497 98.364021 410.58484619 98.32214355 411.77355957 C98.22349764 414.59629417 98.13057757 417.41909244 98.04296875 420.2421875 C98.92572353 420.23850033 99.80847832 420.23481316 100.71798325 420.23101425 C122.18320673 420.14273176 143.64839899 420.07651128 165.11376572 420.03493881 C175.49420434 420.01430104 185.87452189 419.98615724 196.25488281 419.94042969 C205.30090484 419.90059911 214.3468392 419.87476353 223.39294648 419.86583352 C228.18419129 419.86061236 232.97518526 419.84831557 237.76634979 419.81926727 C242.27415674 419.79215785 246.78160903 419.78373341 251.28948975 419.78975677 C252.94553809 419.78865453 254.60159804 419.78067393 256.25757599 419.7653656 C258.51621065 419.74550682 260.77350072 419.75023211 263.03216553 419.76116943 C264.2968655 419.75748226 265.56156548 419.75379509 266.86458969 419.74999619 C270.60751977 420.32961166 271.77838529 421.26755444 274.04296875 424.2421875 C274.55090332 426.21484375 274.55090332 426.21484375 274.56054688 428.3046875 C274.57945984 429.48611328 274.57945984 429.48611328 274.59875488 430.69140625 C274.5866095 431.95404297 274.5866095 431.95404297 274.57421875 433.2421875 C274.57804565 434.11488281 274.58187256 434.98757813 274.58581543 435.88671875 C274.58853365 437.72917842 274.58117869 439.57167674 274.56445312 441.4140625 C274.54304123 444.23264684 274.56425676 447.04868235 274.58984375 449.8671875 C274.58720046 451.65885979 274.58207544 453.45053049 274.57421875 455.2421875 C274.58231567 456.08394531 274.5904126 456.92570312 274.59875488 457.79296875 C274.57984192 458.97439453 274.57984192 458.97439453 274.56054688 460.1796875 C274.5573645 460.86933594 274.55418213 461.55898438 274.55090332 462.26953125 C273.77692256 465.27542626 272.49576329 466.34793431 270.04296875 468.2421875 C267.22981321 468.63504251 264.80808612 468.78297199 261.99609375 468.75012207 C260.77013489 468.75948201 260.77013489 468.75948201 259.51940918 468.76903105 C256.77697011 468.78500352 254.03541463 468.7723404 251.29296875 468.75976562 C249.32844524 468.76518486 247.36392579 468.7723064 245.39941406 468.78100586 C240.06060859 468.79926573 234.72211176 468.79216063 229.38330078 468.77948952 C223.80109819 468.76937568 218.21892236 468.7787507 212.63671875 468.78503418 C203.26167039 468.79231529 193.88674799 468.78271068 184.51171875 468.76367188 C173.66664536 468.74190231 162.82187274 468.74895334 151.97680664 468.7709775 C142.67225567 468.78911825 133.36779535 468.79169629 124.06323242 468.78122282 C118.50304228 468.77498062 112.9429936 468.77417226 107.3828125 468.78736877 C102.15590303 468.79890733 96.92938206 468.79093793 91.70251465 468.76779175 C89.78202968 468.762494 87.86151213 468.76403658 85.94104004 468.77284241 C83.32353037 468.78373951 80.70727315 468.77010561 78.08984375 468.75012207 C76.94412903 468.7635064 76.94412903 468.7635064 75.77526855 468.77716112 C72.34393824 468.72618794 70.36736462 468.47311329 67.54003906 466.46044159 C66.04296875 464.2421875 66.04296875 464.2421875 66.04296875 460.2421875 C60.76296875 460.2421875 55.48296875 460.2421875 50.04296875 460.2421875 C49.71296875 462.2221875 49.38296875 464.2021875 49.04296875 466.2421875 C46.00394016 468.26820656 45.43211799 468.49268256 42.02608967 468.49945641 C41.20645215 468.5059053 40.38681464 468.51235419 39.54233962 468.5189985 C38.64216226 468.5159013 37.74198489 468.5128041 36.81452942 468.50961304 C35.37969909 468.51640971 35.37969909 468.51640971 33.91588229 468.52334368 C30.69623307 468.53604916 27.47675167 468.53436334 24.25708008 468.53271484 C21.95437399 468.53869637 19.65166992 468.54550104 17.34896851 468.55307007 C11.08226926 468.5707783 4.81562459 468.57542756 -1.45109725 468.57670164 C-6.67963024 468.57859824 -11.90815044 468.58595326 -17.13667852 468.59304583 C-28.76816968 468.6084149 -40.39963418 468.61438211 -52.03113469 468.61303513 C-52.72928065 468.61295522 -53.42742661 468.6128753 -54.14672852 468.61279297 C-55.19522774 468.61267033 -55.19522774 468.61267033 -56.26490877 468.61254521 C-67.58549186 468.61173284 -78.90594172 468.63085635 -90.22648629 468.6590697 C-101.85219906 468.68781465 -113.47784081 468.70124297 -125.10358983 468.69988215 C-131.62973538 468.69937203 -138.15573031 468.70508253 -144.68184471 468.72623825 C-150.82222812 468.74559871 -156.96231694 468.74575981 -163.10271072 468.73120499 C-165.35532499 468.7291129 -167.60795757 468.73384152 -169.86054039 468.7459259 C-172.93859777 468.76136762 -176.01563814 468.75207654 -179.09367371 468.73666382 C-179.98269746 468.74695094 -180.87172122 468.75723807 -181.7876851 468.76783693 C-188.7152526 468.69131627 -193.95449243 466.87333214 -199.19921875 462.27734375 C-199.73804688 461.62636719 -200.276875 460.97539062 -200.83203125 460.3046875 C-201.38632813 459.65628906 -201.940625 459.00789063 -202.51171875 458.33984375 C-205.64506732 453.79225407 -206.20789157 449.90486361 -206.21430016 444.43358135 C-206.21955927 443.42056359 -206.21955927 443.42056359 -206.22492462 442.38708082 C-206.23424293 440.11968151 -206.22931427 437.85253881 -206.22445679 435.58512878 C-206.22819283 433.94484237 -206.23279417 432.30455774 -206.23818743 430.66427594 C-206.2504385 426.15317085 -206.25015449 421.6421398 -206.24779868 417.13102186 C-206.24739105 412.26723227 -206.25842455 407.4034666 -206.26791382 402.53968811 C-206.28453631 393.00922019 -206.29002393 383.478777 -206.29113857 373.94829579 C-206.29208845 366.20248386 -206.29619572 358.45668009 -206.30253983 350.71087074 C-206.32015559 328.75659634 -206.32937816 306.8023415 -206.32787888 284.84805997 C-206.32779897 283.66416454 -206.32771905 282.4802691 -206.32763672 281.26049805 C-206.32755496 280.07515936 -206.3274732 278.88982067 -206.32738896 277.66856263 C-206.32657595 258.45573472 -206.34571652 239.24298518 -206.37391345 220.03017994 C-206.40262841 200.30900101 -206.41645451 180.58786031 -206.4147259 160.86665994 C-206.41406152 149.79213261 -206.41957477 138.71768745 -206.441082 127.64317894 C-206.45927552 118.21443468 -206.46365617 108.78580982 -206.45006315 99.35705563 C-206.44352429 94.54593813 -206.44344944 89.73504983 -206.46076965 84.92395401 C-206.47646481 80.51897094 -206.47367323 76.11439949 -206.45620139 71.70942668 C-206.45312364 70.11657576 -206.45679302 68.52369439 -206.46792154 66.93087938 C-206.52891497 57.581097 -206.43415375 50.35126964 -199.9921875 43 C-199.34121094 42.46117187 -198.69023437 41.92234375 -198.01953125 41.3671875 C-197.04693359 40.53574219 -197.04693359 40.53574219 -196.0546875 39.6875 C-192.05525807 36.93184099 -188.48806766 35.99212842 -183.66357422 35.9675293 C-182.63255585 35.95799728 -181.60153748 35.94846527 -180.53927612 35.93864441 C-178.88594772 35.94001152 -178.88594772 35.94001152 -177.19921875 35.94140625 C-175.48921188 35.93497856 -175.48921188 35.93497856 -173.74465942 35.92842102 C-171.33905705 35.92268589 -168.93343733 35.92217142 -166.52783203 35.92651367 C-162.83856912 35.92968189 -159.15010179 35.90617476 -155.4609375 35.88085938 C-153.12369893 35.87858722 -150.7864582 35.8778825 -148.44921875 35.87890625 C-147.34295135 35.8696965 -146.23668396 35.86048676 -145.09689331 35.85099792 C-144.07217926 35.85722672 -143.04746521 35.86345551 -141.99169922 35.86987305 C-140.63865189 35.86892891 -140.63865189 35.86892891 -139.25827026 35.8679657 C-136.45491574 36.32384028 -135.60801977 36.95757778 -133.95703125 39.2421875 C-133.46203125 41.2221875 -133.46203125 41.2221875 -132.95703125 43.2421875 C-128.00703125 43.5721875 -123.05703125 43.9021875 -117.95703125 44.2421875 C-117.95703125 41.9321875 -117.95703125 39.6221875 -117.95703125 37.2421875 C-116.16941722 30.65624107 -111.45363577 26.02941966 -105.95703125 22.2421875 C-101.81555849 20.21697202 -98.27237451 19.94133178 -93.6875 19.828125 C-93.00649734 19.80875885 -92.32549469 19.7893927 -91.62385559 19.7694397 C-89.46420532 19.71000618 -87.30450068 19.6634055 -85.14453125 19.6171875 C-83.67380581 19.57897422 -82.20310196 19.53992056 -80.73242188 19.5 C-77.14082336 19.40433567 -73.54906212 19.32017175 -69.95703125 19.2421875 C-69.70526123 18.50323242 -69.45349121 17.76427734 -69.1940918 17.00292969 C-68.851604 16.02485352 -68.50911621 15.04677734 -68.15625 14.0390625 C-67.82197998 13.07323242 -67.48770996 12.10740234 -67.14331055 11.11230469 C-63.46045151 2.2018929 -55.87930505 -4.97831452 -47.21875 -9.04296875 C-30.16500127 -15.62387594 -13.38409846 -12.55499502 0 0 Z " fill="#32B8EE" transform="translate(221.95703125,27.7578125)"/>
<path d="M0 0 C50.16 0 100.32 0 152 0 C152 29.69283968 149.44340638 47.86708217 129.125 69.3125 C118.95513445 79.12084019 106.50811263 84.69751298 93.21484375 89.0078125 C90.67595728 89.90911909 90.67595728 89.90911909 89 93 C88.49989476 95.95769177 88.49989476 95.95769177 89 99 C91.97706818 102.75899693 94.92714017 103.90461242 99.4375 105.3125 C112.52689195 109.80222926 122.35301228 116.23918352 132 126 C132.66773438 126.65742188 133.33546875 127.31484375 134.0234375 127.9921875 C143.99873617 138.50913135 148.69680754 151.2777933 151.69140625 165.21875 C151.91699219 166.1984375 152.14257812 167.178125 152.375 168.1875 C152.54773438 169.04730469 152.72046875 169.90710938 152.8984375 170.79296875 C154.13158323 173.81649964 154.13158323 173.81649964 160 176 C160 181.28 160 186.56 160 192 C109.84 192 59.68 192 8 192 C8 166.87508821 9.07820689 145.3841305 26.86816406 127.0234375 C28.23077016 125.6673869 29.61497096 124.33314034 31 123 C31.72960937 122.26265625 32.45921875 121.5253125 33.2109375 120.765625 C42.59851696 111.76192425 53.67906172 106.6503111 66.015625 103.10546875 C69.26928213 102.23260479 69.26928213 102.23260479 71 99 C71.50010524 96.04230823 71.50010524 96.04230823 71 93 C68.22531093 89.58450515 65.88350083 88.38750507 61.6875 87.25 C48.19526545 82.99361906 37.80763442 76.0747107 28 66 C27.32324219 65.32066406 26.64648438 64.64132812 25.94921875 63.94140625 C15.28435656 52.56712972 9.35259784 37.54403527 7.65234375 22.171875 C6.78814861 19.2946744 5.54464896 18.51278213 3 17 C2.01 16.67 1.02 16.34 0 16 C0 10.72 0 5.44 0 0 Z " fill="#FBE54B" transform="translate(312,256)"/>
<path d="M0 0 C0.81407678 -0.00709439 1.62815356 -0.01418877 2.46689934 -0.02149814 C5.19260191 -0.03908947 7.91688063 -0.02096823 10.64256287 -0.00291443 C12.59738311 -0.00805278 14.55219873 -0.01533342 16.50700378 -0.02459717 C21.81483238 -0.04312878 27.12215938 -0.03016182 32.42996716 -0.01050687 C37.98146489 0.00586399 43.53293045 -0.00293098 49.08444214 -0.00802612 C58.40646897 -0.01254844 67.72829523 0.00333237 77.05027771 0.03126526 C87.83346518 0.06332709 98.61629107 0.06329819 109.39950424 0.04605049 C119.76698191 0.03019748 130.13432679 0.03691048 140.50179863 0.0539875 C144.91681889 0.06086673 149.33173299 0.05981663 153.74675179 0.05244255 C158.94332325 0.04479223 164.13948221 0.05686496 169.33598328 0.08429146 C171.2451753 0.09118917 173.15440575 0.09125848 175.06359673 0.08407593 C177.66574522 0.07541304 180.26661132 0.09128271 182.86865234 0.11352539 C183.62788909 0.10528462 184.38712584 0.09704386 185.16936976 0.08855337 C188.66913749 0.14394035 190.53224809 0.36635085 193.33922482 2.53706455 C195.02479257 4.83839006 195.37542555 5.87630808 195.38841248 8.69068909 C195.40102112 9.47830627 195.41362976 10.26592346 195.42662048 11.07740784 C195.41852356 11.91916565 195.41042664 12.76092346 195.40208435 13.62818909 C195.40591125 14.5008844 195.40973816 15.37357971 195.41368103 16.27272034 C195.41639925 18.11518001 195.40904429 19.95767833 195.39231873 21.80006409 C195.37090683 24.61864842 195.39212236 27.43468393 195.41770935 30.25318909 C195.41506606 32.04486137 195.40994104 33.83653208 195.40208435 35.62818909 C195.41018127 36.4699469 195.4182782 37.31170471 195.42662048 38.17897034 C195.36738935 41.87892902 195.26517325 44.01675279 193.22825623 47.17506409 C190.1704016 49.05993885 188.18692368 49.03323645 184.62083435 48.87818909 C183.5431781 48.84209534 182.46552185 48.80600159 181.35520935 48.76881409 C180.5353656 48.72240784 179.71552185 48.67600159 178.87083435 48.62818909 C178.89178162 49.42289612 178.91272888 50.21760315 178.93431091 51.03639221 C179.61646452 80.86118403 179.61646452 80.86118403 174.87083435 93.62818909 C174.62414001 94.29592346 174.37744568 94.96365784 174.12327576 95.65162659 C170.60923877 104.93610492 166.24882538 112.9507569 159.87083435 120.62818909 C159.17087341 121.47897034 158.47091248 122.32975159 157.7497406 123.20631409 C150.30484414 131.85884972 141.71202988 138.87201812 131.87083435 144.62818909 C132.62106873 145.10127502 133.3713031 145.57436096 134.14427185 146.06178284 C141.34408745 150.71355287 147.74695653 155.60519887 153.87083435 161.62818909 C154.64298279 162.3874469 155.41513123 163.14670471 156.2106781 163.92897034 C169.4426171 177.74899552 178.04009305 197.09275314 179.37083435 216.19068909 C178.87083435 219.62818909 178.87083435 219.62818909 176.74583435 222.62818909 C173.87083435 224.62818909 173.87083435 224.62818909 170.87083435 225.25318909 C166.78414515 224.4017955 165.51023911 222.83861892 162.87083435 219.62818909 C162.00355906 216.86374911 161.37834679 214.38754641 160.87083435 211.56568909 C156.74287622 191.90324088 146.48568444 175.09279482 129.49583435 163.81568909 C121.99783763 159.34902532 114.11006479 155.52875217 105.74583435 153.00318909 C103.11711528 152.16875166 101.92043844 151.67178056 99.80833435 149.81568909 C98.50632826 146.77767488 98.33595451 144.90432813 98.87083435 141.62818909 C102.60853394 137.0559268 106.20438366 135.4052532 111.62083435 133.62818909 C130.78883436 126.86160974 145.14101246 114.53551039 154.87083435 96.62818909 C160.64250701 84.53849611 161.89245116 72.92426784 162.41770935 59.71412659 C162.46202087 58.64702454 162.5063324 57.57992249 162.55198669 56.48048401 C162.66037176 53.86313125 162.76659381 51.24570963 162.87083435 48.62818909 C161.9932333 48.63095447 161.11563225 48.63371984 160.21143723 48.63656902 C138.87137555 48.70278135 117.53133154 48.75244652 96.19118881 48.7836256 C85.87131312 48.79910379 75.55150592 48.82021149 65.23167419 48.85450745 C56.23839023 48.88438067 47.24515587 48.90375716 38.25182366 48.91045457 C33.48857245 48.91437035 28.72546317 48.92359273 23.96225739 48.94537926 C19.48075592 48.9657116 14.99945512 48.97202949 10.51791191 48.96751213 C8.87154742 48.96833879 7.22517636 48.97432382 5.5788517 48.98580551 C3.33354444 49.00069906 1.08899802 48.99715463 -1.15632629 48.98895264 C-3.04231474 48.99310071 -3.04231474 48.99310071 -4.96640396 48.99733257 C-8.37369375 48.59964885 -9.75301471 48.06021952 -12.12916565 45.62818909 C-14.08738519 39.75353045 -13.43622851 33.03286738 -13.47926331 26.86842346 C-13.49583207 25.12837864 -13.52313454 23.38840214 -13.56129456 21.6486969 C-13.61613446 19.13369122 -13.63794425 16.62027501 -13.65260315 14.10475159 C-13.67527252 13.33063934 -13.69794189 12.5565271 -13.72129822 11.75895691 C-13.70665591 8.004886 -13.37293119 5.95332904 -11.10077 2.92266941 C-7.37112269 0.04287743 -4.52559844 -0.07075737 0 0 Z " fill="#010100" transform="translate(301.12916564941406,207.37181091308594)"/>
<path d="M0 0 C3.43150918 2.4581484 3.67375079 5.29170097 4.375 9.3125 C8.58274391 30.20094298 18.34922144 47.81278113 36.375 59.8125 C43.87299672 64.27916376 51.76076956 68.09943691 60.125 70.625 C62.75371907 71.45943743 63.95039591 71.95640853 66.0625 73.8125 C67.32729751 76.7636942 67.39765675 78.81874603 67 82 C65.34580514 85.08469077 64.21901714 85.91450281 60.91796875 87.203125 C59.68691406 87.54859375 58.45585937 87.8940625 57.1875 88.25 C44.5613102 92.11512879 34.32163883 98.5834039 25 108 C24.23042969 108.73605469 23.46085937 109.47210938 22.66796875 110.23046875 C8.53388757 124.60533496 4.00728895 143.44380516 3.40234375 163.03515625 C3.361698 164.18890747 3.32105225 165.34265869 3.2791748 166.53137207 C3.18052889 169.35410667 3.08760882 172.17690494 3 175 C4.32413218 174.99446924 4.32413218 174.99446924 5.6750145 174.98882675 C27.14023798 174.90054426 48.60543024 174.83432378 70.07079697 174.79275131 C80.45123559 174.77211354 90.83155314 174.74396974 101.21191406 174.69824219 C110.25793609 174.65841161 119.30387045 174.63257603 128.34997773 174.62364602 C133.14122254 174.61842486 137.93221651 174.60612807 142.72338104 174.57707977 C147.23118799 174.54997035 151.73864028 174.54154591 156.246521 174.54756927 C157.90256934 174.54646703 159.55862929 174.53848643 161.21460724 174.5231781 C163.4732419 174.50331932 165.73053197 174.50804461 167.98919678 174.51898193 C169.25389675 174.51529476 170.51859673 174.51160759 171.82162094 174.50780869 C175.56455102 175.08742416 176.73541654 176.02536694 179 179 C179.50793457 180.97265625 179.50793457 180.97265625 179.51757812 183.0625 C179.53018677 183.85011719 179.54279541 184.63773438 179.55578613 185.44921875 C179.54768921 186.29097656 179.53959229 187.13273438 179.53125 188 C179.5350769 188.87269531 179.53890381 189.74539063 179.54284668 190.64453125 C179.5455649 192.48699092 179.53820994 194.32948924 179.52148438 196.171875 C179.50007248 198.99045934 179.52128801 201.80649485 179.546875 204.625 C179.54423171 206.41667229 179.53910669 208.20834299 179.53125 210 C179.53934692 210.84175781 179.54744385 211.68351563 179.55578613 212.55078125 C179.53687317 213.73220703 179.53687317 213.73220703 179.51757812 214.9375 C179.51439575 215.62714844 179.51121338 216.31679688 179.50793457 217.02734375 C178.73395381 220.03323876 177.45279454 221.10574681 175 223 C172.18684446 223.39285501 169.76511737 223.54078449 166.953125 223.50793457 C166.13581909 223.51417453 165.31851318 223.5204145 164.47644043 223.52684355 C161.73400136 223.54281602 158.99244588 223.5301529 156.25 223.51757812 C154.28547649 223.52299736 152.32095704 223.5301189 150.35644531 223.53881836 C145.01763984 223.55707823 139.67914301 223.54997313 134.34033203 223.53730202 C128.75812944 223.52718818 123.17595361 223.5365632 117.59375 223.54284668 C108.21870164 223.55012779 98.84377924 223.54052318 89.46875 223.52148438 C78.62367661 223.49971481 67.77890399 223.50676584 56.93383789 223.52879 C47.62928692 223.54693075 38.3248266 223.54950879 29.02026367 223.53903532 C23.46007353 223.53279312 17.90002485 223.53198476 12.33984375 223.54518127 C7.11293428 223.55671983 1.88641331 223.54875043 -3.3404541 223.52560425 C-5.26093907 223.5203065 -7.18145662 223.52184908 -9.10192871 223.53065491 C-11.71943838 223.54155201 -14.3356956 223.52791811 -16.953125 223.50793457 C-17.71693481 223.51685746 -18.48074463 223.52578034 -19.2677002 223.53497362 C-22.69193114 223.4841059 -24.66122254 223.24480658 -27.46958923 221.21543121 C-29.83470131 217.7916817 -29.59079353 214.2697849 -29.56640625 210.25390625 C-29.57570412 208.98171486 -29.57570412 208.98171486 -29.58518982 207.68382263 C-29.59228375 205.89266099 -29.58912135 204.10143336 -29.57641602 202.31030273 C-29.56256214 199.57476928 -29.59660859 196.84266578 -29.63476562 194.10742188 C-29.63571699 192.3645825 -29.63385704 190.62173885 -29.62890625 188.87890625 C-29.64216446 188.0641835 -29.65542267 187.24946075 -29.66908264 186.41004944 C-29.60111448 182.24771652 -29.31805642 180.44366605 -26.82397461 176.96459961 C-23.57886811 174.70702444 -22.08286351 174.45283955 -18.1875 174.6875 C-17.21167969 174.73261719 -16.23585938 174.77773438 -15.23046875 174.82421875 C-14.49441406 174.88222656 -13.75835937 174.94023437 -13 175 C-13.02356567 173.87525269 -13.02356567 173.87525269 -13.04760742 172.7277832 C-13.11083561 169.25610214 -13.14926565 165.78454287 -13.1875 162.3125 C-13.21263672 161.13365234 -13.23777344 159.95480469 -13.26367188 158.74023438 C-13.33207902 150.41736449 -12.22635523 143.00976849 -10 135 C-9.72043457 133.9788208 -9.44086914 132.9576416 -9.15283203 131.90551758 C-4.99979435 117.39334919 3.2964471 105.4079606 14 95 C14.763125 94.25105469 15.52625 93.50210938 16.3125 92.73046875 C29.94359465 80 29.94359465 80 36 80 C36 79.34 36 78.68 36 78 C34.89205078 77.58427734 34.89205078 77.58427734 33.76171875 77.16015625 C16.82921655 70.04706834 2.77726769 53.2595568 -5 37 C-9.39155037 26.1879763 -13.43170814 14.79924986 -12 3 C-8.55461792 -1.69824828 -5.385999 -1.49611083 0 0 Z " fill="#010100" transform="translate(317,273)"/>
<path d="M0 0 C1.03101837 -0.00953201 2.06203674 -0.01906403 3.1242981 -0.02888489 C4.7776265 -0.02751778 4.7776265 -0.02751778 6.46435547 -0.02612305 C8.17436234 -0.03255074 8.17436234 -0.03255074 9.91891479 -0.03910828 C12.32451717 -0.0448434 14.73013689 -0.04535787 17.13574219 -0.04101562 C20.8250051 -0.03784741 24.51347243 -0.06135454 28.20263672 -0.08666992 C30.53987529 -0.08894208 32.87711602 -0.0896468 35.21435547 -0.08862305 C36.32062286 -0.09783279 37.42689026 -0.10704254 38.56668091 -0.11653137 C39.59139496 -0.11030258 40.61610901 -0.10407379 41.671875 -0.09765625 C43.02492233 -0.09860039 43.02492233 -0.09860039 44.40530396 -0.0995636 C47.17190752 0.35033464 48.02423516 1.07512965 49.70654297 3.2746582 C50.98933471 6.66489353 50.79956881 8.02495725 49.51904297 11.4621582 C47.60608761 14.4305372 46.88572373 15.04335403 43.70654297 16.2746582 C41.54406738 16.5262146 41.54406738 16.5262146 39.18505859 16.5300293 C38.29733765 16.53698822 37.4096167 16.54394714 36.49499512 16.55111694 C35.06830505 16.54962143 35.06830505 16.54962143 33.61279297 16.5480957 C31.59325612 16.56837874 29.5737249 16.5892294 27.55419922 16.6105957 C24.37430046 16.63322843 21.19462415 16.64968008 18.01464844 16.65551758 C14.94278924 16.66502356 11.87192899 16.69877104 8.80029297 16.7355957 C7.84916626 16.73055023 6.89803955 16.72550476 5.91809082 16.7203064 C4.5865094 16.74020126 4.5865094 16.74020126 3.22802734 16.76049805 C2.44955444 16.76334808 1.67108154 16.76619812 0.86901855 16.76913452 C-2.22623959 17.49271554 -3.32223145 18.80207966 -5.29345703 21.2746582 C-5.89080602 24.34329377 -5.89080602 24.34329377 -5.79123497 27.83083344 C-5.79644954 28.49102779 -5.80166411 29.15122214 -5.8070367 29.83142239 C-5.81967457 32.05356812 -5.80369008 34.27459137 -5.78793335 36.4967041 C-5.79110866 38.10185716 -5.796035 39.70700756 -5.80256617 41.31215048 C-5.81542082 45.73073254 -5.80323601 50.14894938 -5.78703761 54.56750751 C-5.77390409 59.32966983 -5.78377608 64.09179064 -5.790802 68.85395813 C-5.80089633 78.1860833 -5.78958985 87.51806696 -5.7711014 96.85017455 C-5.75035618 107.71089652 -5.75047318 118.57158771 -5.75144656 129.43232578 C-5.75244835 148.80672042 -5.73410996 168.18104909 -5.70507812 187.55541992 C-5.67690219 206.36825767 -5.66273654 225.18103735 -5.6640625 243.99389648 C-5.66414241 245.15252526 -5.66422232 246.31115403 -5.66430466 247.50489277 C-5.66438537 248.66149058 -5.66446608 249.8180884 -5.66454923 251.00973463 C-5.66592809 272.40820772 -5.65415352 293.80665606 -5.6362428 315.20512113 C-5.63020363 322.7810099 -5.62808291 330.35689413 -5.62717819 337.93278503 C-5.62581545 347.16146124 -5.61690749 356.39009576 -5.59851258 365.61875427 C-5.58926348 370.3300621 -5.58319041 375.04131652 -5.58570099 379.75263405 C-5.58788594 384.06174952 -5.58088583 388.37074673 -5.56640394 392.67983752 C-5.562768 394.24235869 -5.56252568 395.80489203 -5.56593852 397.3674137 C-5.57005224 399.48457836 -5.56196932 401.6013524 -5.55072594 403.71848297 C-5.54931709 404.89648547 -5.54790824 406.07448796 -5.54645669 407.2881875 C-5.29976773 410.20016519 -4.90965445 411.86587226 -3.29345703 414.2746582 C0.0779131 415.96034327 3.89886527 415.41718162 7.60713196 415.41268921 C8.54044647 415.41551049 9.47376098 415.41833177 10.43535775 415.42123854 C13.58215757 415.4296128 16.72892235 415.4309252 19.87573242 415.43237305 C22.1240448 415.43703917 24.37235623 415.4421824 26.6206665 415.44776917 C31.47212447 415.45906621 36.32357624 415.4674926 41.17504311 415.4738884 C48.84272695 415.48454709 56.51036633 415.5047859 64.17802429 415.52700806 C74.92605163 415.55756418 85.67407926 415.58679081 96.42211914 415.61254883 C97.10452737 415.61418701 97.7869356 415.61582519 98.49002286 415.61751302 C109.54750427 415.64379532 120.60498902 415.66243982 131.66248844 415.67914073 C143.01133174 415.6965587 154.3600995 415.725591 165.70889443 415.7640301 C172.0823342 415.78513373 178.45568032 415.80056212 184.82915688 415.80283737 C190.82340961 415.80497969 196.81746737 415.82080664 202.81166077 415.8472271 C205.01391717 415.85443741 207.21619715 415.85651272 209.41846275 415.85312462 C212.42087526 415.8492428 215.42266109 415.86364307 218.42500305 415.88265991 C219.30010176 415.87713022 220.17520048 415.87160052 221.07681733 415.86590326 C225.76446805 415.91728854 228.90908012 416.20876425 232.70654297 419.2746582 C234.25241173 422.36639572 234.00013818 424.86895373 233.70654297 428.2746582 C232.27130508 430.46947479 232.27130508 430.46947479 229.70654297 432.2746582 C226.59300334 432.87003149 223.51971856 432.81403612 220.35784912 432.78259277 C218.92173715 432.79195272 218.92173715 432.79195272 217.45661283 432.80150175 C214.23986965 432.81749046 211.02387807 432.80480408 207.80712891 432.79223633 C205.50427304 432.79765496 203.20142064 432.80477616 200.89857483 432.81347656 C194.6359915 432.83174753 188.37367109 432.82462559 182.11108303 432.81196022 C175.56047789 432.80184729 169.00989556 432.81122161 162.45928955 432.81750488 C150.74779628 432.82605579 139.03641373 432.8128034 127.32493964 432.79246753 C116.71428833 432.77461296 106.10381217 432.77768615 95.49316406 432.79614258 C83.16851553 432.81757039 70.84397868 432.82550389 58.51931405 432.81369352 C51.99655469 432.80745912 45.47391585 432.80662122 38.95116425 432.81983948 C32.81484429 432.83140504 26.67885446 432.82335875 20.54257011 432.80026245 C18.29157751 432.79497829 16.04055707 432.79648409 13.78957558 432.80531311 C10.71373391 432.81626386 7.63894614 432.80250951 4.56317139 432.78259277 C3.23065893 432.7959771 3.23065893 432.7959771 1.87122703 432.80963182 C-5.05100015 432.72285237 -10.29456409 430.90260794 -15.53564453 426.30981445 C-16.07447266 425.65883789 -16.61330078 425.00786133 -17.16845703 424.3371582 C-17.72275391 423.68875977 -18.27705078 423.04036133 -18.84814453 422.37231445 C-21.9814931 417.82472478 -22.54431735 413.93733431 -22.55072594 408.46605206 C-22.55598505 407.45303429 -22.55598505 407.45303429 -22.56135041 406.41955152 C-22.57066872 404.15215222 -22.56574005 401.88500951 -22.56088257 399.61759949 C-22.56461861 397.97731308 -22.56921995 396.33702845 -22.57461321 394.69674665 C-22.58686428 390.18564155 -22.58658027 385.6746105 -22.58422446 381.16349256 C-22.58381683 376.29970298 -22.59485033 371.4359373 -22.6043396 366.57215881 C-22.62096209 357.04169089 -22.62644971 347.5112477 -22.62756436 337.9807665 C-22.62851423 330.23495456 -22.6326215 322.4891508 -22.63896561 314.74334145 C-22.65658137 292.78906704 -22.66580395 270.8348122 -22.66430466 248.88053068 C-22.66422475 247.69663524 -22.66414483 246.51273981 -22.6640625 245.29296875 C-22.66398074 244.10763006 -22.66389898 242.92229137 -22.66381474 241.70103333 C-22.66300173 222.48820542 -22.6821423 203.27545588 -22.71033923 184.06265064 C-22.73905419 164.34147171 -22.75288029 144.62033102 -22.75115168 124.89913064 C-22.7504873 113.82460332 -22.75600055 102.75015816 -22.77750778 91.67564964 C-22.7957013 82.24690538 -22.80008195 72.81828053 -22.78648894 63.38952633 C-22.77995007 58.57840883 -22.77987522 53.76752054 -22.79719543 48.95642471 C-22.8128906 44.55144164 -22.81009901 40.14687019 -22.79262717 35.74189738 C-22.78954942 34.14904646 -22.79321881 32.5561651 -22.80434732 30.96335008 C-22.86534076 21.6135677 -22.77057954 14.38374034 -16.32861328 7.0324707 C-15.67763672 6.49364258 -15.02666016 5.95481445 -14.35595703 5.3996582 C-13.70755859 4.84536133 -13.05916016 4.29106445 -12.39111328 3.7199707 C-8.39168385 0.96431169 -4.82449344 0.02459913 0 0 Z " fill="#000000" transform="translate(38.29345703125,63.725341796875)"/>
<path d="M0 0 C1.97226562 -0.00290039 1.97226562 -0.00290039 3.984375 -0.00585938 C5.0043457 0.01287231 5.0043457 0.01287231 6.04492188 0.03198242 C8.11987007 0.06632135 10.19055909 0.05262614 12.265625 0.03320312 C22.29513287 0.10694951 22.29513287 0.10694951 26.01953125 2.44946289 C28.125 4.62890625 28.125 4.62890625 28.6875 8.06640625 C28.125 11.62890625 28.125 11.62890625 24.125 16.62890625 C17.525 16.62890625 10.925 16.62890625 4.125 16.62890625 C4.125 127.50890625 4.125 238.38890625 4.125 352.62890625 C71.08160697 352.47046878 71.08160697 352.47046878 138.03808594 352.26855469 C150.96923828 352.25048828 150.96923828 352.25048828 157.01715088 352.24713135 C161.25372647 352.24339505 165.49010288 352.22836702 169.72662354 352.206604 C175.1251169 352.17923782 180.52331918 352.17092846 185.92187548 352.17661715 C187.90653755 352.17542702 189.89120944 352.16745349 191.87581205 352.15204573 C194.5506977 352.13223815 197.22444286 352.13691194 199.89935303 352.14788818 C200.68123112 352.13623753 201.46310921 352.12458687 202.26868057 352.11258316 C205.75542393 352.15121226 207.75453109 352.35762872 210.60394669 354.44412613 C212.86425541 357.69074315 212.73458657 359.76819128 212.125 363.62890625 C209.33715274 367.38592124 207.84994294 368.51434283 203.1788168 369.25252533 C201.5948645 369.27736026 200.01033667 369.27468372 198.42637634 369.25036621 C197.55104628 369.25675503 196.67571621 369.26314385 195.77386099 369.26972628 C192.84088157 369.28498646 189.90925074 369.26450826 186.97631836 369.24414062 C184.87371879 369.24764148 182.77112187 369.25329966 180.66853333 369.26095581 C174.95782361 369.27521751 169.24759458 369.25812892 163.5369308 369.23467064 C157.56503258 369.2145847 151.59315476 369.22043998 145.62123108 369.22277832 C135.59302833 369.22272473 125.56501387 369.20295464 115.53686523 369.17089844 C103.93575091 369.13399481 92.33488321 369.12522407 80.73371786 369.13219595 C69.58136657 369.13849633 58.42910002 369.12775591 47.27676582 369.10823059 C42.52683875 369.1000466 37.77695494 369.09734888 33.02702141 369.09892273 C27.43653944 369.09980026 21.84629266 369.08562083 16.25587273 369.0596962 C14.20154968 369.05252091 12.14720164 369.05045729 10.0928688 369.05381393 C7.29386888 369.05751564 4.4955603 369.04282687 1.69664001 369.02331543 C0.47023856 369.03130732 0.47023856 369.03130732 -0.78093868 369.03946066 C-4.04465431 369.00006679 -6.44866032 368.85940682 -9.3482275 367.29175568 C-12.27394831 364.10527362 -12.0031432 360.81156595 -12.01201439 356.69832802 C-12.01708893 355.45186615 -12.02216347 354.20540427 -12.02739179 352.92117083 C-12.02799348 351.53034317 -12.02849256 350.13951547 -12.02890015 348.74868774 C-12.03291442 347.27710713 -12.03735259 345.80552762 -12.0421797 344.33394945 C-12.05415446 340.2800195 -12.05979571 336.22610146 -12.06436086 332.17215729 C-12.07031334 327.80396746 -12.08192387 323.4357919 -12.09265137 319.06761169 C-12.11718048 308.51480507 -12.13180171 297.96199371 -12.14471143 287.40916735 C-12.14842249 284.4300145 -12.15239578 281.45086211 -12.1564641 278.47170973 C-12.18169581 259.98131556 -12.20375419 241.49092066 -12.21619225 223.00051308 C-12.21912205 218.7171389 -12.2220837 214.43376474 -12.22509766 210.15039062 C-12.22584371 209.08574921 -12.22658976 208.02110779 -12.22735842 206.92420451 C-12.24002074 189.66533038 -12.27325564 172.40655907 -12.31489949 155.14773305 C-12.35727928 137.4391889 -12.38088255 119.73069746 -12.38611281 102.02210271 C-12.38953103 92.07493334 -12.40133486 82.12792476 -12.43421555 72.18080521 C-12.46216267 63.7122391 -12.47323885 55.24386673 -12.46202008 46.77525808 C-12.45682004 42.45254416 -12.45980702 38.13023633 -12.48448563 33.80758095 C-12.50687934 29.85223892 -12.50631619 25.89759698 -12.48728175 21.9422435 C-12.4844678 20.5095389 -12.49015743 19.07678781 -12.50509469 17.64415832 C-12.52413078 15.69991683 -12.50945415 13.75543209 -12.49303246 11.81116676 C-12.49438898 10.73021032 -12.49574551 9.64925388 -12.49714315 8.53554118 C-11.03984176 1.72707095 -6.38505706 -0.00386193 0 0 Z " fill="#000000" transform="translate(59.875,95.37109375)"/>
<path d="M0 0 C3.73621302 1.89807613 6.42150529 4.06830635 9.125 7.3125 C9.82625 8.116875 10.5275 8.92125 11.25 9.75 C14.05922381 14.02588684 14.47611439 19.31781953 15.31640625 24.265625 C15.84198924 27.60188563 15.84198924 27.60188563 19.125 29.3125 C21.96502351 29.49390793 24.71514183 29.5654542 27.5546875 29.55078125 C29.25391424 29.56620094 30.95313314 29.58250457 32.65234375 29.59960938 C35.32748704 29.61606197 38.00205638 29.62499456 40.67724609 29.61791992 C43.2620517 29.61529745 45.84511481 29.64343603 48.4296875 29.67578125 C49.22567352 29.66557449 50.02165955 29.65536774 50.84176636 29.64485168 C54.84436988 29.7151637 56.72431881 30.04402343 60.13134766 32.3269043 C62.68302637 36.14817284 62.81365703 39.27397629 62.71875 43.71875 C62.71879028 44.52107056 62.71883057 45.32339111 62.71887207 46.15002441 C62.71352641 47.84114443 62.69598422 49.5322646 62.66699219 51.22314453 C62.62512994 53.80448724 62.62592685 56.38321867 62.6328125 58.96484375 C62.62231904 60.61199721 62.60938008 62.25913728 62.59375 63.90625 C62.59354858 64.67408813 62.59334717 65.44192627 62.59313965 66.23303223 C62.49435543 70.72933969 61.99737033 73.7837812 59.125 77.3125 C56.05522173 78.33575942 53.95744355 78.44310974 50.74195862 78.45294189 C49.06581985 78.46150711 49.06581985 78.46150711 47.3558197 78.47024536 C46.12924149 78.47136322 44.90266327 78.47248108 43.63891602 78.47363281 C41.70205933 78.48108017 41.70205933 78.48108017 39.72607422 78.48867798 C36.18270838 78.50179322 32.63936148 78.50824493 29.09597516 78.51268864 C26.88261933 78.51562008 24.66926868 78.51972497 22.45591545 78.52419281 C15.53183598 78.5378639 8.60776834 78.54753311 1.6836763 78.5513947 C-6.31144962 78.55587811 -14.30640481 78.57344063 -22.3014788 78.6023953 C-28.48074744 78.62399807 -34.65996798 78.63409819 -40.83927399 78.63543582 C-44.5304887 78.63648464 -48.22154283 78.64240879 -51.91271782 78.66025543 C-56.02842486 78.67976819 -60.14377337 78.6754528 -64.25952148 78.66894531 C-65.48407547 78.6781601 -66.70862946 78.68737488 -67.97029114 78.6968689 C-69.0905368 78.69129974 -70.21078247 78.68573059 -71.36497498 78.67999268 C-72.82478114 78.68219252 -72.82478114 78.68219252 -74.31407833 78.6844368 C-77.34082321 78.24484592 -78.69142524 77.42796467 -80.875 75.3125 C-82.83321954 69.43784137 -82.18206286 62.71717829 -82.22509766 56.55273438 C-82.24166642 54.81268955 -82.26896889 53.07271305 -82.30712891 51.33300781 C-82.36196881 48.81800214 -82.3837786 46.30458593 -82.3984375 43.7890625 C-82.42110687 43.01495026 -82.44377625 42.24083801 -82.46713257 41.44326782 C-82.45226861 37.63236865 -82.0064501 35.50851478 -79.86987305 32.32250977 C-76.04065189 29.75252707 -72.89488655 29.61671926 -68.43359375 29.67578125 C-67.62890152 29.66540329 -66.82420929 29.65502533 -65.99513245 29.64433289 C-63.43381698 29.61471754 -60.87395528 29.61801662 -58.3125 29.625 C-55.74788255 29.61609758 -53.18365161 29.60011614 -50.61915588 29.5735321 C-49.02656018 29.55865549 -47.43381367 29.55479113 -45.84117126 29.56330872 C-40.517223 29.59483526 -40.517223 29.59483526 -35.875 27.3125 C-34.94730352 24.28826187 -34.94730352 24.28826187 -34.5 20.75 C-33.06261103 13.24790569 -30.94496079 7.51142752 -24.8125 2.69140625 C-17.11140309 -2.30581289 -8.66162467 -3.60416597 0 0 Z " fill="#326489" transform="translate(201.875,33.6875)"/>
<path d="M0 0 C5.26975438 5.783631 7.97137098 11.77055564 10.04296875 19.2421875 C10.94015625 19.2515332 11.83734375 19.26087891 12.76171875 19.27050781 C16.12445214 19.31480001 19.48596222 19.37653412 22.84814453 19.44970703 C24.29692091 19.47774786 25.74584547 19.49904561 27.19482422 19.51318359 C36.50627013 19.60944251 43.91742208 19.75063702 51.28515625 26.20703125 C51.82398438 26.85800781 52.3628125 27.50898437 52.91796875 28.1796875 C53.47226562 28.82808594 54.0265625 29.47648437 54.59765625 30.14453125 C58.34044778 35.57663679 58.37619611 40.61174009 58.4140625 47.00390625 C58.42309097 47.94974075 58.43211945 48.89557526 58.44142151 49.87007141 C58.45590545 51.86964769 58.46480613 53.86927117 58.46850586 55.86889648 C58.48036195 58.9023611 58.52953168 61.93376357 58.58007812 64.96679688 C58.75018972 85.14618045 58.75018972 85.14618045 51.28686523 93.11791992 C43.65465158 100.48080195 35.75435409 100.68240586 25.61547852 100.64624023 C24.25797974 100.65194945 22.90048575 100.65891584 21.54299927 100.66703796 C17.87143641 100.68492375 14.20011314 100.68380972 10.52851987 100.67809558 C7.45703962 100.67499708 4.38560495 100.68110351 1.3141312 100.68713433 C-5.93490516 100.70116288 -13.18382363 100.6996322 -20.43286133 100.68823242 C-27.89756103 100.6767525 -35.3619014 100.69082834 -42.82655376 100.7176289 C-49.24887311 100.73981909 -55.67107993 100.74641583 -62.09343487 100.74055248 C-65.92334895 100.73718965 -69.75303272 100.73955288 -73.58291435 100.75680351 C-77.18560084 100.77232383 -80.7877569 100.76826159 -84.39042282 100.74949837 C-86.33305956 100.74408348 -88.2757204 100.75828782 -90.2183075 100.77319336 C-98.33037816 100.70503555 -103.84528485 99.77173972 -110.1640625 94.34765625 C-110.69386719 93.71472656 -111.22367187 93.08179687 -111.76953125 92.4296875 C-112.31222656 91.80449219 -112.85492188 91.17929688 -113.4140625 90.53515625 C-117.72636017 84.12675439 -118.41524662 78.77351072 -118.390625 71.21484375 C-118.39586685 70.26709579 -118.4011087 69.31934784 -118.4065094 68.34288025 C-118.41290699 66.3468422 -118.41162206 64.35076634 -118.40307617 62.35473633 C-118.39456625 59.31718178 -118.42335946 56.28150982 -118.45507812 53.24414062 C-118.45669049 51.29687556 -118.45611193 49.34960719 -118.453125 47.40234375 C-118.46435898 46.50314713 -118.47559296 45.6039505 -118.48716736 44.67750549 C-118.41004641 37.62621633 -116.67465974 32.34341762 -111.9921875 27 C-111.34121094 26.46117187 -110.69023438 25.92234375 -110.01953125 25.3671875 C-109.04693359 24.53574219 -109.04693359 24.53574219 -108.0546875 23.6875 C-103.39732297 20.47851513 -99.28655615 19.9663733 -93.6875 19.828125 C-93.00649734 19.80875885 -92.32549469 19.7893927 -91.62385559 19.7694397 C-89.46420532 19.71000618 -87.30450068 19.6634055 -85.14453125 19.6171875 C-83.67380581 19.57897422 -82.20310196 19.53992056 -80.73242188 19.5 C-77.14082336 19.40433567 -73.54906212 19.32017175 -69.95703125 19.2421875 C-69.70526123 18.50323242 -69.45349121 17.76427734 -69.1940918 17.00292969 C-68.851604 16.02485352 -68.50911621 15.04677734 -68.15625 14.0390625 C-67.82197998 13.07323242 -67.48770996 12.10740234 -67.14331055 11.11230469 C-63.46045151 2.2018929 -55.87930505 -4.97831452 -47.21875 -9.04296875 C-30.16500127 -15.62387594 -13.38409846 -12.55499502 0 0 Z M-43.95703125 8.2421875 C-44.84390625 8.7784375 -45.73078125 9.3146875 -46.64453125 9.8671875 C-52.40561511 15.78397633 -54.46982661 22.94092628 -55.3046875 30.9921875 C-55.95703125 33.2421875 -55.95703125 33.2421875 -57.47851562 34.36791992 C-61.04473265 35.62586153 -64.53140113 35.50043968 -68.265625 35.48046875 C-69.91602388 35.49588531 -71.56641467 35.51218871 -73.21679688 35.52929688 C-75.80853161 35.54575779 -78.39967228 35.55467348 -80.99145508 35.54760742 C-83.50019011 35.54498497 -86.00713005 35.57311718 -88.515625 35.60546875 C-89.67208778 35.59015862 -89.67208778 35.59015862 -90.85191345 35.57453918 C-94.64426999 35.64328685 -96.78159033 36.12400944 -99.94750977 38.2565918 C-102.51876253 42.07676554 -102.64585843 45.19569503 -102.55078125 49.6484375 C-102.55082153 50.45075806 -102.55086182 51.25307861 -102.55090332 52.07971191 C-102.54555766 53.77083193 -102.52801547 55.4619521 -102.49902344 57.15283203 C-102.45716119 59.73417474 -102.4579581 62.31290617 -102.46484375 64.89453125 C-102.45435029 66.54168471 -102.44141133 68.18882478 -102.42578125 69.8359375 C-102.42557983 70.60377563 -102.42537842 71.37161377 -102.4251709 72.16271973 C-102.32604817 76.67443494 -101.76355559 79.65931738 -98.95703125 83.2421875 C-96.39348766 84.52395929 -94.57230473 84.37384618 -91.70097351 84.38262939 C-90.58636749 84.38833954 -89.47176147 84.39404968 -88.32337952 84.39993286 C-86.48047585 84.40160965 -86.48047585 84.40160965 -84.6003418 84.40332031 C-83.31085632 84.40828522 -82.02137085 84.41325012 -80.69281006 84.41836548 C-77.14931787 84.4314981 -73.60584464 84.43793624 -70.06233191 84.44237614 C-67.84880616 84.44530581 -65.63528561 84.44941044 -63.42176247 84.45388031 C-56.49714357 84.46755825 -49.57253653 84.47722314 -42.64790505 84.4810822 C-34.652779 84.48556219 -26.65782399 84.50310596 -18.66274995 84.5320828 C-12.48433509 84.55369846 -6.30596836 84.56378644 -0.12751609 84.56512332 C3.56318652 84.56617155 7.25372843 84.57208278 10.94439125 84.58994293 C15.06239828 84.60948286 19.18004746 84.60513513 23.2980957 84.59863281 C24.52062546 84.6078476 25.74315521 84.61706238 27.00273132 84.6265564 C28.12579681 84.62098724 29.2488623 84.61541809 30.40596008 84.60968018 C31.86633178 84.61188002 31.86633178 84.61188002 33.35620594 84.6141243 C36.57867367 84.16802823 38.45391094 83.19205369 41.04296875 81.2421875 C43.00118829 75.36752887 42.35003161 68.64686579 42.39306641 62.48242188 C42.40963517 60.74237705 42.43693764 59.00240055 42.47509766 57.26269531 C42.52993756 54.74768964 42.55174735 52.23427343 42.56640625 49.71875 C42.60041031 48.55758163 42.60041031 48.55758163 42.63510132 47.37295532 C42.6202789 43.57270789 42.17216225 41.43637415 40.05371094 38.25219727 C36.02518073 35.56269928 33.08985574 35.54466055 28.34765625 35.60546875 C27.5183963 35.59509079 26.68913635 35.58471283 25.83474731 35.57402039 C23.19539607 35.54439669 20.55745586 35.54770728 17.91796875 35.5546875 C15.2717367 35.54579462 12.62588034 35.52985624 9.97976685 35.5032196 C8.33601182 35.4883033 6.69211009 35.48450211 5.04830933 35.49299622 C1.18404329 35.47362757 -0.66514406 35.43677896 -3.95703125 33.2421875 C-4.6953125 30.30078125 -4.6953125 30.30078125 -5.26953125 26.6796875 C-6.86951926 18.55474837 -9.4968244 13.05360556 -15.95703125 7.8046875 C-25.41497384 2.87867573 -34.88361054 2.30397624 -43.95703125 8.2421875 Z " fill="#000000" transform="translate(221.95703125,27.7578125)"/>
<path d="M0 0 C0.96805573 -0.00700928 1.93611145 -0.01401855 2.9335022 -0.02124023 C6.12913816 -0.03882596 9.32388648 -0.02719504 12.51953125 -0.01367188 C14.74243337 -0.01636661 16.96533434 -0.02024888 19.18823242 -0.02526855 C23.84532909 -0.0311644 28.50211873 -0.02259756 33.15917969 -0.00390625 C39.12813252 0.018883 45.09636592 0.00576044 51.06529236 -0.01819611 C55.65496235 -0.03265152 60.24446183 -0.02804919 64.83413696 -0.01768494 C67.03496384 -0.01501696 69.2358062 -0.01828988 71.43661499 -0.02760315 C74.51284785 -0.03776418 77.58791634 -0.02227306 80.6640625 0 C81.57330475 -0.00809692 82.482547 -0.01619385 83.41934204 -0.02453613 C87.51519861 0.03039244 89.79593515 0.20339819 93.39331055 2.31164551 C95.80029076 5.05037737 96.09807646 7.10356451 95.8671875 10.70898438 C93.18376524 24.7920545 85.2695097 37.28427947 73.95703125 46.01757812 C60.38055682 55.09409276 45.37815556 58.32270224 29.2265625 56.08789062 C15.39401315 53.12768852 3.00034749 45.35185745 -5.22265625 33.82617188 C-9.84628221 26.44086663 -14.83805002 17.79604879 -15.10546875 8.89257812 C-15.14542969 8.1578125 -15.18539063 7.42304688 -15.2265625 6.66601562 C-13.35081217 -0.54840872 -6.00738245 -0.05349654 0 0 Z " fill="#020200" transform="translate(351.66796875,271.482421875)"/>
<path d="M0 0 C1.73618591 -0.00006042 1.73618591 -0.00006042 3.50744629 -0.00012207 C5.95179684 0.00523347 8.39614694 0.02281732 10.84033203 0.05175781 C14.58028833 0.09359939 18.31844293 0.09282635 22.05859375 0.0859375 C24.43490834 0.09643055 26.81121365 0.10936926 29.1875 0.125 C30.3053186 0.12520142 31.42313721 0.12540283 32.5748291 0.12561035 C34.14170471 0.14947815 34.14170471 0.14947815 35.74023438 0.17382812 C37.11326721 0.18645691 37.11326721 0.18645691 38.51403809 0.19934082 C41.63433226 0.676399 43.54257635 1.76301627 46.09375 3.59375 C47.34331796 6.09288591 47.23417304 7.81015175 47.25488281 10.60668945 C47.26449036 11.65149979 47.2740979 12.69631012 47.28399658 13.77278137 C47.28824646 14.90608383 47.29249634 16.03938629 47.296875 17.20703125 C47.30257507 18.36873337 47.30827515 19.53043549 47.31414795 20.7273407 C47.32360796 23.18955573 47.33013589 25.65178348 47.33398438 28.11401367 C47.3436831 31.88027073 47.37469508 35.64598065 47.40625 39.41210938 C47.41278055 41.80208009 47.41803082 44.19205471 47.421875 46.58203125 C47.4342218 47.70926102 47.4465686 48.83649078 47.45928955 49.99787903 C47.45628845 51.05214584 47.45328735 52.10641266 47.45019531 53.19262695 C47.45566376 54.57923271 47.45566376 54.57923271 47.46124268 55.99385071 C47.01274027 59.16686932 46.00648083 61.03811993 44.09375 63.59375 C41.10007982 64.59164006 39.07986991 64.731735 35.95141602 64.75488281 C34.37947227 64.76929413 34.37947227 64.76929413 32.77577209 64.78399658 C31.64449387 64.78824646 30.51321564 64.79249634 29.34765625 64.796875 C28.18499741 64.80257507 27.02233856 64.80827515 25.82444763 64.81414795 C23.36401276 64.8235985 20.90356524 64.83013215 18.44311523 64.83398438 C14.67474403 64.84370231 10.90691532 64.87473101 7.13867188 64.90625 C4.75000324 64.9127788 2.36133071 64.91802975 -0.02734375 64.921875 C-1.15659775 64.9342218 -2.28585175 64.9465686 -3.44932556 64.95928955 C-4.50044022 64.95628845 -5.55155487 64.95328735 -6.63452148 64.95019531 C-8.01993385 64.95566376 -8.01993385 64.95566376 -9.43333435 64.96124268 C-12.40517716 64.51960591 -13.75266834 63.66308457 -15.90625 61.59375 C-16.89874837 58.6162549 -17.05561356 56.57901066 -17.09912109 53.46728516 C-17.12321548 51.90018295 -17.12321548 51.90018295 -17.14779663 50.30142212 C-17.19227343 45.53363736 -17.23329304 40.76599045 -17.25634766 35.99804688 C-17.27292624 33.48200239 -17.30024082 30.96600536 -17.33837891 28.45019531 C-17.39307216 24.82331909 -17.41500922 21.19754524 -17.4296875 17.5703125 C-17.45235687 16.44621979 -17.47502625 15.32212708 -17.49838257 14.16397095 C-17.48584185 9.53919286 -17.3915723 6.46515725 -15.11767578 2.38232422 C-10.1738313 -0.37110475 -5.56894735 -0.08168084 0 0 Z " fill="#000000" transform="translate(96.90625,351.40625)"/>
<path d="M0 0 C1.73618591 -0.00006042 1.73618591 -0.00006042 3.50744629 -0.00012207 C5.95179684 0.00523347 8.39614694 0.02281732 10.84033203 0.05175781 C14.58028833 0.09359939 18.31844293 0.09282635 22.05859375 0.0859375 C24.43490834 0.09643055 26.81121365 0.10936926 29.1875 0.125 C30.3053186 0.12520142 31.42313721 0.12540283 32.5748291 0.12561035 C34.14170471 0.14947815 34.14170471 0.14947815 35.74023438 0.17382812 C37.11326721 0.18645691 37.11326721 0.18645691 38.51403809 0.19934082 C41.63433226 0.676399 43.54257635 1.76301627 46.09375 3.59375 C47.34331796 6.09288591 47.23417304 7.81015175 47.25488281 10.60668945 C47.26449036 11.65149979 47.2740979 12.69631012 47.28399658 13.77278137 C47.28824646 14.90608383 47.29249634 16.03938629 47.296875 17.20703125 C47.30257507 18.36873337 47.30827515 19.53043549 47.31414795 20.7273407 C47.32360796 23.18955573 47.33013589 25.65178348 47.33398438 28.11401367 C47.3436831 31.88027073 47.37469508 35.64598065 47.40625 39.41210938 C47.41278055 41.80208009 47.41803082 44.19205471 47.421875 46.58203125 C47.4342218 47.70926102 47.4465686 48.83649078 47.45928955 49.99787903 C47.45628845 51.05214584 47.45328735 52.10641266 47.45019531 53.19262695 C47.45566376 54.57923271 47.45566376 54.57923271 47.46124268 55.99385071 C47.01274027 59.16686932 46.00648083 61.03811993 44.09375 63.59375 C41.10007982 64.59164006 39.07986991 64.731735 35.95141602 64.75488281 C34.37947227 64.76929413 34.37947227 64.76929413 32.77577209 64.78399658 C31.64449387 64.78824646 30.51321564 64.79249634 29.34765625 64.796875 C28.18499741 64.80257507 27.02233856 64.80827515 25.82444763 64.81414795 C23.36401276 64.8235985 20.90356524 64.83013215 18.44311523 64.83398438 C14.67474403 64.84370231 10.90691532 64.87473101 7.13867188 64.90625 C4.75000324 64.9127788 2.36133071 64.91802975 -0.02734375 64.921875 C-1.15659775 64.9342218 -2.28585175 64.9465686 -3.44932556 64.95928955 C-4.50044022 64.95628845 -5.55155487 64.95328735 -6.63452148 64.95019531 C-8.01993385 64.95566376 -8.01993385 64.95566376 -9.43333435 64.96124268 C-12.40517716 64.51960591 -13.75266834 63.66308457 -15.90625 61.59375 C-16.89874837 58.6162549 -17.05561356 56.57901066 -17.09912109 53.46728516 C-17.12321548 51.90018295 -17.12321548 51.90018295 -17.14779663 50.30142212 C-17.19227343 45.53363736 -17.23329304 40.76599045 -17.25634766 35.99804688 C-17.27292624 33.48200239 -17.30024082 30.96600536 -17.33837891 28.45019531 C-17.39307216 24.82331909 -17.41500922 21.19754524 -17.4296875 17.5703125 C-17.45235687 16.44621979 -17.47502625 15.32212708 -17.49838257 14.16397095 C-17.48584185 9.53919286 -17.3915723 6.46515725 -15.11767578 2.38232422 C-10.1738313 -0.37110475 -5.56894735 -0.08168084 0 0 Z " fill="#000000" transform="translate(96.90625,255.40625)"/>
<path d="M0 0 C1.73618591 -0.00006042 1.73618591 -0.00006042 3.50744629 -0.00012207 C5.95179684 0.00523347 8.39614694 0.02281732 10.84033203 0.05175781 C14.58028833 0.09359939 18.31844293 0.09282635 22.05859375 0.0859375 C24.43490834 0.09643055 26.81121365 0.10936926 29.1875 0.125 C30.3053186 0.12520142 31.42313721 0.12540283 32.5748291 0.12561035 C34.14170471 0.14947815 34.14170471 0.14947815 35.74023438 0.17382812 C37.11326721 0.18645691 37.11326721 0.18645691 38.51403809 0.19934082 C41.63433226 0.676399 43.54257635 1.76301627 46.09375 3.59375 C47.34331796 6.09288591 47.23417304 7.81015175 47.25488281 10.60668945 C47.26449036 11.65149979 47.2740979 12.69631012 47.28399658 13.77278137 C47.28824646 14.90608383 47.29249634 16.03938629 47.296875 17.20703125 C47.30257507 18.36873337 47.30827515 19.53043549 47.31414795 20.7273407 C47.32360796 23.18955573 47.33013589 25.65178348 47.33398438 28.11401367 C47.3436831 31.88027073 47.37469508 35.64598065 47.40625 39.41210938 C47.41278055 41.80208009 47.41803082 44.19205471 47.421875 46.58203125 C47.4342218 47.70926102 47.4465686 48.83649078 47.45928955 49.99787903 C47.45628845 51.05214584 47.45328735 52.10641266 47.45019531 53.19262695 C47.45566376 54.57923271 47.45566376 54.57923271 47.46124268 55.99385071 C47.01274027 59.16686932 46.00648083 61.03811993 44.09375 63.59375 C41.10007982 64.59164006 39.07986991 64.731735 35.95141602 64.75488281 C34.37947227 64.76929413 34.37947227 64.76929413 32.77577209 64.78399658 C31.64449387 64.78824646 30.51321564 64.79249634 29.34765625 64.796875 C28.18499741 64.80257507 27.02233856 64.80827515 25.82444763 64.81414795 C23.36401276 64.8235985 20.90356524 64.83013215 18.44311523 64.83398438 C14.67474403 64.84370231 10.90691532 64.87473101 7.13867188 64.90625 C4.75000324 64.9127788 2.36133071 64.91802975 -0.02734375 64.921875 C-1.15659775 64.9342218 -2.28585175 64.9465686 -3.44932556 64.95928955 C-4.50044022 64.95628845 -5.55155487 64.95328735 -6.63452148 64.95019531 C-8.01993385 64.95566376 -8.01993385 64.95566376 -9.43333435 64.96124268 C-12.40517716 64.51960591 -13.75266834 63.66308457 -15.90625 61.59375 C-16.89874837 58.6162549 -17.05561356 56.57901066 -17.09912109 53.46728516 C-17.12321548 51.90018295 -17.12321548 51.90018295 -17.14779663 50.30142212 C-17.19227343 45.53363736 -17.23329304 40.76599045 -17.25634766 35.99804688 C-17.27292624 33.48200239 -17.30024082 30.96600536 -17.33837891 28.45019531 C-17.39307216 24.82331909 -17.41500922 21.19754524 -17.4296875 17.5703125 C-17.45235687 16.44621979 -17.47502625 15.32212708 -17.49838257 14.16397095 C-17.48584185 9.53919286 -17.3915723 6.46515725 -15.11767578 2.38232422 C-10.1738313 -0.37110475 -5.56894735 -0.08168084 0 0 Z " fill="#000000" transform="translate(96.90625,159.40625)"/>
<path d="M0 0 C7.30115161 4.94473962 13.97855731 10.52450724 20.5625 16.375 C21.55121094 17.24125 22.53992188 18.1075 23.55859375 19 C31.36738099 25.91160743 31.36738099 25.91160743 31.9375 30.1875 C31.5625 33.375 31.5625 33.375 29.65478516 36.03378296 C25.32847056 39.30930282 22.00331173 39.079697 16.7109375 39.02197266 C15.72337463 39.03073425 14.73581177 39.03949585 13.71832275 39.04852295 C10.45760008 39.07050912 7.19823619 39.0559662 3.9375 39.0390625 C1.66975647 39.04243084 -0.5979853 39.0472836 -2.86572266 39.05355835 C-7.61703693 39.06092866 -12.36788102 39.0502185 -17.11914062 39.02685547 C-23.20929387 38.99836828 -29.29834543 39.01477131 -35.38845825 39.04471779 C-40.07080383 39.06278607 -44.75288825 39.05703473 -49.4352417 39.04407883 C-51.68072642 39.04074355 -53.92623487 39.04483612 -56.17169189 39.05647659 C-59.31041258 39.06917694 -62.44734967 39.04981801 -65.5859375 39.02197266 C-66.51388123 39.03209381 -67.44182495 39.04221497 -68.39788818 39.05264282 C-72.90533391 38.97856464 -74.83383309 38.84014649 -78.50634766 36.01034546 C-80.4375 33.375 -80.4375 33.375 -81.1875 30.5625 C-79.36328195 22.80957327 -71.37493348 17.23639375 -65.4375 12.375 C-64.93831055 11.9634668 -64.43912109 11.55193359 -63.92480469 11.12792969 C-42.39435035 -6.53188117 -25.56959155 -16.7862687 0 0 Z " fill="#020200" transform="translate(416.4375,393.625)"/>
<path d="M0 0 C58.08 0 116.16 0 176 0 C176 5.28 176 10.56 176 16 C117.92 16 59.84 16 0 16 C0 10.72 0 5.44 0 0 Z " fill="#326489" transform="translate(304,464)"/>
<path d="M0 0 C58.08 0 116.16 0 176 0 C176 5.28 176 10.56 176 16 C117.92 16 59.84 16 0 16 C0 10.72 0 5.44 0 0 Z " fill="#326489" transform="translate(304,224)"/>
<path d="M0 0 C1.10736511 -0.0038269 2.21473022 -0.00765381 3.35565186 -0.01159668 C5.6991873 -0.01431841 8.04275298 -0.00693908 10.38623047 0.00976562 C13.95740404 0.03108896 17.526547 0.01001323 21.09765625 -0.015625 C23.37760858 -0.01298018 25.65755966 -0.00785203 27.9375 0 C28.99922424 -0.00809692 30.06094849 -0.01619385 31.15484619 -0.02453613 C38.75880486 0.07062166 44.10335557 1.34936363 49.9765625 6.49609375 C50.51539063 7.14707031 51.05421875 7.79804687 51.609375 8.46875 C52.16367187 9.11714844 52.71796875 9.76554687 53.2890625 10.43359375 C57.15737128 16.04786893 57.03103147 21.25587894 57.02490234 27.85766602 C57.03161957 28.89560303 57.03833679 29.93354004 57.04525757 31.00292969 C57.06424056 34.43038734 57.06816146 37.85764933 57.0703125 41.28515625 C57.07673846 43.66739482 57.08346666 46.0496326 57.09048462 48.43186951 C57.10245689 53.42261588 57.10616531 58.41329302 57.10498047 63.40405273 C57.10477688 69.80574495 57.13212044 76.20699519 57.16652489 82.6085825 C57.18873261 87.52672882 57.19281995 92.44476757 57.19176102 97.36295891 C57.19412463 99.72371893 57.20299063 102.08448159 57.21842575 104.44519234 C57.23796824 107.74185589 57.23229423 111.03755016 57.22021484 114.33422852 C57.23145386 115.31252121 57.24269287 116.2908139 57.25427246 117.29875183 C57.19288699 123.87407209 57.19288699 123.87407209 54.91885376 127.13340759 C51.64692301 129.22710776 49.53359069 129.13112616 45.734375 128.53125 C42.92160901 126.52137971 41.04119196 124.92600089 40.27681923 121.45125961 C40.09160155 118.83806847 40.07358057 116.2675885 40.10668945 113.64794922 C40.09941833 112.65717377 40.09214722 111.66639832 40.08465576 110.64559937 C40.06607407 107.37534799 40.08212531 104.10618926 40.09765625 100.8359375 C40.08961806 98.56339539 40.07910109 96.29086081 40.06620789 94.01834106 C40.03764447 88.03861853 40.03708749 82.05924252 40.04406738 76.07946777 C40.0513888 66.50082864 40.02013503 56.92230174 39.98161888 47.34375381 C39.97274356 43.99389011 39.97808032 40.64426646 39.98518372 37.29440308 C39.98180041 35.24818862 39.97805149 33.20197472 39.97387695 31.15576172 C39.97957199 30.22062744 39.98526703 29.28549316 39.99113464 28.32202148 C39.98719696 27.46687958 39.98325928 26.61173767 39.97920227 25.73068237 C39.98016561 24.98775877 39.98112894 24.24483517 39.98212147 23.47939873 C39.8401227 21.2074612 39.8401227 21.2074612 37.734375 18.53125 C34.9421778 17.6005176 33.21477379 17.39756739 30.32641602 17.37353516 C29.43861954 17.36327301 28.55082306 17.35301086 27.63612366 17.34243774 C26.67983566 17.33513641 25.72354767 17.32783508 24.73828125 17.3203125 C22.71548661 17.29225044 20.69270025 17.26358602 18.66992188 17.234375 C15.47908706 17.19306651 12.28840801 17.15618022 9.09741211 17.12988281 C6.01904359 17.10231037 2.94137935 17.0564464 -0.13671875 17.0078125 C-1.5681144 17.0029332 -1.5681144 17.0029332 -3.02842712 16.99795532 C-3.91937576 16.98138885 -4.8103244 16.96482239 -5.72827148 16.94775391 C-6.50976059 16.93966705 -7.29124969 16.9315802 -8.09642029 16.92324829 C-10.83010932 16.4292417 -12.2276174 15.38808217 -14.265625 13.53125 C-15.015625 11.41015625 -15.015625 11.41015625 -15.265625 9.09375 C-15.4203125 7.95099609 -15.4203125 7.95099609 -15.578125 6.78515625 C-15.265625 4.53125 -15.265625 4.53125 -13.95019531 2.42358398 C-9.63085389 -0.6210882 -5.15692569 -0.03903011 0 0 Z " fill="#000000" transform="translate(311.265625,63.46875)"/>
<path d="M0 0 C1.29967712 -0.0071553 2.59935425 -0.01431061 3.93841553 -0.02168274 C7.49645352 -0.04017958 11.05374109 -0.02726996 14.61174774 -0.00759244 C18.3383418 0.00881005 22.06488893 -0.00002105 25.79150391 -0.00511169 C32.04927539 -0.0096309 38.30674779 0.00622613 44.56445312 0.03417969 C51.79517091 0.06623108 59.02534934 0.06621546 66.25610542 0.04896492 C73.21709061 0.03309093 80.17787841 0.03983891 87.13885498 0.05690193 C90.09891018 0.06376744 93.05880692 0.06274521 96.01885986 0.05535698 C100.15350207 0.04626027 104.28731376 0.07024821 108.421875 0.09765625 C109.64904236 0.09113037 110.87620972 0.08460449 112.14056396 0.07788086 C120.3821517 0.17092107 120.3821517 0.17092107 124.47900391 2.44569397 C126.2109375 4.63110352 126.2109375 4.63110352 126.7109375 8.13110352 C126.20112124 11.69981733 125.77427321 13.16270616 123.2109375 15.63110352 C120.13541593 16.65627737 118.01275557 16.76668239 114.78993225 16.78500366 C113.10117226 16.79790436 113.10117226 16.79790436 111.3782959 16.81106567 C110.14236694 16.81532562 108.90643799 16.81958557 107.63305664 16.82397461 C105.6815696 16.83624084 105.6815696 16.83624084 103.69065857 16.84875488 C99.37582462 16.87494171 95.06098111 16.89027505 90.74609375 16.90454102 C89.26061942 16.90990129 87.77514515 16.9152788 86.28967094 16.92067337 C80.1122894 16.94229352 73.93491044 16.96103185 67.75750065 16.97229576 C58.9026721 16.98854835 50.04828137 17.02176712 41.19361788 17.07869661 C34.96764396 17.11736301 28.74178733 17.13692425 22.51569647 17.14221632 C18.79640379 17.14587321 15.07757843 17.15792978 11.3584156 17.19031906 C7.211415 17.22591873 3.06535954 17.22203737 -1.08178711 17.21459961 C-2.31569183 17.23100494 -3.54959656 17.24741028 -4.82089233 17.26431274 C-13.11712821 17.20316759 -13.11712821 17.20316759 -16.54811096 14.28213501 C-18.08576632 10.99725832 -18.46067734 9.21304935 -17.7890625 5.63110352 C-13.40504155 -1.05680214 -7.40930999 -0.07059439 0 0 Z " fill="#000000" transform="translate(177.7890625,351.368896484375)"/>
<path d="M0 0 C1.28992355 -0.00554901 2.57984711 -0.01109802 3.90885925 -0.01681519 C7.44006301 -0.03104557 10.97048642 -0.01401989 14.50161552 0.00946999 C18.20017049 0.02960069 21.89869375 0.02369828 25.59729004 0.0213623 C31.80799199 0.02141585 38.01838947 0.0411583 44.22900391 0.07324219 C51.40512854 0.11013413 58.5808544 0.11891753 65.75706148 0.11194468 C72.66570695 0.10563518 79.57421594 0.11640218 86.48283386 0.13591003 C89.42052661 0.14407593 92.35814952 0.14679508 95.29585266 0.1452179 C99.3992621 0.14417419 103.50214772 0.1683704 107.60546875 0.1953125 C109.43219368 0.1909166 109.43219368 0.1909166 111.29582214 0.18643188 C112.41455215 0.19778168 113.53328217 0.20913147 114.68591309 0.2208252 C115.65559776 0.22455391 116.62528244 0.22828262 117.6243515 0.23212433 C120.81111338 0.6879518 122.7085672 1.73792472 125.30273438 3.61523438 C126.70731174 6.42438911 126.55168595 8.50333972 126.30273438 11.61523438 C124.52289033 14.75115008 123.77965231 15.45626173 120.30273438 16.61523438 C118.49782322 16.71614392 116.68942971 16.75885801 114.88172913 16.76913452 C113.19296913 16.78203522 113.19296913 16.78203522 111.47009277 16.79519653 C110.23416382 16.79945648 108.99823486 16.80371643 107.72485352 16.80810547 C105.77336647 16.8203717 105.77336647 16.8203717 103.78245544 16.83288574 C99.4676215 16.85907257 95.15277799 16.87440591 90.83789062 16.88867188 C89.35241629 16.89403215 87.86694203 16.89940966 86.38146782 16.90480423 C80.20408627 16.92642438 74.02670731 16.94516271 67.84929752 16.95642662 C58.99446897 16.97267921 50.14007825 17.00589798 41.28541476 17.06282747 C35.05944083 17.10149387 28.8335842 17.12105511 22.60749334 17.12634718 C18.88820066 17.13000407 15.16937531 17.14206064 11.45021248 17.17444992 C7.30321187 17.21004959 3.15715641 17.20616823 -0.98999023 17.19873047 C-2.22389496 17.2151358 -3.45779968 17.23154114 -4.72909546 17.2484436 C-13.02533133 17.18729844 -13.02533133 17.18729844 -16.45631409 14.26626587 C-17.99396944 10.98138918 -18.36888047 9.19718021 -17.69726562 5.61523438 C-13.31610707 -1.04878201 -7.39613939 -0.08055138 0 0 Z " fill="#000000" transform="translate(177.697265625,159.384765625)"/>
<path d="M0 0 C1.31806641 -0.00064453 2.63613281 -0.00128906 3.99414062 -0.00195312 C5.02027466 0.01363647 5.02027466 0.01363647 6.06713867 0.02954102 C8.15039019 0.05845819 10.23108778 0.05015348 12.31445312 0.03710938 C23.70697277 0.1094605 23.70697277 0.1094605 28.22265625 3.49609375 C29.81733517 6.68545159 29.38788173 10.1420977 29.3996582 13.64599609 C29.409515 14.90963737 29.409515 14.90963737 29.41957092 16.19880676 C29.43932041 18.99321577 29.45096923 21.78757104 29.4609375 24.58203125 C29.46501303 25.53503742 29.46908855 26.48804359 29.47328758 27.46992874 C29.49415384 32.51250238 29.50845402 37.55504875 29.51782227 42.59765625 C29.52889715 47.81230231 29.56330788 53.02652286 29.60299397 58.2410183 C29.62910539 62.24556282 29.63750915 66.25000505 29.64110374 70.25462723 C29.64598269 72.17720036 29.65763369 74.09976853 29.67614174 76.02225876 C29.70042051 78.71098587 29.69958916 81.39859979 29.69262695 84.08740234 C29.70543701 84.8833934 29.71824707 85.67938446 29.73144531 86.49949646 C29.69749416 90.09144988 29.53123541 92.09224212 27.31828308 94.98843384 C25.04893078 96.62107732 23.9860109 97.03927117 21.22265625 96.99609375 C20.56265625 97.00640625 19.90265625 97.01671875 19.22265625 97.02734375 C16.23268367 96.23313228 15.1244981 94.92534071 13.22265625 92.49609375 C12.84810644 89.87491046 12.71454429 87.68039513 12.76855469 85.06542969 C12.76797058 84.32357422 12.76738647 83.58171875 12.76678467 82.81738281 C12.769566 80.37126473 12.80065839 77.92637328 12.83203125 75.48046875 C12.83949351 73.78225368 12.84518652 72.08402999 12.84918213 70.38580322 C12.86443974 65.92053365 12.90372236 61.45578622 12.94799805 56.99072266 C12.98894818 52.43268904 13.00719258 47.87457088 13.02734375 43.31640625 C13.07021672 34.37607294 13.1384694 25.4361268 13.22265625 16.49609375 C12.34528809 16.53536987 12.34528809 16.53536987 11.45019531 16.57543945 C8.79129059 16.67959131 6.13281481 16.74447147 3.47265625 16.80859375 C2.55226563 16.85048828 1.631875 16.89238281 0.68359375 16.93554688 C-6.13771383 17.05912129 -6.13771383 17.05912129 -9.38671875 14.19921875 C-11.20673638 10.66143166 -11.34851591 8.42290237 -10.77734375 4.49609375 C-7.64270567 0.23803185 -5.1415264 -0.00791269 0 0 Z " fill="#000101" transform="translate(306.77734375,95.50390625)"/>
<path d="M0 0 C0.98756287 -0.0087616 1.97512573 -0.01752319 2.99261475 -0.02655029 C6.25333742 -0.04853646 9.51270131 -0.03399354 12.7734375 -0.01708984 C15.04118103 -0.02045818 17.3089228 -0.02531094 19.57666016 -0.03158569 C24.32797443 -0.038956 29.07881852 -0.02824584 33.83007812 -0.00488281 C39.92023137 0.02360437 46.00928293 0.00720135 52.09939575 -0.02274513 C56.78174133 -0.04081342 61.46382575 -0.03506208 66.1461792 -0.02210617 C68.39166392 -0.0187709 70.63717237 -0.02286346 72.88262939 -0.03450394 C76.02135008 -0.04720428 79.15828717 -0.02784536 82.296875 0 C83.22481873 -0.01012115 84.15276245 -0.02024231 85.10882568 -0.03067017 C89.60974352 0.04330073 91.5512147 0.19214807 95.23291016 2.9960022 C97.1484375 5.64697266 97.1484375 5.64697266 97.6484375 8.70947266 C97.10098942 11.92573013 96.4408684 13.35454176 94.1484375 15.64697266 C91.41995262 16.55646762 89.79598555 16.77959254 86.98696899 16.8008728 C86.14024124 16.80947327 85.29351349 16.81807373 84.42112732 16.82693481 C83.49534378 16.83119476 82.56956024 16.83545471 81.61572266 16.83984375 C80.63820541 16.84802124 79.66068817 16.85619873 78.65354919 16.86462402 C75.41487237 16.88946165 72.17623926 16.90598789 68.9375 16.92041016 C67.27955477 16.92839567 67.27955477 16.92839567 65.58811569 16.93654251 C59.74039147 16.96326407 53.89268855 16.98264417 48.04492188 16.99707031 C41.99968233 17.01373646 35.954986 17.05853402 29.90995216 17.10944176 C25.26542518 17.14305881 20.62102821 17.15464155 15.97639084 17.16029739 C13.74761161 17.1670227 11.51884132 17.18227772 9.29018021 17.2061882 C6.17297962 17.2377295 3.05725899 17.23789303 -0.06005859 17.23046875 C-0.98179367 17.24687408 -1.90352875 17.26327942 -2.85319519 17.28018188 C-7.34680883 17.23632751 -9.25142661 17.10572411 -12.92446899 14.29800415 C-14.8515625 11.64697266 -14.8515625 11.64697266 -15.4765625 8.64697266 C-13.70227006 0.13036892 -7.28729396 -0.07948309 0 0 Z " fill="#000000" transform="translate(174.8515625,255.35302734375)"/>
<path d="M0 0 C23.76 0 47.52 0 72 0 C68.39330593 9.01673517 62.73671304 15.63164348 54 20 C43.2855622 24.46666822 32.70803831 26.15307329 21.6875 21.875 C13.9326253 18.23766747 6.71022878 13.32035555 2 6 C1.34 4.02 0.68 2.04 0 0 Z " fill="#FCBA41" transform="translate(356,288)"/>
<path d="M0 0 C10.56 0 21.12 0 32 0 C32 10.56 32 21.12 32 32 C21.44 32 10.88 32 0 32 C0 21.44 0 10.88 0 0 Z " fill="#FE6A6A" transform="translate(96,368)"/>
<path d="M0 0 C10.56 0 21.12 0 32 0 C32 10.56 32 21.12 32 32 C21.44 32 10.88 32 0 32 C0 21.44 0 10.88 0 0 Z " fill="#FE6A6A" transform="translate(96,272)"/>
<path d="M0 0 C10.56 0 21.12 0 32 0 C32 10.56 32 21.12 32 32 C21.44 32 10.88 32 0 32 C0 21.44 0 10.88 0 0 Z " fill="#FE6A6A" transform="translate(96,176)"/>
<path d="M0 0 C1.20422104 -0.00241196 2.40844208 -0.00482391 3.64915466 -0.00730896 C6.19183652 -0.00633047 8.73453967 0.00706324 11.27709961 0.03198242 C15.17309735 0.06631376 19.06683041 0.05263301 22.96289062 0.03320312 C25.43360342 0.04010073 27.90431036 0.04977232 30.375 0.0625 C32.12509117 0.0550602 32.12509117 0.0550602 33.91053772 0.04747009 C35.53758888 0.07122459 35.53758888 0.07122459 37.19750977 0.09545898 C38.15061539 0.10165756 39.10372101 0.10785614 40.08570862 0.11424255 C43.38266097 0.78349854 44.58044633 1.99831935 46.62109375 4.62890625 C47.18057666 8.47535124 47.01529097 10.78338402 45.37109375 14.31005859 C40.84957019 18.12268562 35.84574038 17.34158684 30.12109375 17.29296875 C28.2793457 17.3001442 28.2793457 17.3001442 26.40039062 17.3074646 C23.80467447 17.31086678 21.20891565 17.30164244 18.61328125 17.28076172 C14.63574861 17.25400483 10.66103841 17.28050323 6.68359375 17.3125 C4.16275417 17.30919596 1.64191636 17.30278987 -0.87890625 17.29296875 C-2.07064453 17.3030899 -3.26238281 17.31321106 -4.49023438 17.32363892 C-12.70477382 17.20678542 -12.70477382 17.20678542 -16.125 14.27490234 C-17.68057119 10.99233215 -18.05144011 9.2157535 -17.37890625 5.62890625 C-13.01637908 -0.92969836 -7.33756263 -0.08352595 0 0 Z " fill="#010101" transform="translate(177.37890625,399.37109375)"/>
<path d="M0 0 C1.73618591 -0.00006042 1.73618591 -0.00006042 3.50744629 -0.00012207 C5.95179684 0.00523347 8.39614694 0.02281732 10.84033203 0.05175781 C14.58028833 0.09359939 18.31844293 0.09282635 22.05859375 0.0859375 C24.43490834 0.09643055 26.81121365 0.10936926 29.1875 0.125 C30.3053186 0.12520142 31.42313721 0.12540283 32.5748291 0.12561035 C34.14170471 0.14947815 34.14170471 0.14947815 35.74023438 0.17382812 C37.11326721 0.18645691 37.11326721 0.18645691 38.51403809 0.19934082 C41.63433226 0.676399 43.54257635 1.76301627 46.09375 3.59375 C47.49832737 6.40290474 47.34270157 8.48185534 47.09375 11.59375 C45.31390595 14.7296657 44.57066793 15.43477736 41.09375 16.59375 C39.38740843 16.70601312 37.67714861 16.76271412 35.96728516 16.78662109 C34.92255035 16.80268402 33.87781555 16.81874695 32.80142212 16.83529663 C28.03363736 16.87977343 23.26599045 16.92079304 18.49804688 16.94384766 C15.98200239 16.96042624 13.46600536 16.98774082 10.95019531 17.02587891 C7.32331909 17.08057216 3.69754524 17.10250922 0.0703125 17.1171875 C-1.61582657 17.15119156 -1.61582657 17.15119156 -3.33602905 17.18588257 C-11.12480853 17.16476223 -11.12480853 17.16476223 -15.11572266 14.24853516 C-16.90625 11.59375 -16.90625 11.59375 -17.53125 8.59375 C-15.57756079 -0.78395819 -7.83903622 -0.11497667 0 0 Z " fill="#010101" transform="translate(176.90625,303.40625)"/>
<path d="M0 0 C1.73618591 -0.00006042 1.73618591 -0.00006042 3.50744629 -0.00012207 C5.95179684 0.00523347 8.39614694 0.02281732 10.84033203 0.05175781 C14.58028833 0.09359939 18.31844293 0.09282635 22.05859375 0.0859375 C24.43490834 0.09643055 26.81121365 0.10936926 29.1875 0.125 C30.3053186 0.12520142 31.42313721 0.12540283 32.5748291 0.12561035 C34.14170471 0.14947815 34.14170471 0.14947815 35.74023438 0.17382812 C37.11326721 0.18645691 37.11326721 0.18645691 38.51403809 0.19934082 C41.63433226 0.676399 43.54257635 1.76301627 46.09375 3.59375 C47.49832737 6.40290474 47.34270157 8.48185534 47.09375 11.59375 C45.31390595 14.7296657 44.57066793 15.43477736 41.09375 16.59375 C39.35148251 16.70622774 37.60535036 16.7627519 35.85961914 16.78662109 C34.25764427 16.81071548 34.25764427 16.81071548 32.62330627 16.83529663 C27.75416726 16.87973375 22.88516328 16.92078373 18.01586914 16.94384766 C15.44448821 16.96043826 12.87315397 16.98776846 10.30200195 17.02587891 C6.59822628 17.08049636 2.89552974 17.10249652 -0.80859375 17.1171875 C-1.95972153 17.13985687 -3.1108493 17.16252625 -4.29685974 17.18588257 C-12.24378301 17.1647377 -12.24378301 17.1647377 -15.62719727 14.24853516 C-17.21106678 10.96107627 -17.58167094 9.195995 -16.90625 5.59375 C-12.53401694 -0.87639205 -7.10803265 -0.1042549 0 0 Z " fill="#010101" transform="translate(176.90625,207.40625)"/>
<path d="M0 0 C15.43031832 8.17313665 15.43031832 8.17313665 18.375 14.0625 C1.215 14.0625 -15.945 14.0625 -33.625 14.0625 C-29.12246626 8.43433282 -29.12246626 8.43433282 -25.83984375 6.421875 C-25.14439453 5.99132812 -24.44894531 5.56078125 -23.73242188 5.1171875 C-23.01634766 4.68664062 -22.30027344 4.25609375 -21.5625 3.8125 C-20.84255859 3.36648438 -20.12261719 2.92046875 -19.38085938 2.4609375 C-12.60815667 -1.68946527 -7.60274201 -3.55120052 0 0 Z " fill="#F9B740" transform="translate(399.625,401.9375)"/>
<path d="M0 0 C0.98484375 -0.01095703 1.9696875 -0.02191406 2.984375 -0.03320312 C7.42790778 0.01183268 10.25310005 0.13120461 14.15234375 2.3828125 C16 4.5625 16 4.5625 16.5625 8 C15.87556645 12.35057915 15.36255372 13.69344337 12 16.5625 C7.99335459 17.32646746 4.06703106 17.25944041 0 17.1875 C-1.6396875 17.21650391 -1.6396875 17.21650391 -3.3125 17.24609375 C-11.26707228 17.1973525 -11.26707228 17.1973525 -14.71484375 14.2109375 C-16.30853986 10.92666405 -16.67562463 9.16583138 -16 5.5625 C-11.68814045 -0.62725186 -6.91906792 -0.16754287 0 0 Z " fill="#030303" transform="translate(256,399.4375)"/>
<path d="M0 0 C1.47726562 -0.02900391 1.47726562 -0.02900391 2.984375 -0.05859375 C7.77490245 -0.02622532 10.22939723 0.0518165 14.15625 2.97265625 C16.40719648 6.2107763 16.65810134 7.75865462 16 11.625 C14.22015595 14.7609157 13.47691793 15.46602736 10 16.625 C6.54690178 16.9292547 3.08992872 16.9484943 -0.375 17 C-1.32117188 17.03738281 -2.26734375 17.07476562 -3.2421875 17.11328125 C-7.96883931 17.17302825 -10.24297641 17.19087514 -14.125 14.2890625 C-16 11.625 -16 11.625 -16.625 8.625 C-14.75456808 -0.3530732 -7.60103253 -0.14923493 0 0 Z " fill="#030303" transform="translate(256,303.375)"/>
<path d="M0 0 C0.93714844 -0.00257813 1.87429688 -0.00515625 2.83984375 -0.0078125 C7.80437377 0.06260637 11.52949427 0.18039685 15.5 3.5 C16.90457737 6.30915474 16.74895157 8.38810534 16.5 11.5 C14.72015595 14.6359157 13.97691793 15.34102736 10.5 16.5 C6.85934132 16.80574257 3.21448292 16.82353067 -0.4375 16.875 C-1.43974609 16.91238281 -2.44199219 16.94976562 -3.47460938 16.98828125 C-10.84413595 17.07677456 -10.84413595 17.07677456 -14.15625 14.1640625 C-15.81722438 10.87108423 -16.18213925 9.13807599 -15.5 5.5 C-11.22161165 -0.54844923 -6.81462168 -0.20621964 0 0 Z " fill="#030404" transform="translate(255.5,207.5)"/>
<path d="M0 0 C2.31 1.98 4.62 3.96 7 6 C12.75422677 10.4421366 18.58216336 14.57715379 25 18 C25 18.66 25 19.32 25 20 C23.1640625 21.2265625 23.1640625 21.2265625 20.625 22.625 C14.95395907 25.90696411 10.02992186 29.82389681 5 34 C3.35 35.32 1.7 36.64 0 38 C0 25.46 0 12.92 0 0 Z " fill="#32B5EA" transform="translate(328,333)"/>
</svg>
